<svg width="115" height="94" viewBox="0 0 115 94" fill="none" xmlns="http://www.w3.org/2000/svg">
<path d="M7.41882 69.6891H6.16257V76.746H1.21625V52.4449H6.16257V66.2303H7.26444L11.6538 59.8913H17.3811L11.4146 67.5715L18.1954 76.746H12.5014L7.41882 69.6891Z" fill="#3C3C3B"/>
<path d="M36.328 68.7847C36.328 71.2984 35.7226 73.3084 34.5117 74.8148C33.3009 76.3212 31.5381 77.0762 29.2233 77.0799C28.2456 77.1022 27.2787 76.8872 26.4202 76.4566C25.591 76.013 24.8951 75.3866 24.3951 74.6339L23.9894 76.7543H19.8029V52.4449H24.7341V61.6833C25.2303 61.0355 25.8831 60.5021 26.6412 60.125C27.4274 59.748 28.3033 59.5567 29.19 59.5685C31.5169 59.5685 33.2908 60.3764 34.5117 61.9922C35.7327 63.608 36.3381 65.76 36.328 68.448V68.7847ZM31.4119 68.4536C31.4119 66.8118 31.1486 65.5132 30.6219 64.5579C30.0951 63.6025 29.2001 63.122 27.9368 63.1164C27.2551 63.0963 26.5805 63.2494 25.9873 63.5589C25.4469 63.8674 25.0124 64.3102 24.7341 64.8361V71.9681C25.023 72.4618 25.4615 72.8677 25.9964 73.1368C26.6067 73.4226 27.2855 73.5623 27.9701 73.5431C29.2475 73.5431 30.1405 73.1304 30.6491 72.3048C31.1577 71.4793 31.4119 70.3078 31.4119 68.7903V68.4536Z" fill="#3C3C3B"/>
<path d="M44.595 55.8564H39.6578V52.4449H44.6071L44.595 55.8564ZM44.595 76.746H39.6578V59.8913H44.6071L44.595 76.746Z" fill="#3C3C3B"/>
<path d="M50.3223 59.8913L50.4404 63.2862C50.9397 62.1862 51.7678 61.2388 52.8288 60.5536C53.9444 59.8814 55.2582 59.5413 56.5915 59.5797C58.1515 59.5797 59.4219 59.9405 60.4027 60.6621C61.3834 61.3838 62.0666 62.5033 62.452 64.0208C62.8769 62.7317 63.7119 61.5891 64.8495 60.7401C66.0227 59.9318 67.4618 59.5173 68.927 59.5658C70.9451 59.5658 72.4809 60.1724 73.5343 61.3856C74.5878 62.5989 75.1135 64.5097 75.1115 67.118V76.7293H74.167V67.0873C74.167 64.6479 73.6927 62.9245 72.7442 61.9171C72.2753 61.4197 71.6906 61.0256 71.0335 60.764C70.3764 60.5025 69.6637 60.3802 68.9482 60.4061C67.0613 60.4061 65.6234 60.9144 64.6346 61.931C63.5963 63.0527 62.9349 64.4273 62.7305 65.888C62.7305 66.0967 62.7517 66.3082 62.7638 66.5197C62.7759 66.7312 62.7638 66.9482 62.7638 67.1653V76.746H61.8315V68.1197H61.783C61.783 67.9231 61.783 67.7255 61.783 67.527C61.783 67.3294 61.8012 67.1374 61.8224 66.951C61.7881 64.5597 61.3027 62.8744 60.3663 61.8949C59.4299 60.9154 58.1707 60.4247 56.5885 60.4228C54.7238 60.4228 53.303 60.9191 52.3263 61.9116C51.2992 63.0001 50.6368 64.3386 50.4192 65.7656V76.746H49.4869V68.1197H49.4536C49.4536 67.9722 49.4536 67.8415 49.4536 67.6828C49.4536 67.5242 49.4687 67.3545 49.4778 67.1263V59.8913H50.3223Z" fill="#3C3C3B"/>
<path d="M79.3463 67.9917C79.3463 65.5207 80.089 63.5005 81.5743 61.931C83.0596 60.3616 84.9889 59.5778 87.3621 59.5797C89.7455 59.5797 91.6798 60.3634 93.1651 61.931C94.6504 63.4986 95.3931 65.5188 95.3931 67.9917V68.6456C95.3931 71.1278 94.6504 73.1526 93.1651 74.7202C91.6798 76.2878 89.7566 77.0744 87.3954 77.0799C85.0121 77.0799 83.0747 76.2961 81.5834 74.7286C80.092 73.161 79.3463 71.1361 79.3463 68.654V67.9917ZM80.2544 68.6456C80.2544 70.7642 80.8982 72.5581 82.1858 74.0273C83.4733 75.4966 85.2099 76.2359 87.3954 76.2451C89.5427 76.2451 91.258 75.5077 92.5415 74.0329C93.825 72.5581 94.4688 70.767 94.4728 68.6595V68.0056C94.5218 66.0726 93.832 64.185 92.5234 62.6712C91.9141 61.9518 91.1284 61.3751 90.2303 60.9882C89.3322 60.6013 88.3473 60.4152 87.3561 60.4451C85.1988 60.4451 83.4763 61.1871 82.1888 62.6712C80.8894 64.1886 80.2064 66.0751 80.2575 68.0056L80.2544 68.6456Z" fill="#3C3C3B"/>
<path d="M113.795 68.6289C113.795 71.2261 113.184 73.2825 111.964 74.7982C110.743 76.3138 109.061 77.0744 106.917 77.08C105.614 77.1089 104.323 76.8362 103.164 76.2869C102.138 75.7938 101.274 75.0567 100.663 74.1526L100.545 76.7544H99.7824V72.149C99.7719 72.1235 99.7628 72.0975 99.7551 72.0711C99.7537 72.0507 99.7537 72.0303 99.7551 72.0099V65.1144C99.763 65.0802 99.7742 65.0467 99.7884 65.0142V52.4449H100.697V62.8521C101.275 61.8653 102.129 61.0376 103.17 60.4534C104.294 59.8508 105.58 59.5482 106.881 59.5797C107.875 59.5483 108.861 59.7481 109.749 60.1606C110.636 60.5732 111.396 61.185 111.957 61.9394C113.182 63.5144 113.795 65.6357 113.795 68.3034V68.6289ZM112.847 68.3034C112.847 65.9659 112.343 64.0681 111.334 62.61C110.877 61.9148 110.226 61.3449 109.448 60.9597C108.67 60.5745 107.794 60.3882 106.911 60.42C105.172 60.42 103.814 60.8198 102.837 61.6194C101.863 62.4206 101.133 63.4409 100.718 64.5801V72.6499C101.16 73.7153 101.954 74.627 102.988 75.2573C104.04 75.9047 105.361 76.2294 106.954 76.2312C108.885 76.2312 110.354 75.5458 111.361 74.1748C112.368 72.8039 112.873 70.9553 112.875 68.6289L112.847 68.3034Z" fill="#3C3C3B"/>
<path d="M2.07002 91.9645C1.78728 91.978 1.50481 91.9336 1.24305 91.8345C0.981277 91.7353 0.746756 91.584 0.556452 91.3913C0.172857 90.9689 -0.0247771 90.4299 0.00248776 89.8803V89.7105C-0.0190496 89.1687 0.181944 88.6392 0.565533 88.2273C0.734393 88.0445 0.945193 87.8983 1.1828 87.7991C1.42042 87.7 1.67895 87.6505 1.93985 87.6541C2.19459 87.6372 2.45012 87.6751 2.68608 87.765C2.92205 87.8549 3.13193 87.9941 3.29903 88.1717C3.622 88.5727 3.78259 89.0648 3.7531 89.563V89.9637H0.859165V89.9832C0.842041 90.3426 0.947911 90.6978 1.16188 90.9989C1.26757 91.1301 1.40763 91.2347 1.56905 91.3028C1.73047 91.3709 1.90801 91.4004 2.08515 91.3885C2.3299 91.3885 2.57273 91.3489 2.80258 91.2716C2.99899 91.2007 3.17881 91.0958 3.33233 90.9627L3.6532 91.4525C3.47301 91.6128 3.26141 91.7402 3.02961 91.8282C2.72375 91.9324 2.39917 91.9825 2.07304 91.9756L2.07002 91.9645ZM1.93985 88.244C1.80118 88.2395 1.66326 88.2648 1.53712 88.3179C1.41097 88.3711 1.30009 88.4506 1.21334 88.5501C1.02267 88.7726 0.906926 89.0415 0.880355 89.3237V89.3432H2.92972V89.282C2.94094 89.0139 2.85583 88.7499 2.68755 88.5307C2.59807 88.4297 2.48332 88.3501 2.35312 88.2987C2.22292 88.2474 2.08112 88.2257 1.93985 88.2357" fill="#878787"/>
<path d="M8.38752 90.7652C8.38977 90.6872 8.37204 90.6098 8.33576 90.5392C8.29947 90.4686 8.24566 90.4069 8.17865 90.3589C7.94177 90.2161 7.6745 90.1212 7.39463 90.0807C6.9575 90.0113 6.54035 89.8608 6.16865 89.6382C6.03631 89.5532 5.9291 89.4393 5.8567 89.3066C5.78429 89.174 5.74897 89.0269 5.75393 88.8785C5.7544 88.7101 5.79728 88.5441 5.8792 88.3935C5.96113 88.2429 6.07989 88.1117 6.22616 88.0103C6.56907 87.7594 6.99913 87.6309 7.43701 87.6486C7.89032 87.6289 8.33524 87.7659 8.68418 88.0326C8.83038 88.1394 8.94772 88.2759 9.02701 88.4314C9.10631 88.5868 9.14542 88.757 9.14127 88.9286V88.9509H8.35422C8.35168 88.8571 8.32742 88.765 8.28305 88.6805C8.23868 88.596 8.17522 88.5213 8.09692 88.4611C7.91966 88.3126 7.6857 88.2346 7.44609 88.2441C7.21316 88.2279 6.98208 88.2924 6.79829 88.425C6.7305 88.4776 6.67611 88.5432 6.63897 88.6173C6.60183 88.6913 6.58285 88.772 6.58336 88.8535C6.57895 88.926 6.59339 88.9984 6.62551 89.0647C6.65762 89.131 6.70648 89.1893 6.76802 89.2347C7.00394 89.3633 7.26529 89.4475 7.5369 89.4824C7.9819 89.5524 8.40583 89.7079 8.78105 89.9388C8.91701 90.0253 9.02747 90.1416 9.10249 90.2771C9.17752 90.4126 9.21477 90.5631 9.2109 90.7151C9.21417 90.8903 9.1716 91.0636 9.08679 91.2205C9.00197 91.3775 8.87739 91.5133 8.72353 91.6167C8.35455 91.8636 7.90496 91.9873 7.44912 91.9673C6.95431 91.9893 6.46845 91.8404 6.08691 91.5499C5.93397 91.4378 5.81163 91.2944 5.72964 91.1311C5.64765 90.9678 5.60829 90.7891 5.61468 90.6094V90.5843H6.39871C6.39613 90.6998 6.42463 90.8141 6.48167 90.917C6.5387 91.0199 6.6225 91.1083 6.72564 91.1743C6.93781 91.3013 7.18688 91.3663 7.44003 91.3607C7.68399 91.3741 7.92612 91.3145 8.13022 91.191C8.20708 91.1422 8.26985 91.0769 8.3131 91.0007C8.35635 90.9246 8.37877 90.84 8.37844 90.7541" fill="#878787"/>
<path d="M15.1714 89.961C15.1983 90.48 15.0329 90.9921 14.7022 91.4136C14.551 91.5948 14.3547 91.7399 14.1297 91.8367C13.9048 91.9336 13.6578 91.9793 13.4096 91.9701C13.1583 91.9755 12.9086 91.9319 12.677 91.8421C12.4654 91.7561 12.2802 91.6232 12.1382 91.4553V93.4978H11.3148V87.7376H11.9445L12.0746 88.2775C12.2147 88.0843 12.4052 87.9265 12.6286 87.8183C12.8676 87.7106 13.1313 87.6572 13.3975 87.6625C13.654 87.6542 13.9087 87.7061 14.1375 87.8132C14.3662 87.9203 14.5616 88.0791 14.7052 88.2747C15.0349 88.7538 15.1975 89.3139 15.1714 89.8803V89.961ZM14.345 89.8803C14.3628 89.4743 14.258 89.0718 14.0423 88.7171C13.9518 88.5713 13.8189 88.4516 13.6585 88.3715C13.498 88.2913 13.3164 88.254 13.1341 88.2636C12.9209 88.2569 12.7103 88.3082 12.5287 88.411C12.358 88.5125 12.2184 88.6523 12.1231 88.8173V90.8264C12.2178 90.9903 12.3577 91.1285 12.5287 91.2271C12.7115 91.3271 12.9215 91.3773 13.1341 91.3718C13.3086 91.3865 13.4843 91.3593 13.644 91.293C13.8037 91.2267 13.9419 91.1234 14.0453 90.9934C14.258 90.6907 14.3637 90.335 14.348 89.9749L14.345 89.8803Z" fill="#878787"/>
<path d="M19.134 91.9646C18.8512 91.9783 18.5687 91.934 18.3069 91.8349C18.0451 91.7357 17.8106 91.5842 17.6204 91.3913C17.2415 90.9692 17.0472 90.4325 17.0755 89.8859V89.7162C17.054 89.1743 17.255 88.6449 17.6386 88.233C17.8063 88.0481 18.0165 87.8997 18.2542 87.7987C18.4919 87.6976 18.751 87.6464 19.0129 87.6486C19.2676 87.6319 19.523 87.67 19.759 87.7598C19.9949 87.8497 20.2048 87.9888 20.3721 88.1662C20.695 88.5672 20.8556 89.0593 20.8261 89.5575V89.9583H17.9261V89.9777C17.909 90.3371 18.0149 90.6923 18.2289 90.9934C18.3329 91.1228 18.4705 91.2262 18.6291 91.2942C18.7877 91.3622 18.9623 91.3928 19.137 91.383C19.3873 91.3875 19.6364 91.3508 19.8726 91.2745C20.0726 91.2073 20.2566 91.1053 20.4144 90.9739L20.7353 91.4637C20.5487 91.6218 20.3308 91.7455 20.0936 91.8282C19.7867 91.9327 19.4611 91.9828 19.134 91.9757V91.9646ZM19.0068 88.2552C18.8702 88.2524 18.7346 88.2785 18.6107 88.3316C18.4869 88.3847 18.3779 88.4633 18.2924 88.5613C18.0996 88.7794 17.9797 89.0443 17.9473 89.3238V89.3433H19.9876V89.2821C19.9988 89.014 19.9137 88.7499 19.7454 88.5307C19.656 88.4297 19.5412 88.3502 19.411 88.2988C19.2808 88.2474 19.139 88.2258 18.9977 88.2358" fill="#878787"/>
<path d="M24.622 91.3718C24.8679 91.3756 25.1061 91.293 25.288 91.1409C25.376 91.0723 25.447 90.9871 25.4961 90.891C25.5452 90.795 25.5713 90.6904 25.5725 90.5843H26.3172V90.6066C26.318 90.7876 26.2743 90.9665 26.1894 91.1298C26.1045 91.2932 25.9806 91.4368 25.8268 91.5499C25.4442 91.8481 24.9496 91.9965 24.4493 91.9632C23.9489 91.9299 23.4828 91.7176 23.1509 91.3718C22.7917 90.9465 22.6074 90.4183 22.6302 89.8803V89.7189C22.612 89.1858 22.796 88.6634 23.1509 88.2413C23.3287 88.0441 23.5545 87.8882 23.8101 87.7862C24.0657 87.6842 24.3439 87.6389 24.622 87.6542C24.8495 87.6462 25.0764 87.68 25.2895 87.7536C25.5026 87.8272 25.6976 87.9391 25.8632 88.0827C26.0187 88.218 26.1408 88.3824 26.2212 88.5648C26.3016 88.7473 26.3385 88.9435 26.3293 89.1401V89.1652H25.5725C25.5786 88.9244 25.4807 88.6913 25.3001 88.5168C25.2158 88.428 25.1115 88.3571 24.9944 88.309C24.8773 88.261 24.7502 88.2369 24.622 88.2385C24.4456 88.2277 24.2695 88.2624 24.1133 88.3386C23.9572 88.4148 23.8272 88.5295 23.7381 88.6698C23.5442 88.9901 23.4479 89.3525 23.4596 89.7189V89.8803C23.4468 90.2488 23.5409 90.6137 23.7321 90.9377C23.8226 91.078 23.9538 91.1924 24.1109 91.268C24.2681 91.3437 24.445 91.3777 24.622 91.3663" fill="#878787"/>
<path d="M29.2778 86.6608H28.4575V85.8872H29.2839L29.2778 86.6608ZM29.2778 91.8839H28.4575V87.7238H29.2839L29.2778 91.8839Z" fill="#878787"/>
<path d="M34.4026 91.8838C34.3754 91.7586 34.3542 91.6473 34.3391 91.5527C34.324 91.4559 34.3149 91.3583 34.3118 91.2605C34.1512 91.4653 33.9448 91.636 33.7064 91.7614C33.4666 91.8957 33.191 91.966 32.9103 91.9645C32.5175 91.9897 32.1299 91.8706 31.8326 91.6334C31.7051 91.5122 31.6062 91.368 31.5421 91.21C31.4781 91.052 31.4502 90.8835 31.4603 90.7151C31.4539 90.5313 31.499 90.349 31.5912 90.1858C31.6834 90.0226 31.8197 89.8838 31.987 89.7829C32.413 89.5403 32.9093 89.4228 33.4097 89.4462H34.3179V89.0455C34.3231 88.9389 34.3043 88.8324 34.2626 88.7328C34.221 88.6332 34.1573 88.5426 34.0757 88.4667C33.8857 88.3161 33.6389 88.2401 33.3885 88.2552C33.1559 88.2451 32.9268 88.3101 32.7407 88.4389C32.6654 88.4901 32.604 88.5568 32.5615 88.6336C32.5189 88.7103 32.4964 88.7952 32.4955 88.8813H31.7115V88.8563C31.7088 88.693 31.7496 88.5315 31.8304 88.386C31.9111 88.2405 32.0293 88.1154 32.1747 88.0215C32.5349 87.7608 32.985 87.6275 33.443 87.6458C33.8892 87.6255 34.3284 87.7529 34.6811 88.0048C34.8406 88.1326 34.9658 88.2925 35.0472 88.472C35.1286 88.6515 35.1639 88.8459 35.1503 89.0399V91.0435C35.1503 91.1909 35.1503 91.3357 35.1746 91.4748C35.1924 91.6125 35.2238 91.7485 35.2684 91.8811L34.4026 91.8838ZM33.0344 91.3273C33.3205 91.3314 33.6017 91.2578 33.8426 91.1158C34.0522 91.0057 34.217 90.8357 34.3118 90.6316V89.9554H33.4037C33.1159 89.9426 32.8325 90.0245 32.6045 90.1864C32.5124 90.2496 32.4372 90.3314 32.3847 90.4255C32.3323 90.5195 32.3039 90.6233 32.3018 90.729C32.2966 90.81 32.3106 90.8911 32.3431 90.9666C32.3755 91.042 32.4255 91.1101 32.4895 91.1659C32.6447 91.2832 32.8431 91.341 33.0435 91.3273" fill="#878787"/>
<path d="M38.3016 85.8872H37.4783V91.8839H38.3016V85.8872Z" fill="#878787"/>
<path d="M41.5377 86.6608H40.7143V85.8872H41.5377V86.6608ZM41.5377 91.8839H40.7143V87.7238H41.5377V91.8839Z" fill="#878787"/>
<path d="M46.5142 90.7652C46.5163 90.6874 46.4988 90.6103 46.4631 90.5398C46.4274 90.4694 46.3744 90.4074 46.3083 90.3589C46.0712 90.2165 45.804 90.1217 45.5243 90.0806C45.0862 90.0113 44.6681 89.8607 44.2953 89.6382C44.1605 89.5547 44.0508 89.4413 43.9762 89.3085C43.9016 89.1758 43.8646 89.0279 43.8685 88.8785C43.8684 88.7103 43.9107 88.5444 43.9921 88.3937C44.0735 88.2431 44.1918 88.1118 44.3377 88.0103C44.6976 87.7715 45.1313 87.6448 45.5752 87.6488C46.0191 87.6528 46.45 87.7873 46.8048 88.0326C46.9504 88.1397 47.0672 88.2763 47.146 88.4317C47.2247 88.5871 47.2634 88.7572 47.2589 88.9286V88.9509H46.4748C46.4717 88.8572 46.4472 88.7652 46.4029 88.6808C46.3585 88.5964 46.2954 88.5216 46.2175 88.4611C46.0339 88.3267 45.8079 88.2505 45.5732 88.2439C45.3386 88.2374 45.108 88.3009 44.9159 88.4249C44.8481 88.4775 44.7937 88.5432 44.7565 88.6172C44.7194 88.6913 44.7004 88.7719 44.7009 88.8535C44.6965 88.9259 44.711 88.9983 44.7431 89.0646C44.7752 89.1309 44.824 89.1892 44.8856 89.2347C45.1218 89.3627 45.383 89.4469 45.6545 89.4824C46.1058 89.5501 46.5362 89.7057 46.9168 89.9387C47.0523 90.025 47.1625 90.1409 47.2375 90.2758C47.3125 90.4108 47.35 90.5608 47.3466 90.7123C47.3507 90.8876 47.3084 91.0612 47.2236 91.2182C47.1387 91.3752 47.0137 91.511 46.8593 91.6139C46.4655 91.8512 46.0028 91.9732 45.532 91.9638C45.0613 91.9544 44.6048 91.8139 44.2226 91.561C44.0702 91.4485 43.9483 91.3049 43.8663 91.1417C43.7844 90.9786 43.7447 90.8001 43.7504 90.6205V90.5954H44.5375C44.5335 90.7111 44.5614 90.8258 44.6186 90.929C44.6757 91.0321 44.7603 91.1203 44.8644 91.1854C45.0763 91.3129 45.3256 91.378 45.5788 91.3718C45.8218 91.3852 46.063 91.3256 46.266 91.2021C46.3434 91.1538 46.4066 91.0886 46.4499 91.0123C46.4932 90.9361 46.5153 90.8512 46.5142 90.7652Z" fill="#878787"/>
<path d="M50.5887 86.7219V87.7237H51.4454V88.2802H50.5887V90.8069C50.5797 90.88 50.5866 90.9541 50.6089 91.0248C50.6313 91.0955 50.6687 91.1614 50.7189 91.2187C50.7661 91.2586 50.8215 91.2895 50.8817 91.3095C50.942 91.3296 51.006 91.3385 51.0701 91.3356C51.123 91.335 51.1757 91.3294 51.2275 91.3189C51.2767 91.3097 51.3252 91.2976 51.3728 91.2827L51.4878 91.8003C51.4075 91.8567 51.3143 91.8957 51.2154 91.9144C51.1 91.9438 50.9809 91.9588 50.8612 91.9589C50.7143 91.9661 50.5673 91.9451 50.4297 91.8972C50.2921 91.8492 50.1669 91.7755 50.062 91.6807C49.8398 91.4375 49.731 91.1234 49.7593 90.8069V88.2802H49.0419V87.7237H49.7623V86.7219H50.5887Z" fill="#878787"/>
<path d="M56.189 91.8838C56.1587 91.7586 56.1375 91.6473 56.1224 91.5527C56.1073 91.4558 56.0982 91.3583 56.0951 91.2605C55.936 91.4665 55.7293 91.6375 55.4897 91.7614C55.25 91.8956 54.9743 91.966 54.6936 91.9645C54.3009 91.9894 53.9134 91.8703 53.6159 91.6334C53.4894 91.5116 53.3913 91.3673 53.3278 91.2094C53.2643 91.0514 53.2367 90.8832 53.2466 90.7151C53.2402 90.5315 53.2849 90.3495 53.3766 90.1864C53.4683 90.0232 53.6038 89.8843 53.7703 89.7829C54.1974 89.5402 54.6946 89.4228 55.1961 89.4462H56.1042V89.0455C56.1102 88.9388 56.0917 88.8321 56.05 88.7324C56.0083 88.6327 55.9443 88.5422 55.862 88.4667C55.6731 88.3162 55.4273 88.2402 55.1779 88.2552C54.9443 88.2449 54.7142 88.3099 54.5271 88.4388C54.4517 88.4901 54.3904 88.5568 54.3478 88.6335C54.3053 88.7103 54.2827 88.7951 54.2819 88.8813H53.5009V88.8562C53.4968 88.693 53.5367 88.5314 53.6169 88.3857C53.6972 88.2401 53.8154 88.115 53.961 88.0214C54.3227 87.7612 54.7735 87.628 55.2324 87.6458C55.6784 87.626 56.1175 87.7533 56.4705 88.0047C56.6255 88.1358 56.7459 88.2977 56.8225 88.4781C56.899 88.6585 56.9298 88.8525 56.9124 89.0455V91.049C56.9122 91.1931 56.9213 91.3372 56.9397 91.4803C56.9551 91.6182 56.9855 91.7543 57.0305 91.8866L56.189 91.8838ZM54.8207 91.3273C55.1068 91.3305 55.3876 91.257 55.6289 91.1158C55.8377 91.0055 56.0015 90.8355 56.0951 90.6316V89.9554H55.1719C54.8851 89.9432 54.6029 90.0251 54.3757 90.1864C54.2832 90.2493 54.2078 90.331 54.1553 90.4251C54.1028 90.5192 54.0746 90.6232 54.073 90.729C54.069 90.8099 54.0836 90.8906 54.1159 90.9659C54.1483 91.0412 54.1976 91.1094 54.2607 91.1659C54.417 91.2833 54.6164 91.3411 54.8177 91.3273" fill="#878787"/>
<path d="M64.2774 91.9646C63.9947 91.9779 63.7123 91.9334 63.4506 91.8343C63.1888 91.7352 62.9543 91.5839 62.7638 91.3914C62.3849 90.9693 62.1907 90.4325 62.219 89.8859V89.7162C62.1974 89.1743 62.3984 88.6449 62.782 88.233C62.9497 88.0481 63.16 87.8998 63.3977 87.7987C63.6353 87.6977 63.8945 87.6464 64.1563 87.6486C64.4111 87.6313 64.6668 87.669 64.9028 87.7589C65.1389 87.8488 65.3487 87.9883 65.5155 88.1662C65.8385 88.5673 65.9991 89.0593 65.9696 89.5576V89.9583H63.0756V89.9778C63.0571 90.3372 63.163 90.6929 63.3783 90.9934C63.482 91.1232 63.6196 91.2268 63.7783 91.2949C63.937 91.363 64.1117 91.3933 64.2865 91.383C64.5358 91.3873 64.7839 91.3506 65.0191 91.2745C65.2194 91.208 65.4035 91.1059 65.5609 90.974L65.8818 91.4637C65.6961 91.6215 65.4793 91.7452 65.2431 91.8282C64.9372 91.9325 64.6126 91.9825 64.2865 91.9757L64.2774 91.9646ZM64.1563 88.2553C64.0199 88.2537 63.8848 88.2804 63.7611 88.3334C63.6374 88.3863 63.5283 88.4643 63.4419 88.5614C63.2458 88.7785 63.1227 89.0434 63.0877 89.3238V89.3433H65.128V89.2821C65.1392 89.014 65.0541 88.75 64.8859 88.5308C64.7965 88.4296 64.6818 88.3499 64.5516 88.2985C64.4213 88.2471 64.2795 88.2256 64.1382 88.2358" fill="#878787"/>
<path d="M68.7 87.7237L68.7575 88.2802C68.9017 88.0874 69.095 87.9298 69.3205 87.8211C69.5668 87.7092 69.839 87.6538 70.1136 87.6597C70.3869 87.6524 70.6564 87.7192 70.8886 87.8517C71.1145 87.9902 71.2855 88.1923 71.376 88.4277C71.512 88.2013 71.7077 88.01 71.9451 87.8712C72.1892 87.7294 72.4737 87.6577 72.7624 87.6653C72.968 87.6567 73.173 87.6913 73.3618 87.7665C73.5507 87.8417 73.7184 87.9556 73.8522 88.0994C74.1506 88.4798 74.2932 88.945 74.2548 89.4128V91.9005H73.4314V89.3961C73.4606 89.0913 73.3798 88.7862 73.2013 88.5279C73.1161 88.4393 73.0097 88.3701 72.8905 88.3257C72.7712 88.2813 72.6424 88.2628 72.5142 88.2719C72.3849 88.2691 72.2565 88.2926 72.1382 88.3407C72.02 88.3888 71.9147 88.4603 71.83 88.5501C71.6528 88.742 71.5467 88.9808 71.5273 89.2319V91.9033H70.6979V89.3989C70.724 89.0979 70.641 88.7975 70.4618 88.5446C70.3807 88.4523 70.2769 88.3789 70.1591 88.3306C70.0412 88.2822 69.9126 88.2602 69.7837 88.2663C69.5715 88.2611 69.3618 88.3102 69.1783 88.4082C69.0156 88.5057 68.8864 88.6437 68.8059 88.8062V91.8838H67.9825V87.7237H68.7Z" fill="#878787"/>
<path d="M80.6268 86.6608H79.8035V85.8872H80.6268V86.6608ZM80.6268 91.8839H79.8035V87.7238H80.6268V91.8839Z" fill="#878787"/>
<path d="M83.7115 87.7238L83.769 88.2803C83.9125 88.0868 84.106 87.9291 84.332 87.8212C84.5773 87.7093 84.8484 87.6539 85.1221 87.6598C85.3962 87.6529 85.6666 87.7196 85.9001 87.8518C86.1253 87.991 86.2961 88.1929 86.3875 88.4278C86.5215 88.2009 86.7163 88.0094 86.9535 87.8712C87.198 87.7301 87.4823 87.6585 87.7709 87.6653C87.9769 87.6569 88.1823 87.6916 88.3716 87.7668C88.5609 87.842 88.7291 87.9557 88.8637 88.0994C89.1598 88.4808 89.3012 88.9455 89.2632 89.4128V91.9005H88.4399V89.3961C88.471 89.0912 88.39 88.7856 88.2098 88.528C88.1246 88.4394 88.0182 88.3702 87.8989 88.3257C87.7797 88.2813 87.6509 88.2629 87.5226 88.2719C87.3934 88.2691 87.265 88.2926 87.1467 88.3407C87.0285 88.3888 86.9232 88.4604 86.8385 88.5502C86.6612 88.7421 86.5552 88.9809 86.5358 89.232V91.9033H85.7064V89.3989C85.7325 89.098 85.6495 88.7976 85.4702 88.5446C85.3892 88.4523 85.2854 88.379 85.1676 88.3306C85.0497 88.2823 84.9211 88.2603 84.7922 88.2664C84.58 88.2611 84.3703 88.3103 84.1867 88.4083C84.0241 88.5058 83.8949 88.6438 83.8144 88.8062V91.8838H82.991V87.7238H83.7115Z" fill="#878787"/>
<path d="M91.3459 89.7662C91.3221 89.2159 91.5156 88.6762 91.8908 88.2468C92.0701 88.0492 92.2968 87.8923 92.5531 87.7886C92.8094 87.6848 93.0883 87.6369 93.368 87.6486C93.6487 87.6371 93.9286 87.6848 94.1862 87.788C94.4438 87.8913 94.6723 88.0472 94.8543 88.2441C95.2299 88.6743 95.4235 89.215 95.3992 89.7662V89.8497C95.4243 90.401 95.2306 90.9419 94.8543 91.3718C94.6651 91.5587 94.436 91.7078 94.1813 91.8097C93.9266 91.9117 93.6518 91.9643 93.3741 91.9643C93.0963 91.9643 92.8215 91.9117 92.5668 91.8097C92.3121 91.7078 92.083 91.5587 91.8938 91.3718C91.5161 90.9424 91.3214 90.4014 91.3459 89.8497V89.7662ZM92.1693 89.8497C92.1524 90.2335 92.2576 90.6135 92.472 90.9433C92.573 91.0759 92.7074 91.1841 92.8636 91.2589C93.0198 91.3336 93.1934 91.3727 93.3695 91.3727C93.5456 91.3727 93.7192 91.3336 93.8754 91.2589C94.0317 91.1841 94.166 91.0759 94.2671 90.9433C94.4815 90.6135 94.5867 90.2335 94.5698 89.8497V89.7662C94.5873 89.3841 94.482 89.0056 94.2671 88.6782C94.1716 88.5379 94.0371 88.4236 93.8774 88.3473C93.7177 88.2709 93.5387 88.2353 93.3589 88.2441C93.1814 88.236 93.0048 88.2721 92.8476 88.3485C92.6905 88.4249 92.5587 88.5388 92.4659 88.6782C92.2523 89.0062 92.1471 89.3842 92.1632 89.7662L92.1693 89.8497ZM93.7736 85.9539H94.7332V85.979L93.6071 86.9779H93.0017L93.7736 85.9539Z" fill="#878787"/>
<path d="M98.9318 90.6565L99.0045 90.9487H99.0287L99.1074 90.6565L100.149 87.7236H100.99L99.3254 91.8837H98.7018L97.0187 87.7236H97.8633L98.9318 90.6565Z" fill="#878787"/>
<path d="M104.629 91.9645C104.346 91.9784 104.064 91.9342 103.802 91.835C103.54 91.7359 103.305 91.5843 103.115 91.3913C102.731 90.9696 102.533 90.4301 102.561 89.8803V89.7105C102.54 89.1687 102.741 88.6392 103.125 88.2273C103.292 88.0424 103.502 87.8941 103.74 87.793C103.978 87.692 104.237 87.6407 104.499 87.643C104.754 87.626 105.01 87.664 105.246 87.7538C105.483 87.8437 105.693 87.9829 105.861 88.1606C106.184 88.5616 106.345 89.0537 106.315 89.5519V89.9526H103.418V89.9721C103.401 90.3314 103.507 90.6866 103.721 90.9878C103.825 91.1175 103.962 91.2212 104.121 91.2892C104.279 91.3573 104.454 91.3876 104.629 91.3773C104.878 91.3819 105.126 91.3451 105.362 91.2688C105.562 91.2024 105.746 91.1002 105.903 90.9683L106.224 91.458C106.039 91.6164 105.822 91.7402 105.586 91.8226C105.28 91.9271 104.955 91.9772 104.629 91.9701V91.9645ZM104.499 88.2496C104.362 88.248 104.227 88.2747 104.104 88.3277C103.98 88.3807 103.871 88.4586 103.784 88.5557C103.59 88.7753 103.471 89.0423 103.439 89.3237V89.3432H105.48V89.282C105.492 89.0137 105.407 88.7493 105.237 88.5306C105.148 88.4295 105.033 88.3498 104.903 88.2984C104.773 88.247 104.631 88.2255 104.49 88.2357" fill="#878787"/>
<path d="M109.209 86.6608H108.373V85.8872H109.2L109.209 86.6608ZM109.209 91.8839H108.373V87.7238H109.2L109.209 91.8839Z" fill="#878787"/>
<path d="M114.186 90.7653C114.188 90.6872 114.17 90.6098 114.134 90.5393C114.097 90.4687 114.044 90.4069 113.977 90.359C113.74 90.2161 113.472 90.1213 113.193 90.0807C112.755 90.0119 112.338 89.8613 111.967 89.6383C111.831 89.5553 111.721 89.4421 111.645 89.3092C111.57 89.1764 111.533 89.0283 111.537 88.8786C111.537 88.7102 111.58 88.5442 111.662 88.3936C111.744 88.2429 111.863 88.1118 112.009 88.0104C112.368 87.7714 112.802 87.6446 113.245 87.6486C113.689 87.6526 114.119 87.7872 114.473 88.0327C114.619 88.1395 114.737 88.276 114.816 88.4314C114.895 88.5868 114.934 88.757 114.93 88.9287V88.951H114.125C114.122 88.8572 114.098 88.765 114.054 88.6806C114.009 88.5961 113.946 88.5213 113.868 88.4612C113.69 88.3127 113.456 88.2347 113.217 88.2441C112.983 88.2286 112.751 88.293 112.566 88.425C112.498 88.4776 112.444 88.5433 112.407 88.6173C112.37 88.6914 112.351 88.772 112.351 88.8536C112.347 88.9263 112.362 88.9988 112.395 89.0651C112.427 89.1314 112.477 89.1896 112.539 89.2348C112.774 89.3629 113.034 89.4471 113.305 89.4825C113.756 89.5492 114.187 89.7049 114.567 89.9388C114.703 90.025 114.813 90.1407 114.889 90.2757C114.965 90.4106 115.003 90.5607 115 90.7124C115.003 90.8876 114.961 91.0609 114.876 91.2178C114.791 91.3747 114.666 91.5106 114.512 91.614C114.143 91.8605 113.694 91.9841 113.238 91.9646C112.745 91.9907 112.259 91.8468 111.876 91.5611C111.722 91.4494 111.6 91.3061 111.518 91.1427C111.435 90.9793 111.396 90.8004 111.404 90.6206V90.5955H112.188C112.185 90.711 112.214 90.8253 112.271 90.9282C112.328 91.0311 112.411 91.1195 112.515 91.1855C112.727 91.3125 112.976 91.3775 113.229 91.3719C113.473 91.3853 113.715 91.3257 113.919 91.2022C113.996 91.1534 114.059 91.0881 114.102 91.0119C114.145 90.9358 114.168 90.8512 114.167 90.7653" fill="#878787"/>
<path d="M61.2684 1.47161L49.2235 12.5439V8.28918C49.2235 8.20357 49.1865 8.12147 49.1206 8.06094C49.0548 8.0004 48.9655 7.96639 48.8723 7.96639H40.8686C40.7755 7.96639 40.6862 8.0004 40.6203 8.06094C40.5545 8.12147 40.5175 8.20357 40.5175 8.28918V20.558L30.6491 29.6268C30.454 29.8067 30.3445 30.0504 30.3445 30.3044C30.3445 30.5584 30.454 30.802 30.6491 30.982L38.3985 38.1223C38.495 38.2118 38.6098 38.2828 38.7364 38.3312C38.8629 38.3796 38.9986 38.4046 39.1356 38.4046C39.2726 38.4046 39.4083 38.3796 39.5349 38.3312C39.6614 38.2828 39.7762 38.2118 39.8727 38.1223L64.3924 15.5826C64.5881 15.4033 64.8532 15.3027 65.1295 15.3027C65.4058 15.3027 65.6709 15.4033 65.8666 15.5826L75.1357 24.106C75.3309 24.2851 75.5954 24.3856 75.8713 24.3856C76.1471 24.3856 76.4116 24.2851 76.6068 24.106L84.3684 16.9712C84.5632 16.7917 84.6726 16.5485 84.6726 16.295C84.6726 16.0414 84.5632 15.7982 84.3684 15.6188L68.9967 1.47161C68.4893 1.00506 67.8869 0.634965 67.2238 0.382463C66.5608 0.129962 65.8502 0 65.1325 0C64.4149 0 63.7042 0.129962 63.0412 0.382463C62.3782 0.634965 61.7758 1.00506 61.2684 1.47161Z" fill="#F4CE5F"/>
</svg>
