<svg width="133" height="116" viewBox="0 0 133 116" fill="none" xmlns="http://www.w3.org/2000/svg">
<g clip-path="url(#clip0)">
<path d="M9.05352 86.4742H7.61264V95.2308H1.93938V65.0767H7.61264V82.1823H8.87645L13.9109 74.3166H20.4799L13.6366 83.8466L21.4139 95.2308H14.883L9.05352 86.4742Z" fill="#3C3C3B"/>
<path d="M42.2102 85.352C42.2102 88.4711 41.5158 90.9653 40.127 92.8344C38.7382 94.7036 36.7163 95.6405 34.0614 95.6451C32.94 95.6728 31.831 95.406 30.8463 94.8716C29.8953 94.3212 29.097 93.5439 28.5236 92.61L28.0583 95.2411H23.2565V65.0767H28.9124V76.5403C29.4816 75.7363 30.2303 75.0745 31.0998 74.6066C32.0015 74.1387 33.0062 73.9014 34.0232 73.9161C36.692 73.9161 38.7266 74.9185 40.127 76.9235C41.5274 78.9285 42.2218 81.5987 42.2102 84.9342V85.352ZM36.5717 84.9411C36.5717 82.9039 36.2696 81.2926 35.6655 80.1071C35.0613 78.9216 34.0348 78.3254 32.5858 78.3185C31.8039 78.2935 31.0302 78.4835 30.3498 78.8675C29.73 79.2504 29.2316 79.7998 28.9124 80.4524V89.3021C29.2438 89.9147 29.7467 90.4184 30.3602 90.7523C31.0602 91.1069 31.8388 91.2803 32.624 91.2565C34.0892 91.2565 35.1134 90.7443 35.6967 89.7199C36.28 88.6956 36.5717 87.2419 36.5717 85.3589V84.9411Z" fill="#3C3C3B"/>
<path d="M51.6922 69.3099H46.0294V65.0767H51.7061L51.6922 69.3099ZM51.6922 95.2308H46.0294V74.3166H51.7061L51.6922 95.2308Z" fill="#3C3C3B"/>
<path d="M58.2613 74.3164L58.3967 78.529C58.9694 77.164 59.9192 75.9884 61.1361 75.1382C62.4157 74.3041 63.9226 73.8821 65.4518 73.9297C67.241 73.9297 68.6981 74.3774 69.8231 75.2729C70.948 76.1683 71.7315 77.5575 72.1736 79.4405C72.6609 77.8409 73.6187 76.4231 74.9234 75.3696C76.2691 74.3666 77.9197 73.8523 79.6002 73.9124C81.9149 73.9124 83.6764 74.6652 84.8846 76.1706C86.0929 77.6761 86.6959 80.0471 86.6935 83.2836V95.2099H85.6103V83.2456C85.6103 80.2186 85.0663 78.0801 83.9784 76.8301C83.4406 76.2129 82.77 75.7239 82.0163 75.3993C81.2626 75.0748 80.4452 74.923 79.6245 74.9552C77.4603 74.9552 75.8111 75.5859 74.6769 76.8474C73.4861 78.2392 72.7274 79.9449 72.493 81.7574C72.493 82.0164 72.5173 82.2788 72.5312 82.5412C72.5451 82.8036 72.5312 83.073 72.5312 83.3423V95.2306H71.4618V84.5266H71.4063C71.4063 84.2826 71.4063 84.0375 71.4063 83.7912C71.4063 83.546 71.4271 83.3078 71.4514 83.0764C71.4121 80.1092 70.8554 78.0179 69.7814 76.8025C68.7074 75.5871 67.263 74.9782 65.4483 74.9759C63.3096 74.9759 61.68 75.5917 60.5597 76.8232C59.3817 78.1739 58.622 79.8348 58.3724 81.6055V95.2306H57.303V84.5266H57.2648C57.2648 84.3436 57.2648 84.1813 57.2648 83.9845C57.2648 83.7877 57.2822 83.5771 57.2926 83.2939V74.3164H58.2613Z" fill="#3C3C3B"/>
<path d="M91.5508 84.3678C91.5508 81.3016 92.4026 78.7948 94.1062 76.8474C95.8098 74.9 98.0227 73.9274 100.745 73.9297C103.478 73.9297 105.697 74.9023 107.401 76.8474C109.104 78.7925 109.956 81.2993 109.956 84.3678V85.1792C109.956 88.2592 109.104 90.7717 107.401 92.7169C105.697 94.662 103.491 95.638 100.783 95.6449C98.0493 95.6449 95.8272 94.6724 94.1167 92.7272C92.4061 90.7821 91.5508 88.2696 91.5508 85.1896V84.3678ZM92.5924 85.1792C92.5924 87.808 93.3308 90.034 94.8076 91.8571C96.2843 93.6802 98.2761 94.5975 100.783 94.6091C103.246 94.6091 105.213 93.694 106.685 91.864C108.157 90.034 108.896 87.8115 108.9 85.1965V84.385C108.957 81.9865 108.165 79.6442 106.664 77.7659C105.966 76.8732 105.064 76.1576 104.034 75.6775C103.004 75.1974 101.875 74.9665 100.738 75.0035C98.2634 75.0035 96.2878 75.9243 94.8111 77.7659C93.3207 79.6487 92.5373 81.9895 92.5959 84.385L92.5924 85.1792Z" fill="#3C3C3B"/>
<path d="M131.062 85.1587C131.062 88.3814 130.362 90.9331 128.962 92.8137C127.561 94.6944 125.632 95.6382 123.174 95.6451C121.679 95.681 120.198 95.3426 118.869 94.661C117.692 94.0491 116.701 93.1346 116.001 92.0127L115.865 95.2411H114.99V89.5266C114.978 89.4949 114.968 89.4626 114.959 89.4299C114.957 89.4046 114.957 89.3792 114.959 89.354V80.7977C114.968 80.7552 114.981 80.7136 114.997 80.6734V65.0767H116.039V77.9905C116.703 76.7661 117.682 75.7389 118.876 75.0141C120.166 74.2663 121.64 73.8909 123.132 73.9299C124.272 73.891 125.403 74.1389 126.421 74.6508C127.439 75.1627 128.311 75.9218 128.955 76.8579C130.36 78.8123 131.062 81.4445 131.062 84.7547V85.1587ZM129.976 84.7547C129.976 81.8543 129.397 79.4994 128.24 77.6901C127.716 76.8274 126.969 76.1203 126.076 75.6423C125.184 75.1644 124.18 74.9331 123.167 74.9727C121.172 74.9727 119.614 75.4687 118.494 76.4608C117.377 77.455 116.539 78.7211 116.063 80.1347V90.1481C116.571 91.4701 117.481 92.6013 118.667 93.3835C119.873 94.1869 121.389 94.5897 123.216 94.592C125.431 94.592 127.116 93.7414 128.271 92.0403C129.426 90.3392 130.004 88.0453 130.007 85.1587L129.976 84.7547Z" fill="#3C3C3B"/>
<path d="M2.91752 114.115C2.59324 114.131 2.26926 114.076 1.96902 113.953C1.66878 113.83 1.39979 113.642 1.18152 113.403C0.74155 112.879 0.514871 112.21 0.546143 111.528V111.318C0.52144 110.645 0.751973 109.988 1.19194 109.477C1.38561 109.25 1.62739 109.069 1.89992 108.946C2.17246 108.823 2.46898 108.762 2.76823 108.766C3.06041 108.745 3.35349 108.792 3.62413 108.904C3.89477 109.015 4.1355 109.188 4.32716 109.408C4.6976 109.906 4.88179 110.517 4.84796 111.135V111.632H1.52872V111.656C1.50908 112.102 1.63051 112.543 1.87592 112.916C1.99714 113.079 2.15779 113.209 2.34294 113.294C2.52808 113.378 2.73171 113.415 2.93488 113.4C3.2156 113.4 3.49412 113.351 3.75775 113.255C3.98303 113.167 4.18927 113.037 4.36535 112.872L4.73338 113.479C4.5267 113.678 4.28401 113.836 4.01815 113.945C3.66734 114.075 3.29505 114.137 2.92099 114.128L2.91752 114.115ZM2.76823 109.498C2.60917 109.492 2.45099 109.524 2.3063 109.59C2.16162 109.656 2.03445 109.754 1.93494 109.878C1.71625 110.154 1.5835 110.488 1.55302 110.838V110.862H3.90357V110.786C3.91644 110.453 3.81883 110.126 3.62581 109.854C3.52318 109.728 3.39157 109.63 3.24223 109.566C3.09289 109.502 2.93026 109.475 2.76823 109.488" fill="#878787"/>
<path d="M10.1636 112.626C10.1662 112.53 10.1458 112.434 10.1042 112.346C10.0626 112.258 10.0009 112.182 9.92402 112.122C9.65233 111.945 9.34578 111.827 9.02478 111.777C8.52341 111.691 8.04494 111.504 7.61861 111.228C7.46683 111.123 7.34386 110.981 7.26082 110.817C7.17777 110.652 7.13726 110.469 7.14295 110.285C7.14349 110.076 7.19266 109.87 7.28663 109.683C7.3806 109.497 7.51681 109.334 7.68458 109.208C8.07789 108.897 8.57115 108.737 9.07338 108.759C9.59332 108.735 10.1036 108.905 10.5038 109.236C10.6715 109.368 10.8061 109.538 10.8971 109.73C10.988 109.923 11.0329 110.134 11.0281 110.347V110.375H10.1254C10.1225 110.259 10.0947 110.144 10.0438 110.04C9.99288 109.935 9.92009 109.842 9.83028 109.767C9.62698 109.583 9.35863 109.486 9.0838 109.498C8.81664 109.478 8.55159 109.558 8.34079 109.723C8.26304 109.788 8.20066 109.869 8.15806 109.961C8.11546 110.053 8.09369 110.153 8.09428 110.254C8.08921 110.344 8.10579 110.434 8.14262 110.516C8.17945 110.599 8.23549 110.671 8.30607 110.727C8.57667 110.887 8.87643 110.991 9.18796 111.035C9.69836 111.122 10.1846 111.314 10.615 111.601C10.7709 111.708 10.8976 111.853 10.9836 112.021C11.0697 112.189 11.1124 112.376 11.108 112.564C11.1117 112.782 11.0629 112.997 10.9656 113.191C10.8684 113.386 10.7255 113.555 10.549 113.683C10.1258 113.989 9.61011 114.143 9.08727 114.118C8.51974 114.145 7.96248 113.961 7.52487 113.6C7.34944 113.461 7.20912 113.283 7.11509 113.08C7.02105 112.878 6.9759 112.656 6.98324 112.433V112.402H7.88249C7.87954 112.545 7.91222 112.687 7.97764 112.815C8.04305 112.942 8.13918 113.052 8.25746 113.134C8.50082 113.292 8.7865 113.372 9.07686 113.365C9.35667 113.382 9.63438 113.308 9.86847 113.155C9.95663 113.094 10.0286 113.013 10.0782 112.919C10.1278 112.824 10.1536 112.719 10.1532 112.613" fill="#878787"/>
<path d="M17.9444 111.629C17.9753 112.273 17.7855 112.908 17.4062 113.431C17.2328 113.656 17.0076 113.836 16.7496 113.956C16.4916 114.076 16.2083 114.133 15.9237 114.122C15.6354 114.128 15.3491 114.074 15.0834 113.963C14.8407 113.856 14.6283 113.691 14.4654 113.483V116.017H13.521V108.87H14.2432L14.3925 109.54C14.5532 109.3 14.7716 109.104 15.0279 108.97C15.3021 108.836 15.6045 108.77 15.9098 108.776C16.204 108.766 16.4961 108.831 16.7585 108.963C17.0209 109.096 17.245 109.293 17.4097 109.536C17.7878 110.131 17.9743 110.826 17.9444 111.528V111.629ZM16.9965 111.528C17.0169 111.025 16.8968 110.525 16.6493 110.085C16.5456 109.904 16.3931 109.756 16.2091 109.656C16.0251 109.557 15.8168 109.51 15.6077 109.522C15.3632 109.514 15.1216 109.578 14.9133 109.705C14.7176 109.831 14.5574 110.005 14.4481 110.209V112.702C14.5567 112.906 14.7171 113.077 14.9133 113.2C15.123 113.324 15.3638 113.386 15.6077 113.379C15.8079 113.397 16.0093 113.364 16.1925 113.281C16.3756 113.199 16.5342 113.071 16.6528 112.91C16.8968 112.534 17.018 112.093 17 111.646L16.9965 111.528Z" fill="#878787"/>
<path d="M22.4892 114.115C22.1649 114.132 21.8409 114.077 21.5406 113.954C21.2403 113.831 20.9713 113.643 20.7532 113.403C20.3186 112.88 20.0958 112.214 20.1283 111.535V111.325C20.1036 110.652 20.3341 109.995 20.7741 109.484C20.9664 109.255 21.2076 109.071 21.4802 108.945C21.7528 108.82 22.05 108.756 22.3503 108.759C22.6425 108.738 22.9355 108.786 23.2061 108.897C23.4767 109.009 23.7174 109.181 23.9093 109.401C24.2797 109.899 24.4639 110.51 24.4301 111.128V111.625H21.1039V111.649C21.0843 112.095 21.2057 112.536 21.4511 112.91C21.5705 113.07 21.7283 113.198 21.9102 113.283C22.0921 113.367 22.2923 113.405 22.4927 113.393C22.7798 113.399 23.0655 113.353 23.3364 113.258C23.5658 113.175 23.7768 113.048 23.9579 112.885L24.3259 113.493C24.1119 113.689 23.862 113.843 23.5898 113.945C23.2379 114.075 22.8644 114.137 22.4892 114.128V114.115ZM22.3434 109.512C22.1867 109.508 22.0312 109.541 21.8891 109.607C21.747 109.673 21.6221 109.77 21.524 109.892C21.3028 110.162 21.1653 110.491 21.1282 110.838V110.862H23.4683V110.786C23.4812 110.453 23.3836 110.126 23.1906 109.854C23.0879 109.728 22.9563 109.63 22.807 109.566C22.6576 109.502 22.495 109.475 22.333 109.488" fill="#878787"/>
<path d="M28.784 113.379C29.066 113.384 29.3392 113.282 29.5478 113.093C29.6488 113.008 29.7302 112.902 29.7865 112.783C29.8428 112.664 29.8727 112.534 29.8742 112.402H30.7283V112.43C30.7292 112.654 30.6791 112.876 30.5817 113.079C30.4843 113.282 30.3421 113.46 30.1658 113.6C29.727 113.97 29.1597 114.155 28.5858 114.113C28.0119 114.072 27.4773 113.808 27.0966 113.379C26.6847 112.852 26.4732 112.196 26.4994 111.529V111.328C26.4785 110.667 26.6896 110.019 27.0966 109.495C27.3005 109.25 27.5596 109.057 27.8527 108.93C28.1459 108.803 28.4649 108.747 28.784 108.766C29.0449 108.756 29.3051 108.798 29.5495 108.89C29.794 108.981 30.0176 109.12 30.2075 109.298C30.3859 109.466 30.5259 109.67 30.6182 109.896C30.7104 110.123 30.7527 110.366 30.7422 110.61V110.641H29.8742C29.8812 110.342 29.7688 110.053 29.5617 109.837C29.465 109.726 29.3454 109.638 29.2111 109.579C29.0768 109.519 28.931 109.489 28.784 109.491C28.5816 109.478 28.3796 109.521 28.2005 109.616C28.0214 109.71 27.8724 109.852 27.7701 110.027C27.5477 110.424 27.4373 110.874 27.4507 111.328V111.529C27.436 111.986 27.5439 112.439 27.7632 112.841C27.867 113.015 28.0175 113.157 28.1977 113.251C28.378 113.344 28.581 113.387 28.784 113.372" fill="#878787"/>
<path d="M34.1245 107.534H33.183V106.574H34.1315L34.1245 107.534ZM34.1245 114.015H33.183V108.853H34.1315L34.1245 114.015Z" fill="#878787"/>
<path d="M40.002 114.014C39.9708 113.859 39.9465 113.721 39.9291 113.603C39.9118 113.483 39.9014 113.362 39.8978 113.241C39.7136 113.495 39.4768 113.707 39.2034 113.862C38.9285 114.029 38.6123 114.116 38.2903 114.114C37.8398 114.146 37.3953 113.998 37.0543 113.704C36.908 113.553 36.7946 113.374 36.7211 113.178C36.6476 112.982 36.6157 112.773 36.6272 112.564C36.6199 112.336 36.6716 112.11 36.7774 111.907C36.8832 111.705 37.0395 111.533 37.2313 111.407C37.7199 111.106 38.2892 110.961 38.8632 110.99H39.9048V110.492C39.9108 110.36 39.8892 110.228 39.8414 110.104C39.7936 109.981 39.7206 109.868 39.627 109.774C39.4091 109.587 39.126 109.493 38.8389 109.512C38.5721 109.499 38.3093 109.58 38.0959 109.74C38.0095 109.803 37.9391 109.886 37.8903 109.981C37.8415 110.076 37.8156 110.182 37.8146 110.289H36.9154V110.258C36.9123 110.055 36.9591 109.855 37.0517 109.674C37.1443 109.493 37.2799 109.338 37.4466 109.222C37.8598 108.898 38.376 108.733 38.9014 108.756C39.4131 108.73 39.9169 108.888 40.3214 109.201C40.5043 109.36 40.648 109.558 40.7413 109.781C40.8346 110.003 40.8751 110.245 40.8596 110.485V112.972C40.8596 113.155 40.8596 113.334 40.8874 113.507C40.9079 113.678 40.9439 113.846 40.995 114.011L40.002 114.014ZM38.4327 113.324C38.7609 113.329 39.0833 113.237 39.3597 113.061C39.6001 112.925 39.7891 112.714 39.8978 112.46V111.621H38.8562C38.5262 111.605 38.2012 111.707 37.9396 111.908C37.834 111.986 37.7477 112.088 37.6876 112.205C37.6274 112.321 37.5948 112.45 37.5924 112.581C37.5864 112.682 37.6026 112.782 37.6397 112.876C37.6769 112.97 37.7343 113.054 37.8077 113.123C37.9857 113.269 38.2133 113.341 38.4431 113.324" fill="#878787"/>
<path d="M44.4746 106.574H43.5296V114.015H44.4746V106.574Z" fill="#878787"/>
<path d="M48.1862 107.534H47.2411V106.574H48.1862V107.534ZM48.1862 114.015H47.2411V108.853H48.1862V114.015Z" fill="#878787"/>
<path d="M53.8935 112.626C53.8959 112.53 53.8759 112.434 53.8349 112.347C53.794 112.259 53.7332 112.182 53.6574 112.122C53.3854 111.945 53.079 111.828 52.7582 111.777C52.2557 111.691 51.7761 111.504 51.3485 111.228C51.1939 111.124 51.0681 110.984 50.9825 110.819C50.897 110.654 50.8545 110.471 50.859 110.285C50.8588 110.077 50.9074 109.871 51.0007 109.684C51.0941 109.497 51.2298 109.334 51.3971 109.208C51.81 108.912 52.3074 108.754 52.8165 108.759C53.3257 108.764 53.8199 108.931 54.2268 109.236C54.3939 109.368 54.5278 109.538 54.6181 109.731C54.7085 109.924 54.7528 110.135 54.7476 110.347V110.375H53.8484C53.8448 110.259 53.8167 110.145 53.7658 110.04C53.715 109.935 53.6425 109.842 53.5532 109.767C53.3426 109.6 53.0834 109.506 52.8143 109.498C52.5451 109.49 52.2806 109.569 52.0603 109.722C51.9825 109.788 51.9201 109.869 51.8775 109.961C51.835 110.053 51.8132 110.153 51.8138 110.254C51.8087 110.344 51.8253 110.434 51.8621 110.516C51.8989 110.598 51.955 110.671 52.0256 110.727C52.2965 110.886 52.5961 110.991 52.9074 111.035C53.4251 111.119 53.9187 111.312 54.3553 111.601C54.5107 111.708 54.6371 111.852 54.7231 112.019C54.8092 112.187 54.8522 112.373 54.8483 112.561C54.8529 112.778 54.8045 112.994 54.7071 113.188C54.6098 113.383 54.4664 113.552 54.2893 113.679C53.8377 113.974 53.3069 114.125 52.767 114.114C52.2271 114.102 51.7035 113.928 51.2652 113.614C51.0904 113.474 50.9505 113.296 50.8565 113.094C50.7625 112.891 50.717 112.67 50.7236 112.447V112.416H51.6263C51.6218 112.559 51.6538 112.702 51.7193 112.83C51.7849 112.958 51.8818 113.067 52.0013 113.148C52.2443 113.306 52.5302 113.387 52.8206 113.379C53.0994 113.396 53.376 113.322 53.6088 113.168C53.6976 113.109 53.7701 113.028 53.8198 112.933C53.8695 112.838 53.8948 112.733 53.8935 112.626Z" fill="#878787"/>
<path d="M58.5668 107.609V108.852H59.5494V109.543H58.5668V112.678C58.5565 112.769 58.5643 112.861 58.59 112.949C58.6156 113.036 58.6585 113.118 58.7161 113.189C58.7702 113.239 58.8337 113.277 58.9029 113.302C58.972 113.327 59.0454 113.338 59.1189 113.334C59.1796 113.333 59.2401 113.327 59.2994 113.314C59.3559 113.302 59.4115 113.287 59.4661 113.269L59.598 113.911C59.5059 113.981 59.3991 114.029 59.2855 114.052C59.1532 114.089 59.0166 114.108 58.8793 114.108C58.7108 114.117 58.5422 114.091 58.3844 114.031C58.2266 113.972 58.083 113.88 57.9627 113.762C57.7078 113.461 57.583 113.071 57.6155 112.678V109.543H56.7926V108.852H57.619V107.609H58.5668Z" fill="#878787"/>
<path d="M64.99 114.015C64.9553 113.859 64.931 113.721 64.9136 113.604C64.8963 113.484 64.8859 113.363 64.8824 113.241C64.6999 113.497 64.4628 113.709 64.188 113.863C63.913 114.029 63.5968 114.117 63.2749 114.115C62.8244 114.146 62.38 113.998 62.0388 113.704C61.8937 113.553 61.7813 113.374 61.7084 113.178C61.6355 112.982 61.6038 112.773 61.6152 112.564C61.6079 112.337 61.6592 112.111 61.7643 111.908C61.8695 111.706 62.0249 111.534 62.2159 111.408C62.7057 111.107 63.2761 110.961 63.8512 110.99H64.8928V110.493C64.8997 110.36 64.8785 110.228 64.8307 110.104C64.7828 109.981 64.7094 109.868 64.615 109.775C64.3984 109.588 64.1165 109.494 63.8304 109.512C63.5625 109.499 63.2985 109.58 63.0839 109.74C62.9975 109.804 62.9271 109.886 62.8783 109.982C62.8295 110.077 62.8036 110.182 62.8027 110.289H61.9069V110.258C61.9022 110.055 61.9479 109.855 62.04 109.674C62.1321 109.493 62.2676 109.338 62.4346 109.222C62.8495 108.899 63.3665 108.734 63.8929 108.756C64.4045 108.731 64.9081 108.889 65.3129 109.201C65.4907 109.364 65.6288 109.565 65.7166 109.789C65.8045 110.012 65.8398 110.253 65.8198 110.493V112.979C65.8195 113.158 65.83 113.336 65.8511 113.514C65.8687 113.685 65.9036 113.854 65.9552 114.018L64.99 114.015ZM63.4207 113.324C63.7488 113.328 64.0709 113.237 64.3477 113.062C64.5871 112.925 64.775 112.714 64.8824 112.461V111.622H63.8234C63.4945 111.607 63.1709 111.708 62.9103 111.908C62.8042 111.987 62.7177 112.088 62.6575 112.205C62.5973 112.321 62.565 112.45 62.5631 112.582C62.5584 112.682 62.5752 112.782 62.6123 112.876C62.6494 112.969 62.706 113.054 62.7784 113.124C62.9576 113.27 63.1863 113.341 63.4172 113.324" fill="#878787"/>
<path d="M74.2672 114.114C73.943 114.131 73.619 114.076 73.3188 113.953C73.0186 113.83 72.7496 113.642 72.5312 113.403C72.0966 112.879 71.8738 112.213 71.9062 111.535V111.325C71.8815 110.652 72.1121 109.995 72.552 109.484C72.7444 109.255 72.9856 109.071 73.2582 108.945C73.5308 108.82 73.828 108.756 74.1283 108.759C74.4206 108.737 74.7138 108.784 74.9846 108.896C75.2553 109.007 75.496 109.18 75.6873 109.401C76.0577 109.899 76.2419 110.509 76.2081 111.128V111.625H72.8888V111.649C72.8675 112.095 72.9891 112.536 73.236 112.909C73.355 113.07 73.5127 113.199 73.6947 113.283C73.8767 113.368 74.0772 113.406 74.2776 113.393C74.5635 113.398 74.8481 113.353 75.1179 113.258C75.3477 113.176 75.5589 113.049 75.7393 112.885L76.1074 113.493C75.8944 113.689 75.6457 113.842 75.3748 113.945C75.024 114.075 74.6517 114.137 74.2776 114.128L74.2672 114.114ZM74.1283 109.512C73.9718 109.51 73.8169 109.543 73.675 109.609C73.5332 109.674 73.408 109.771 73.3089 109.892C73.084 110.161 72.9428 110.49 72.9027 110.838V110.862H75.2428V110.786C75.2557 110.453 75.1581 110.126 74.9651 109.854C74.8626 109.728 74.7311 109.629 74.5817 109.565C74.4323 109.502 74.2696 109.475 74.1075 109.488" fill="#878787"/>
<path d="M79.3398 108.853L79.4058 109.543C79.5712 109.304 79.7929 109.108 80.0516 108.973C80.3341 108.835 80.6462 108.766 80.9612 108.773C81.2746 108.764 81.5837 108.847 81.8501 109.011C82.1092 109.183 82.3053 109.434 82.4091 109.726C82.5651 109.445 82.7895 109.208 83.0618 109.036C83.3418 108.86 83.6682 108.771 83.9993 108.78C84.2351 108.769 84.4702 108.812 84.6868 108.906C84.9034 108.999 85.0957 109.14 85.2492 109.319C85.5915 109.791 85.755 110.368 85.711 110.948V114.035H84.7666V110.928C84.8001 110.55 84.7074 110.171 84.5027 109.85C84.4049 109.741 84.2829 109.655 84.1461 109.6C84.0094 109.544 83.8617 109.522 83.7145 109.533C83.5663 109.529 83.419 109.558 83.2834 109.618C83.1477 109.678 83.027 109.767 82.9299 109.878C82.7266 110.116 82.6049 110.412 82.5827 110.724V114.039H81.6313V110.931C81.6613 110.558 81.5661 110.185 81.3605 109.871C81.2675 109.757 81.1485 109.666 81.0134 109.606C80.8782 109.546 80.7306 109.518 80.5828 109.526C80.3394 109.519 80.099 109.58 79.8884 109.702C79.7018 109.823 79.5537 109.994 79.4613 110.196V114.015H78.517V108.853H79.3398Z" fill="#878787"/>
<path d="M93.0202 107.534H92.0751V106.574H93.0202V107.534ZM93.0202 114.015H92.0751V108.853H93.0202V114.015Z" fill="#878787"/>
<path d="M96.5575 108.852L96.6234 109.543C96.788 109.303 97.0099 109.107 97.2692 108.973C97.5505 108.835 97.8615 108.766 98.1754 108.773C98.4898 108.765 98.7999 108.847 99.0677 109.011C99.326 109.184 99.5219 109.435 99.6267 109.726C99.7804 109.445 100.004 109.207 100.276 109.035C100.556 108.86 100.882 108.771 101.213 108.78C101.45 108.77 101.685 108.813 101.902 108.906C102.12 108.999 102.313 109.14 102.467 109.319C102.807 109.792 102.969 110.369 102.925 110.948V114.035H101.981V110.928C102.016 110.549 101.924 110.17 101.717 109.85C101.619 109.74 101.497 109.655 101.36 109.599C101.224 109.544 101.076 109.521 100.929 109.533C100.78 109.529 100.633 109.558 100.498 109.618C100.362 109.678 100.241 109.767 100.144 109.878C99.9407 110.116 99.8191 110.412 99.7969 110.724V114.039H98.8455V110.931C98.8755 110.558 98.7803 110.185 98.5747 109.871C98.4817 109.757 98.3627 109.666 98.2276 109.606C98.0924 109.546 97.9448 109.518 97.797 109.526C97.5536 109.519 97.3131 109.58 97.1026 109.702C96.916 109.823 96.7679 109.994 96.6755 110.196V114.015H95.7311V108.852H96.5575Z" fill="#878787"/>
<path d="M105.314 111.387C105.287 110.704 105.509 110.034 105.939 109.501C106.145 109.256 106.405 109.062 106.699 108.933C106.992 108.804 107.312 108.745 107.633 108.759C107.955 108.745 108.276 108.804 108.572 108.932C108.867 109.06 109.129 109.254 109.338 109.498C109.769 110.032 109.991 110.703 109.963 111.387V111.49C109.992 112.174 109.77 112.846 109.338 113.379C109.121 113.611 108.858 113.796 108.566 113.922C108.274 114.049 107.959 114.114 107.64 114.114C107.322 114.114 107.006 114.049 106.714 113.922C106.422 113.796 106.159 113.611 105.942 113.379C105.509 112.846 105.286 112.175 105.314 111.49V111.387ZM106.258 111.49C106.239 111.967 106.36 112.438 106.605 112.847C106.721 113.012 106.875 113.146 107.055 113.239C107.234 113.332 107.433 113.38 107.635 113.38C107.837 113.38 108.036 113.332 108.215 113.239C108.394 113.146 108.548 113.012 108.664 112.847C108.91 112.438 109.031 111.967 109.012 111.49V111.387C109.032 110.913 108.911 110.443 108.664 110.037C108.555 109.863 108.401 109.721 108.217 109.626C108.034 109.531 107.829 109.487 107.623 109.498C107.419 109.488 107.217 109.533 107.036 109.628C106.856 109.722 106.705 109.864 106.599 110.037C106.354 110.444 106.233 110.913 106.251 111.387L106.258 111.49ZM108.098 106.656H109.199V106.687L107.907 107.927H107.213L108.098 106.656Z" fill="#878787"/>
<path d="M114.015 112.492L114.098 112.854H114.126L114.216 112.492L115.41 108.853H116.376L114.466 114.015H113.751L111.82 108.853H112.789L114.015 112.492Z" fill="#878787"/>
<path d="M120.549 114.115C120.225 114.132 119.901 114.077 119.6 113.954C119.3 113.831 119.031 113.643 118.813 113.403C118.372 112.88 118.145 112.211 118.178 111.529V111.318C118.153 110.646 118.383 109.989 118.823 109.478C119.016 109.248 119.257 109.064 119.53 108.939C119.802 108.813 120.099 108.75 120.4 108.752C120.692 108.731 120.986 108.779 121.257 108.89C121.528 109.001 121.77 109.174 121.962 109.395C122.333 109.892 122.517 110.503 122.483 111.121V111.618H119.16V111.643C119.141 112.088 119.262 112.529 119.507 112.903C119.626 113.064 119.784 113.192 119.966 113.277C120.148 113.361 120.349 113.399 120.549 113.386C120.835 113.392 121.12 113.346 121.389 113.252C121.619 113.169 121.83 113.042 122.011 112.879L122.379 113.486C122.166 113.683 121.918 113.837 121.646 113.939C121.295 114.068 120.923 114.13 120.549 114.122V114.115ZM120.4 109.505C120.243 109.503 120.088 109.536 119.946 109.602C119.805 109.668 119.679 109.765 119.58 109.885C119.358 110.158 119.22 110.489 119.185 110.838V110.862H121.525V110.786C121.539 110.453 121.441 110.125 121.247 109.854C121.144 109.728 121.013 109.629 120.864 109.566C120.714 109.502 120.551 109.475 120.389 109.488" fill="#878787"/>
<path d="M125.803 107.534H124.844V106.574H125.792L125.803 107.534ZM125.803 114.015H124.844V108.853H125.792L125.803 114.015Z" fill="#878787"/>
<path d="M131.51 112.626C131.513 112.529 131.492 112.433 131.451 112.346C131.409 112.258 131.347 112.182 131.271 112.122C130.999 111.945 130.692 111.827 130.371 111.777C129.87 111.691 129.391 111.505 128.965 111.228C128.81 111.125 128.683 110.984 128.597 110.82C128.511 110.655 128.468 110.471 128.472 110.285C128.473 110.076 128.522 109.87 128.616 109.683C128.71 109.496 128.846 109.334 129.014 109.208C129.426 108.911 129.923 108.754 130.431 108.759C130.94 108.764 131.434 108.931 131.84 109.236C132.008 109.368 132.142 109.537 132.233 109.73C132.324 109.923 132.369 110.134 132.364 110.347V110.375H131.441C131.438 110.259 131.41 110.144 131.359 110.039C131.308 109.935 131.235 109.842 131.146 109.767C130.942 109.583 130.674 109.486 130.399 109.498C130.131 109.479 129.865 109.559 129.653 109.722C129.575 109.788 129.513 109.869 129.47 109.961C129.427 110.053 129.406 110.153 129.406 110.254C129.401 110.344 129.419 110.434 129.456 110.517C129.493 110.599 129.55 110.671 129.621 110.727C129.891 110.886 130.19 110.991 130.5 111.034C131.018 111.117 131.512 111.31 131.948 111.601C132.104 111.708 132.23 111.851 132.317 112.019C132.404 112.186 132.447 112.372 132.444 112.561C132.448 112.778 132.399 112.993 132.302 113.188C132.205 113.382 132.062 113.551 131.885 113.679C131.462 113.985 130.946 114.139 130.423 114.114C129.858 114.147 129.301 113.968 128.861 113.614C128.685 113.475 128.544 113.297 128.45 113.095C128.356 112.892 128.311 112.67 128.319 112.447V112.416H129.219C129.216 112.559 129.248 112.701 129.314 112.828C129.379 112.956 129.475 113.066 129.594 113.148C129.837 113.305 130.123 113.386 130.413 113.379C130.693 113.396 130.971 113.322 131.205 113.168C131.293 113.108 131.365 113.027 131.414 112.932C131.464 112.838 131.49 112.733 131.489 112.626" fill="#878787"/>
<path d="M70.816 1.82653L57.0009 15.5656V10.2861C57.0009 10.1799 56.9585 10.078 56.883 10.0029C56.8074 9.92779 56.705 9.88559 56.5982 9.88559H47.4182C47.3114 9.88559 47.2089 9.92779 47.1334 10.0029C47.0579 10.078 47.0155 10.1799 47.0155 10.2861V25.5099L35.6967 36.7629C35.473 36.9862 35.3475 37.2885 35.3475 37.6037C35.3475 37.9189 35.473 38.2212 35.6967 38.4445L44.5851 47.3046C44.6958 47.4156 44.8275 47.5037 44.9726 47.5638C45.1177 47.6239 45.2733 47.6548 45.4305 47.6548C45.5877 47.6548 45.7433 47.6239 45.8884 47.5638C46.0335 47.5037 46.1652 47.4156 46.2759 47.3046L74.3992 19.3362C74.6237 19.1137 74.9277 18.9888 75.2446 18.9888C75.5615 18.9888 75.8655 19.1137 76.09 19.3362L86.7213 29.9124C86.9452 30.1346 87.2486 30.2594 87.565 30.2594C87.8813 30.2594 88.1848 30.1346 88.4087 29.9124L97.3109 21.0592C97.5344 20.8365 97.6599 20.5347 97.6599 20.2201C97.6599 19.9055 97.5344 19.6037 97.3109 19.381L79.6801 1.82653C79.0981 1.24762 78.4072 0.788384 77.6467 0.475068C76.8863 0.161752 76.0712 0.000488281 75.2481 0.000488281C74.4249 0.000488281 73.6099 0.161752 72.8494 0.475068C72.089 0.788384 71.398 1.24762 70.816 1.82653Z" fill="#F4CE5F"/>
</g>
<defs>
<clipPath id="clip0">
<rect width="131.908" height="116" fill="white" transform="translate(0.546143)"/>
</clipPath>
</defs>
</svg>
