<svg width="457" height="284" viewBox="0 0 457 284" fill="none" xmlns="http://www.w3.org/2000/svg">
<path d="M121.168 118.43H142.115V148.01H121.168V188H84.4785V148.01H8.6875L7.03711 124.904L84.0977 3.15625H121.168V118.43ZM43.5996 118.43H84.4785V53.1758L82.0664 57.3652L43.5996 118.43ZM286.334 111.574C286.334 137.134 281.044 156.685 270.465 170.227C259.885 183.768 244.397 190.539 224 190.539C203.857 190.539 188.453 183.895 177.789 170.607C167.125 157.32 161.666 138.277 161.412 113.479V79.4551C161.412 53.6413 166.744 34.0482 177.408 20.6758C188.157 7.30339 203.603 0.617188 223.746 0.617188C243.889 0.617188 259.293 7.26107 269.957 20.5488C280.621 33.752 286.08 52.7526 286.334 77.5508V111.574ZM249.645 74.25C249.645 58.931 247.529 47.8014 243.297 40.8613C239.15 33.8366 232.633 30.3242 223.746 30.3242C215.113 30.3242 208.723 33.6673 204.576 40.3535C200.514 46.9551 198.355 57.3229 198.102 71.457V116.398C198.102 131.464 200.133 142.678 204.195 150.041C208.342 157.32 214.944 160.959 224 160.959C232.971 160.959 239.446 157.447 243.424 150.422C247.402 143.397 249.475 132.648 249.645 118.176V74.25ZM419.762 118.43H440.709V148.01H419.762V188H383.072V148.01H307.281L305.631 124.904L382.691 3.15625H419.762V118.43ZM342.193 118.43H383.072V53.1758L380.66 57.3652L342.193 118.43Z" fill="#3C3C3B"/>
<rect width="451" height="54" transform="translate(6 230)" fill="#F4CE5F"/>
<path d="M42.2031 257.359C42.2031 259.589 41.8281 261.536 41.0781 263.203C40.3281 264.859 39.2656 266.125 37.8906 267C36.5156 267.875 34.9115 268.312 33.0781 268.312C31.2865 268.312 29.6979 267.875 28.3125 267C26.9271 266.115 25.849 264.859 25.0781 263.234C24.3177 261.599 23.9271 259.708 23.9062 257.562V255.922C23.9062 253.734 24.2865 251.802 25.0469 250.125C25.8073 248.448 26.8802 247.167 28.2656 246.281C29.6615 245.385 31.2552 244.938 33.0469 244.938C34.8698 244.938 36.474 245.38 37.8594 246.266C39.2552 247.141 40.3281 248.417 41.0781 250.094C41.8281 251.76 42.2031 253.703 42.2031 255.922V257.359ZM39.2188 255.891C39.2188 253.193 38.6771 251.125 37.5938 249.688C36.5104 248.24 34.9948 247.516 33.0469 247.516C31.151 247.516 29.6562 248.24 28.5625 249.688C27.4792 251.125 26.9219 253.125 26.8906 255.688V257.359C26.8906 259.974 27.4375 262.031 28.5312 263.531C29.6354 265.021 31.151 265.766 33.0781 265.766C35.0156 265.766 36.5156 265.062 37.5781 263.656C38.6406 262.24 39.1875 260.214 39.2188 257.578V255.891ZM60.5312 259.734C60.5312 262.307 59.9427 264.38 58.7656 265.953C57.5885 267.526 55.9948 268.312 53.9844 268.312C51.9323 268.312 50.3177 267.661 49.1406 266.359V274.5H46.25V251.094H48.8906L49.0312 252.969C50.2083 251.51 51.8438 250.781 53.9375 250.781C55.9688 250.781 57.5729 251.547 58.75 253.078C59.9375 254.609 60.5312 256.74 60.5312 259.469V259.734ZM57.6406 259.406C57.6406 257.5 57.2344 255.995 56.4219 254.891C55.6094 253.786 54.4948 253.234 53.0781 253.234C51.3281 253.234 50.0156 254.01 49.1406 255.562V263.641C50.0052 265.182 51.3281 265.953 53.1094 265.953C54.4948 265.953 55.5938 265.406 56.4062 264.312C57.2292 263.208 57.6406 261.573 57.6406 259.406ZM78.5 259.734C78.5 262.307 77.9115 264.38 76.7344 265.953C75.5573 267.526 73.9635 268.312 71.9531 268.312C69.901 268.312 68.2865 267.661 67.1094 266.359V274.5H64.2188V251.094H66.8594L67 252.969C68.1771 251.51 69.8125 250.781 71.9062 250.781C73.9375 250.781 75.5417 251.547 76.7188 253.078C77.9062 254.609 78.5 256.74 78.5 259.469V259.734ZM75.6094 259.406C75.6094 257.5 75.2031 255.995 74.3906 254.891C73.5781 253.786 72.4635 253.234 71.0469 253.234C69.2969 253.234 67.9844 254.01 67.1094 255.562V263.641C67.974 265.182 69.2969 265.953 71.0781 265.953C72.4635 265.953 73.5625 265.406 74.375 264.312C75.1979 263.208 75.6094 261.573 75.6094 259.406ZM92.0312 263.516C92.0312 262.734 91.7344 262.13 91.1406 261.703C90.5573 261.266 89.5312 260.891 88.0625 260.578C86.6042 260.266 85.4427 259.891 84.5781 259.453C83.724 259.016 83.0885 258.495 82.6719 257.891C82.2656 257.286 82.0625 256.568 82.0625 255.734C82.0625 254.349 82.6458 253.177 83.8125 252.219C84.9896 251.26 86.4896 250.781 88.3125 250.781C90.2292 250.781 91.7812 251.276 92.9688 252.266C94.1667 253.255 94.7656 254.521 94.7656 256.062H91.8594C91.8594 255.271 91.5208 254.589 90.8438 254.016C90.1771 253.443 89.3333 253.156 88.3125 253.156C87.2604 253.156 86.4375 253.385 85.8438 253.844C85.25 254.302 84.9531 254.901 84.9531 255.641C84.9531 256.339 85.2292 256.865 85.7812 257.219C86.3333 257.573 87.3281 257.911 88.7656 258.234C90.2135 258.557 91.3854 258.943 92.2812 259.391C93.1771 259.839 93.8385 260.38 94.2656 261.016C94.7031 261.641 94.9219 262.406 94.9219 263.312C94.9219 264.823 94.3177 266.036 93.1094 266.953C91.901 267.859 90.3333 268.312 88.4062 268.312C87.0521 268.312 85.8542 268.073 84.8125 267.594C83.7708 267.115 82.9531 266.448 82.3594 265.594C81.776 264.729 81.4844 263.797 81.4844 262.797H84.375C84.4271 263.766 84.8125 264.536 85.5312 265.109C86.2604 265.672 87.2188 265.953 88.4062 265.953C89.5 265.953 90.375 265.734 91.0312 265.297C91.6979 264.849 92.0312 264.255 92.0312 263.516ZM101.922 261.578H99.3125L99.1094 245.25H102.141L101.922 261.578ZM99 266.547C99 266.078 99.1406 265.688 99.4219 265.375C99.7135 265.052 100.141 264.891 100.703 264.891C101.266 264.891 101.693 265.052 101.984 265.375C102.276 265.688 102.422 266.078 102.422 266.547C102.422 267.016 102.276 267.406 101.984 267.719C101.693 268.021 101.266 268.172 100.703 268.172C100.141 268.172 99.7135 268.021 99.4219 267.719C99.1406 267.406 99 267.016 99 266.547ZM118.328 259.094V268H115.328V245.25H123.719C126.208 245.25 128.156 245.885 129.562 247.156C130.979 248.427 131.688 250.109 131.688 252.203C131.688 254.411 130.995 256.115 129.609 257.312C128.234 258.5 126.26 259.094 123.688 259.094H118.328ZM118.328 256.641H123.719C125.323 256.641 126.552 256.266 127.406 255.516C128.26 254.755 128.688 253.661 128.688 252.234C128.688 250.88 128.26 249.797 127.406 248.984C126.552 248.172 125.38 247.75 123.891 247.719H118.328V256.641ZM145.312 268C145.146 267.667 145.01 267.073 144.906 266.219C143.562 267.615 141.958 268.312 140.094 268.312C138.427 268.312 137.057 267.844 135.984 266.906C134.922 265.958 134.391 264.76 134.391 263.312C134.391 261.552 135.057 260.188 136.391 259.219C137.734 258.24 139.62 257.75 142.047 257.75H144.859V256.422C144.859 255.411 144.557 254.609 143.953 254.016C143.349 253.411 142.458 253.109 141.281 253.109C140.25 253.109 139.385 253.37 138.688 253.891C137.99 254.411 137.641 255.042 137.641 255.781H134.734C134.734 254.938 135.031 254.125 135.625 253.344C136.229 252.552 137.042 251.927 138.062 251.469C139.094 251.01 140.224 250.781 141.453 250.781C143.401 250.781 144.927 251.271 146.031 252.25C147.135 253.219 147.708 254.557 147.75 256.266V264.047C147.75 265.599 147.948 266.833 148.344 267.75V268H145.312ZM140.516 265.797C141.422 265.797 142.281 265.562 143.094 265.094C143.906 264.625 144.495 264.016 144.859 263.266V259.797H142.594C139.052 259.797 137.281 260.833 137.281 262.906C137.281 263.812 137.583 264.521 138.188 265.031C138.792 265.542 139.568 265.797 140.516 265.797ZM143.188 244H146.688L142.5 248.594H140.172L143.188 244ZM151.594 259.406C151.594 256.771 152.203 254.677 153.422 253.125C154.641 251.562 156.255 250.781 158.266 250.781C160.328 250.781 161.938 251.51 163.094 252.969L163.234 251.094H165.875V267.594C165.875 269.781 165.224 271.505 163.922 272.766C162.63 274.026 160.891 274.656 158.703 274.656C157.484 274.656 156.292 274.396 155.125 273.875C153.958 273.354 153.068 272.641 152.453 271.734L153.953 270C155.193 271.531 156.708 272.297 158.5 272.297C159.906 272.297 161 271.901 161.781 271.109C162.573 270.318 162.969 269.203 162.969 267.766V266.312C161.812 267.646 160.234 268.312 158.234 268.312C156.255 268.312 154.651 267.516 153.422 265.922C152.203 264.328 151.594 262.156 151.594 259.406ZM154.5 259.734C154.5 261.641 154.891 263.141 155.672 264.234C156.453 265.318 157.547 265.859 158.953 265.859C160.776 265.859 162.115 265.031 162.969 263.375V255.656C162.083 254.042 160.755 253.234 158.984 253.234C157.578 253.234 156.479 253.781 155.688 254.875C154.896 255.969 154.5 257.589 154.5 259.734ZM173.391 268H170.5V251.094H173.391V268ZM170.266 246.609C170.266 246.141 170.406 245.745 170.688 245.422C170.979 245.099 171.406 244.938 171.969 244.938C172.531 244.938 172.958 245.099 173.25 245.422C173.542 245.745 173.688 246.141 173.688 246.609C173.688 247.078 173.542 247.469 173.25 247.781C172.958 248.094 172.531 248.25 171.969 248.25C171.406 248.25 170.979 248.094 170.688 247.781C170.406 247.469 170.266 247.078 170.266 246.609ZM180.766 251.094L180.859 253.219C182.151 251.594 183.839 250.781 185.922 250.781C189.495 250.781 191.297 252.797 191.328 256.828V268H188.438V256.812C188.427 255.594 188.146 254.693 187.594 254.109C187.052 253.526 186.203 253.234 185.047 253.234C184.109 253.234 183.286 253.484 182.578 253.984C181.87 254.484 181.318 255.141 180.922 255.953V268H178.031V251.094H180.766ZM206.125 268C205.958 267.667 205.823 267.073 205.719 266.219C204.375 267.615 202.771 268.312 200.906 268.312C199.24 268.312 197.87 267.844 196.797 266.906C195.734 265.958 195.203 264.76 195.203 263.312C195.203 261.552 195.87 260.188 197.203 259.219C198.547 258.24 200.432 257.75 202.859 257.75H205.672V256.422C205.672 255.411 205.37 254.609 204.766 254.016C204.161 253.411 203.271 253.109 202.094 253.109C201.062 253.109 200.198 253.37 199.5 253.891C198.802 254.411 198.453 255.042 198.453 255.781H195.547C195.547 254.938 195.844 254.125 196.438 253.344C197.042 252.552 197.854 251.927 198.875 251.469C199.906 251.01 201.036 250.781 202.266 250.781C204.214 250.781 205.74 251.271 206.844 252.25C207.948 253.219 208.521 254.557 208.562 256.266V264.047C208.562 265.599 208.76 266.833 209.156 267.75V268H206.125ZM201.328 265.797C202.234 265.797 203.094 265.562 203.906 265.094C204.719 264.625 205.307 264.016 205.672 263.266V259.797H203.406C199.865 259.797 198.094 260.833 198.094 262.906C198.094 263.812 198.396 264.521 199 265.031C199.604 265.542 200.38 265.797 201.328 265.797ZM223.766 251.094L223.859 253.219C225.151 251.594 226.839 250.781 228.922 250.781C232.495 250.781 234.297 252.797 234.328 256.828V268H231.438V256.812C231.427 255.594 231.146 254.693 230.594 254.109C230.052 253.526 229.203 253.234 228.047 253.234C227.109 253.234 226.286 253.484 225.578 253.984C224.87 254.484 224.318 255.141 223.922 255.953V268H221.031V251.094H223.766ZM249.125 268C248.958 267.667 248.823 267.073 248.719 266.219C247.375 267.615 245.771 268.312 243.906 268.312C242.24 268.312 240.87 267.844 239.797 266.906C238.734 265.958 238.203 264.76 238.203 263.312C238.203 261.552 238.87 260.188 240.203 259.219C241.547 258.24 243.432 257.75 245.859 257.75H248.672V256.422C248.672 255.411 248.37 254.609 247.766 254.016C247.161 253.411 246.271 253.109 245.094 253.109C244.062 253.109 243.198 253.37 242.5 253.891C241.802 254.411 241.453 255.042 241.453 255.781H238.547C238.547 254.938 238.844 254.125 239.438 253.344C240.042 252.552 240.854 251.927 241.875 251.469C242.906 251.01 244.036 250.781 245.266 250.781C247.214 250.781 248.74 251.271 249.844 252.25C250.948 253.219 251.521 254.557 251.562 256.266V264.047C251.562 265.599 251.76 266.833 252.156 267.75V268H249.125ZM244.328 265.797C245.234 265.797 246.094 265.562 246.906 265.094C247.719 264.625 248.307 264.016 248.672 263.266V259.797H246.406C242.865 259.797 241.094 260.833 241.094 262.906C241.094 263.812 241.396 264.521 242 265.031C242.604 265.542 243.38 265.797 244.328 265.797ZM251.125 244.5C251.125 245.625 250.802 246.536 250.156 247.234C249.521 247.932 248.724 248.281 247.766 248.281C247.339 248.281 246.969 248.229 246.656 248.125C246.344 248.021 245.932 247.807 245.422 247.484C244.922 247.161 244.557 246.969 244.328 246.906C244.109 246.833 243.854 246.797 243.562 246.797C243.135 246.797 242.771 246.964 242.469 247.297C242.167 247.62 242.016 248.036 242.016 248.547L240.078 248.438C240.078 247.323 240.391 246.401 241.016 245.672C241.651 244.943 242.453 244.578 243.422 244.578C243.786 244.578 244.115 244.63 244.406 244.734C244.698 244.839 245.094 245.042 245.594 245.344C246.094 245.646 246.474 245.844 246.734 245.938C247.005 246.031 247.302 246.078 247.625 246.078C248.073 246.078 248.443 245.901 248.734 245.547C249.036 245.193 249.188 244.781 249.188 244.312L251.125 244.5ZM255.328 259.391C255.328 257.734 255.651 256.245 256.297 254.922C256.953 253.599 257.859 252.578 259.016 251.859C260.182 251.141 261.51 250.781 263 250.781C265.302 250.781 267.161 251.578 268.578 253.172C270.005 254.766 270.719 256.885 270.719 259.531V259.734C270.719 261.38 270.401 262.859 269.766 264.172C269.141 265.474 268.24 266.49 267.062 267.219C265.896 267.948 264.552 268.312 263.031 268.312C260.74 268.312 258.88 267.516 257.453 265.922C256.036 264.328 255.328 262.219 255.328 259.594V259.391ZM258.234 259.734C258.234 261.609 258.667 263.115 259.531 264.25C260.406 265.385 261.573 265.953 263.031 265.953C264.5 265.953 265.667 265.38 266.531 264.234C267.396 263.078 267.828 261.464 267.828 259.391C267.828 257.536 267.385 256.036 266.5 254.891C265.625 253.734 264.458 253.156 263 253.156C261.573 253.156 260.422 253.724 259.547 254.859C258.672 255.995 258.234 257.62 258.234 259.734ZM289.297 268.312C287.005 268.312 285.141 267.562 283.703 266.062C282.266 264.552 281.547 262.536 281.547 260.016V259.484C281.547 257.807 281.865 256.312 282.5 255C283.146 253.677 284.042 252.646 285.188 251.906C286.344 251.156 287.594 250.781 288.938 250.781C291.135 250.781 292.844 251.505 294.062 252.953C295.281 254.401 295.891 256.474 295.891 259.172V260.375H284.438C284.479 262.042 284.964 263.391 285.891 264.422C286.828 265.443 288.016 265.953 289.453 265.953C290.474 265.953 291.339 265.745 292.047 265.328C292.755 264.911 293.375 264.359 293.906 263.672L295.672 265.047C294.255 267.224 292.13 268.312 289.297 268.312ZM288.938 253.156C287.771 253.156 286.792 253.583 286 254.438C285.208 255.281 284.719 256.469 284.531 258H293V257.781C292.917 256.312 292.521 255.177 291.812 254.375C291.104 253.562 290.146 253.156 288.938 253.156ZM301.984 251.094L302.078 253.219C303.37 251.594 305.057 250.781 307.141 250.781C310.714 250.781 312.516 252.797 312.547 256.828V268H309.656V256.812C309.646 255.594 309.365 254.693 308.812 254.109C308.271 253.526 307.422 253.234 306.266 253.234C305.328 253.234 304.505 253.484 303.797 253.984C303.089 254.484 302.536 255.141 302.141 255.953V268H299.25V251.094H301.984ZM323.688 265.953C324.719 265.953 325.62 265.641 326.391 265.016C327.161 264.391 327.589 263.609 327.672 262.672H330.406C330.354 263.641 330.021 264.562 329.406 265.438C328.792 266.312 327.969 267.01 326.938 267.531C325.917 268.052 324.833 268.312 323.688 268.312C321.385 268.312 319.552 267.547 318.188 266.016C316.833 264.474 316.156 262.37 316.156 259.703V259.219C316.156 257.573 316.458 256.109 317.062 254.828C317.667 253.547 318.531 252.552 319.656 251.844C320.792 251.135 322.13 250.781 323.672 250.781C325.568 250.781 327.141 251.349 328.391 252.484C329.651 253.62 330.323 255.094 330.406 256.906H327.672C327.589 255.812 327.172 254.917 326.422 254.219C325.682 253.51 324.766 253.156 323.672 253.156C322.203 253.156 321.062 253.688 320.25 254.75C319.448 255.802 319.047 257.328 319.047 259.328V259.875C319.047 261.823 319.448 263.323 320.25 264.375C321.052 265.427 322.198 265.953 323.688 265.953ZM332.891 259.391C332.891 257.734 333.214 256.245 333.859 254.922C334.516 253.599 335.422 252.578 336.578 251.859C337.745 251.141 339.073 250.781 340.562 250.781C342.865 250.781 344.724 251.578 346.141 253.172C347.568 254.766 348.281 256.885 348.281 259.531V259.734C348.281 261.38 347.964 262.859 347.328 264.172C346.703 265.474 345.802 266.49 344.625 267.219C343.458 267.948 342.115 268.312 340.594 268.312C338.302 268.312 336.443 267.516 335.016 265.922C333.599 264.328 332.891 262.219 332.891 259.594V259.391ZM335.797 259.734C335.797 261.609 336.229 263.115 337.094 264.25C337.969 265.385 339.135 265.953 340.594 265.953C342.062 265.953 343.229 265.38 344.094 264.234C344.958 263.078 345.391 261.464 345.391 259.391C345.391 257.536 344.948 256.036 344.062 254.891C343.188 253.734 342.021 253.156 340.562 253.156C339.135 253.156 337.984 253.724 337.109 254.859C336.234 255.995 335.797 257.62 335.797 259.734ZM354.641 251.094L354.734 253.219C356.026 251.594 357.714 250.781 359.797 250.781C363.37 250.781 365.172 252.797 365.203 256.828V268H362.312V256.812C362.302 255.594 362.021 254.693 361.469 254.109C360.927 253.526 360.078 253.234 358.922 253.234C357.984 253.234 357.161 253.484 356.453 253.984C355.745 254.484 355.193 255.141 354.797 255.953V268H351.906V251.094H354.641ZM373.484 247V251.094H376.641V253.328H373.484V263.812C373.484 264.49 373.625 265 373.906 265.344C374.188 265.677 374.667 265.844 375.344 265.844C375.677 265.844 376.135 265.781 376.719 265.656V268C375.958 268.208 375.219 268.312 374.5 268.312C373.208 268.312 372.234 267.922 371.578 267.141C370.922 266.359 370.594 265.25 370.594 263.812V253.328H367.516V251.094H370.594V247H373.484ZM388.203 253.688C387.766 253.615 387.292 253.578 386.781 253.578C384.885 253.578 383.599 254.385 382.922 256V268H380.031V251.094H382.844L382.891 253.047C383.839 251.536 385.182 250.781 386.922 250.781C387.484 250.781 387.911 250.854 388.203 251V253.688ZM400.688 268C400.521 267.667 400.385 267.073 400.281 266.219C398.938 267.615 397.333 268.312 395.469 268.312C393.802 268.312 392.432 267.844 391.359 266.906C390.297 265.958 389.766 264.76 389.766 263.312C389.766 261.552 390.432 260.188 391.766 259.219C393.109 258.24 394.995 257.75 397.422 257.75H400.234V256.422C400.234 255.411 399.932 254.609 399.328 254.016C398.724 253.411 397.833 253.109 396.656 253.109C395.625 253.109 394.76 253.37 394.062 253.891C393.365 254.411 393.016 255.042 393.016 255.781H390.109C390.109 254.938 390.406 254.125 391 253.344C391.604 252.552 392.417 251.927 393.438 251.469C394.469 251.01 395.599 250.781 396.828 250.781C398.776 250.781 400.302 251.271 401.406 252.25C402.51 253.219 403.083 254.557 403.125 256.266V264.047C403.125 265.599 403.323 266.833 403.719 267.75V268H400.688ZM395.891 265.797C396.797 265.797 397.656 265.562 398.469 265.094C399.281 264.625 399.87 264.016 400.234 263.266V259.797H397.969C394.427 259.797 392.656 260.833 392.656 262.906C392.656 263.812 392.958 264.521 393.562 265.031C394.167 265.542 394.943 265.797 395.891 265.797ZM406.953 259.406C406.953 256.812 407.568 254.729 408.797 253.156C410.026 251.573 411.635 250.781 413.625 250.781C415.604 250.781 417.172 251.458 418.328 252.812V244H421.219V268H418.562L418.422 266.188C417.266 267.604 415.656 268.312 413.594 268.312C411.635 268.312 410.036 267.51 408.797 265.906C407.568 264.302 406.953 262.208 406.953 259.625V259.406ZM409.844 259.734C409.844 261.651 410.24 263.151 411.031 264.234C411.823 265.318 412.917 265.859 414.312 265.859C416.146 265.859 417.484 265.036 418.328 263.391V255.625C417.464 254.031 416.135 253.234 414.344 253.234C412.927 253.234 411.823 253.781 411.031 254.875C410.24 255.969 409.844 257.589 409.844 259.734ZM436.156 268C435.99 267.667 435.854 267.073 435.75 266.219C434.406 267.615 432.802 268.312 430.938 268.312C429.271 268.312 427.901 267.844 426.828 266.906C425.766 265.958 425.234 264.76 425.234 263.312C425.234 261.552 425.901 260.188 427.234 259.219C428.578 258.24 430.464 257.75 432.891 257.75H435.703V256.422C435.703 255.411 435.401 254.609 434.797 254.016C434.193 253.411 433.302 253.109 432.125 253.109C431.094 253.109 430.229 253.37 429.531 253.891C428.833 254.411 428.484 255.042 428.484 255.781H425.578C425.578 254.938 425.875 254.125 426.469 253.344C427.073 252.552 427.885 251.927 428.906 251.469C429.938 251.01 431.068 250.781 432.297 250.781C434.245 250.781 435.771 251.271 436.875 252.25C437.979 253.219 438.552 254.557 438.594 256.266V264.047C438.594 265.599 438.792 266.833 439.188 267.75V268H436.156ZM431.359 265.797C432.266 265.797 433.125 265.562 433.938 265.094C434.75 264.625 435.339 264.016 435.703 263.266V259.797H433.438C429.896 259.797 428.125 260.833 428.125 262.906C428.125 263.812 428.427 264.521 429.031 265.031C429.635 265.542 430.411 265.797 431.359 265.797Z" fill="white"/>
</svg>
