<svg width="14" height="17" viewBox="0 0 14 17" fill="none" xmlns="http://www.w3.org/2000/svg">
<g clip-path="url(#clip0)">
<path d="M5.95312 14.4094L6.64687 15.1031C6.94062 15.3969 7.41563 15.3969 7.70625 15.1031L13.7812 9.03124C14.075 8.73749 14.075 8.26249 13.7812 7.97186L7.70625 1.89686C7.4125 1.60311 6.9375 1.60311 6.64687 1.89686L5.95312 2.59061C5.65625 2.88749 5.6625 3.37186 5.96562 3.66249L9.73125 7.24999H0.75C0.334375 7.24999 0 7.58436 0 7.99999V8.99999C0 9.41561 0.334375 9.74999 0.75 9.74999H9.73125L5.96562 13.3375C5.65937 13.6281 5.65312 14.1125 5.95312 14.4094Z" fill="white"/>
</g>
<defs>
<clipPath id="clip0">
<rect width="14" height="16" fill="white" transform="matrix(1 0 0 -1 0 16.5)"/>
</clipPath>
</defs>
</svg>
