<svg width="120" height="120" viewBox="0 0 120 120" fill="none" xmlns="http://www.w3.org/2000/svg">
<g clip-path="url(#clip0)">
<path d="M119.4 87.4C119.2 86.9 118.8 86.6 118.3 86.4L107.1 82.3C106.1 81.9 104.9 82.5 104.6 83.5L103.9 85.4L91 80.6C90.7 80.5 90.3 80.5 90 80.5L63 85.3C60.6 85.7 58.5 87.3 57.3 89.5L45 85C43 84.3 40.8 84.4 38.9 85.3C36.5 86.4 34.8 88.7 34.4 91.3C33.9 95.1 36.2 98.8 39.8 100L75 112.8L80.6 114.8C81 115 81.5 115 81.9 114.8L93.3 111L94.5 111.4L93.8 113.3C93.4 114.3 94 115.5 95 115.8L106.2 119.9C107.2 120.3 108.4 119.7 108.7 118.7L119.5 88.9C119.7 88.4 119.6 87.9 119.4 87.4ZM93.9 107C93.5 106.8 93 106.8 92.6 107L81.2 110.8L41.2 96.2C39.3 95.6 38.2 93.8 38.4 91.8C38.6 90.6 39.3 89.6 40.3 89C41.3 88.4 42.6 88.3 43.7 88.7L56.6 93.4C56.6 93.8 56.6 94.1 56.7 94.5C57.5 98.8 61.6 101.7 65.9 100.9L88.1 97L87.4 93.1L65.1 97C63 97.4 60.9 95.9 60.5 93.8C60.4 93.3 60.4 92.9 60.5 92.4C60.5 92.3 60.5 92.3 60.5 92.2C60.5 92 60.6 91.9 60.6 91.7C61.1 90.4 62.2 89.4 63.6 89.1L90 84.4L102.4 88.9L95.6 107.5L93.9 107ZM105.6 115.5L98.2 112.8L107.7 86.7L115.1 89.4L105.6 115.5Z" fill="#333333"/>
<path d="M59.4 29.7C60.8 29.7 62.2 29.3 63.4 28.6L63.7 28.4C64.8 27.7 65.6 26.7 66.3 25.6L71.8 31.1C73.5 32.7 75.8 33.5 78.1 33.2C78.1 33.2 81 32.8 82.3 31.3C82.8 30.9 83.2 30.3 83.6 29.8C85.5 26.7 85 22.7 82.4 20.1L66.3 4.1C63.7 1.5 60.2 0 56.5 0H35.7C35.4 0 35.2 0.1 34.9 0.2L21.4 5.9H19.8V2C19.8 0.9 18.9 0 17.8 0H2C0.9 0 0 0.9 0 2V33.7C0 34.8 0.9 35.7 2 35.7H17.8C18.9 35.7 19.8 34.8 19.8 33.7V29.7H20.1C21.5 34.5 27.9 37.6 33.7 37.6C39.5 37.6 45.9 34.4 47.3 29.7H50.8H57.7H59.4ZM15.8 31.7H4V4H15.9V31.7H15.8ZM45.6 25.8C44.5 25.8 43.6 26.7 43.6 27.8C43.6 30.8 38.7 33.7 33.7 33.7C28.7 33.7 23.8 30.8 23.8 27.8C23.8 26.7 22.9 25.8 21.8 25.8H19.8V9.9H21.8C22.1 9.9 22.3 9.8 22.6 9.7L36.1 4H56.5C59.1 4 61.7 5 63.5 6.9L79.6 23C80.9 24.2 81.2 26.2 80.3 27.7C79.7 28.6 78.7 29.2 77.6 29.3C76.5 29.4 75.5 29.1 74.7 28.3L67.3 20.9C66.8 16.9 63.5 13.9 59.5 13.9H41.6V17.9H59.4C61.6 17.9 63.4 19.7 63.4 21.9C63.4 24.1 61.6 25.9 59.4 25.9H45.6V25.8Z" fill="#333333"/>
<path d="M63.5 28.6C63.6 28.5 63.7 28.4 63.8 28.4L63.5 28.6Z" fill="#333333"/>
<path d="M32 49.6C33.8 52.1 37.3 52.7 39.9 51L43.7 48.2V73.3C43.7 75.5 45.5 77.3 47.7 77.3H83.4C85.6 77.3 87.4 75.5 87.4 73.3V48.2L91.2 51C92.1 51.7 93.3 52.1 94.4 52.1C96.3 52.1 98 51.2 99 49.6C100.6 47.1 100 43.8 97.6 42.1L82.6 31.5C81.3 33 78.4 33.4 78.4 33.4L95.3 45.3C95.8 45.7 96.1 46.3 95.9 46.9C95.8 47.5 95.3 48 94.6 48.1C94.2 48.2 93.8 48.1 93.4 47.8L66.6 28.1C65.9 27.6 65 27.6 64.3 28.1L37.5 47.7C37.2 47.9 36.9 48 36.6 48C36.1 48 35.6 47.7 35.3 47.3C34.8 46.6 35 45.6 35.7 45.1L57.6 29.6H50.7L33.4 42C30.9 43.7 30.3 47.1 32 49.6ZM63.4 73.3H55.5V61.4H63.4V73.3ZM47.5 45.3L65.3 32.2L83.1 45.3V73.3H67.4V59.4C67.4 58.3 66.5 57.4 65.4 57.4H53.5C52.4 57.4 51.5 58.3 51.5 59.4V73.3H47.5V45.3Z" fill="#F4CE5F"/>
<path d="M69.3 59.4V67.3C69.3 68.4 70.2 69.3 71.3 69.3H79.2C80.3 69.3 81.2 68.4 81.2 67.3V59.4C81.2 58.3 80.3 57.4 79.2 57.4H71.3C70.2 57.5 69.3 58.3 69.3 59.4ZM73.3 61.4H77.3V65.4H73.3V61.4Z" fill="#F4CE5F"/>
<path d="M65.4 49.5C68.7 49.5 71.3 46.7999 71.3 43.5999C71.3 40.2999 68.6 37.7 65.4 37.7C62.1 37.7 59.5 40.3999 59.5 43.5999C59.4 46.8999 62.1 49.5 65.4 49.5ZM65.4 41.5999C66.5 41.5999 67.4 42.4999 67.4 43.5999C67.4 44.6999 66.5 45.5999 65.4 45.5999C64.3 45.5999 63.4 44.6999 63.4 43.5999C63.4 42.4999 64.3 41.5999 65.4 41.5999Z" fill="#F4CE5F"/>
</g>
<defs>
<clipPath id="clip0">
<rect width="119.6" height="120" fill="white"/>
</clipPath>
</defs>
</svg>
