<svg width="52" height="52" viewBox="0 0 52 52" fill="none" xmlns="http://www.w3.org/2000/svg">
<g clip-path="url(#clip0)">
<path d="M32.9333 33.0209V25.1333C32.9333 23.6999 31.7668 22.5333 30.3333 22.5333H6.06667C4.6332 22.5333 3.46667 23.6999 3.46667 25.1333V33.0209C1.49153 33.4239 0 35.1745 0 37.2667V42.4667V51.1333C0 51.6117 0.388267 52 0.866667 52H4.33333C4.81173 52 5.2 51.6117 5.2 51.1333V48.5333H31.2V51.1333C31.2 51.6117 31.5883 52 32.0667 52H35.5333C36.0117 52 36.4 51.6117 36.4 51.1333V42.4667V37.2667C36.4 35.1745 34.9085 33.4239 32.9333 33.0209ZM5.2 25.1333C5.2 24.6558 5.58913 24.2667 6.06667 24.2667H30.3333C30.8109 24.2667 31.2 24.6558 31.2 25.1333V32.9333H29.4667V29.4667C29.4667 28.0332 28.3001 26.8667 26.8667 26.8667H21.6667C20.2332 26.8667 19.0667 28.0332 19.0667 29.4667V32.9333H17.3333V29.4667C17.3333 28.0332 16.1668 26.8667 14.7333 26.8667H9.53333C8.09987 26.8667 6.93333 28.0332 6.93333 29.4667V32.9333H5.2V25.1333ZM27.7333 29.4667V32.9333H20.8V29.4667C20.8 28.9891 21.1891 28.6 21.6667 28.6H26.8667C27.3442 28.6 27.7333 28.9891 27.7333 29.4667ZM15.6 29.4667V32.9333H8.66667V29.4667C8.66667 28.9891 9.0558 28.6 9.53333 28.6H14.7333C15.2109 28.6 15.6 28.9891 15.6 29.4667ZM34.6667 50.2667H32.9333V47.6667C32.9333 47.1883 32.5451 46.8 32.0667 46.8H4.33333C3.85493 46.8 3.46667 47.1883 3.46667 47.6667V50.2667H1.73333V43.3333H34.6667V50.2667ZM34.6667 41.6H1.73333V37.2667C1.73333 35.8332 2.89987 34.6667 4.33333 34.6667H7.8H16.4667H19.9333H28.6H32.0667C33.5001 34.6667 34.6667 35.8332 34.6667 37.2667V41.6Z" fill="#F4CE5F"/>
<path d="M51.1335 32.9333H39.0002C38.5218 32.9333 38.1335 33.3216 38.1335 33.8V40.7333V46.8H39.8669V41.6H50.2669V46.8H52.0002V40.7333V33.8C52.0002 33.3216 51.6119 32.9333 51.1335 32.9333ZM50.2669 39.8667H39.8669V34.6667H50.2669V39.8667Z" fill="#F4CE5F"/>
<path d="M46.7999 36.4H43.3333V38.1333H46.7999V36.4Z" fill="#F4CE5F"/>
<path d="M49.3556 25.7253L47.6223 20.5253C47.5036 20.1717 47.1734 19.9333 46.7998 19.9333H43.3332C42.9597 19.9333 42.6295 20.1717 42.5107 20.5261L40.7774 25.7262C40.689 25.9905 40.7341 26.2808 40.897 26.507C41.0599 26.7332 41.3217 26.8667 41.5999 26.8667H44.1999V29.4667H42.4665V31.2H47.6665V29.4667H45.9332V26.8667H48.5332C48.8114 26.8667 49.0731 26.7332 49.236 26.5062C49.399 26.28 49.4432 25.9896 49.3556 25.7253ZM42.8019 25.1334L43.9581 21.6667H46.1758L47.3311 25.1334H42.8019Z" fill="#F4CE5F"/>
<path d="M51.4878 11.3421L26.3545 0.0754C26.1283 -0.0251333 25.8709 -0.0251333 25.6455 0.0754L0.5122 11.3421C0.2002 11.4825 0 11.7919 0 12.1333V22.5333H1.73333V12.6941L26 1.81653L50.2667 12.6949V22.5333H52V12.1333C52 11.7919 51.7998 11.4825 51.4878 11.3421Z" fill="#F4CE5F"/>
<path d="M31.9826 11.9895L30.2727 12.2772C30.3134 12.5138 30.3334 12.7565 30.3334 13C30.3334 15.3894 28.3894 17.3333 26 17.3333C23.6106 17.3333 21.6667 15.3894 21.6667 13C21.6667 10.6106 23.6106 8.66668 26 8.66668C26.4958 8.66668 26.9828 8.74988 27.4456 8.91368L28.0228 7.27915C27.3737 7.04948 26.6934 6.93335 26 6.93335C22.6547 6.93335 19.9333 9.65468 19.9333 13C19.9333 16.3453 22.6547 19.0667 26 19.0667C29.3454 19.0667 32.0667 16.3453 32.0667 13C32.0667 12.6603 32.0381 12.3205 31.9826 11.9895Z" fill="#F4CE5F"/>
<path d="M31.4541 7.18726L26.0001 12.6412L24.8795 11.5206L23.6541 12.746L25.3874 14.4794C25.5564 14.6484 25.7783 14.7333 26.0001 14.7333C26.222 14.7333 26.4439 14.6484 26.6129 14.4794L32.6795 8.41272L31.4541 7.18726Z" fill="#F4CE5F"/>
</g>
<defs>
<clipPath id="clip0">
<rect width="52" height="52" fill="white"/>
</clipPath>
</defs>
</svg>
