<svg width="52" height="52" viewBox="0 0 52 52" fill="none" xmlns="http://www.w3.org/2000/svg">
<g clip-path="url(#clip0)">
<path d="M49.3998 24.2667H47.6665V23.3998C47.6649 21.9645 46.5021 20.8017 45.0668 20.8001H32.9332C31.4979 20.8017 30.3351 21.9645 30.3335 23.3998V24.2667H6.06677V6.93322C6.06479 4.21325 8.16071 1.9519 10.8731 1.74758C13.5852 1.54327 15.9965 3.46502 16.4019 6.15484C13.9323 6.60632 12.1375 8.75619 12.1331 11.2667V12.1331C12.1331 12.612 12.5215 13 13 13H21.6665C22.1454 13 22.5334 12.612 22.5334 12.1331V11.2667C22.529 8.71295 20.6723 6.54006 18.1507 6.13739C17.7298 2.48748 14.5341 -0.199558 10.8664 0.0115012C7.19824 0.222957 4.33267 3.25912 4.33347 6.93322V24.2667H2.60016C1.1648 24.2683 0.00158691 25.4311 0 26.8664C0.00158691 27.9658 0.696259 28.9441 1.73331 29.3087V36.3998C1.74323 42.7582 6.6579 48.0319 13 48.4893V49.3998C13 50.836 14.164 52 15.6002 52C17.0359 52 18.1999 50.836 18.1999 49.3998V48.5334H33.8001V49.3998C33.8001 50.836 34.9641 52 36.3998 52C37.836 52 39 50.836 39 49.3998V48.4893C45.3421 48.0319 50.2568 42.7582 50.2667 36.3998V29.3067C51.3026 28.9421 51.9968 27.9646 52 26.8664C51.9933 25.4335 50.8332 24.2734 49.3998 24.2667ZM20.8001 11.2667H13.8669C13.8669 9.35208 15.4189 7.80007 17.3335 7.80007C19.2481 7.80007 20.8001 9.35208 20.8001 11.2667ZM44.1999 24.2667V23.3998C44.1999 22.9214 44.5879 22.5334 45.0668 22.5334C45.5452 22.5334 45.9332 22.9214 45.9332 23.3998V24.2667H44.1999ZM32.0668 23.3998C32.0672 22.9214 32.4548 22.5338 32.9332 22.5334H42.6265C42.5237 22.8107 42.4694 23.1039 42.4666 23.3998V32.9332H34.6665C34.1881 32.9332 33.8001 33.3212 33.8001 33.8001C33.8001 34.2785 34.1881 34.6665 34.6665 34.6665H42.4666V36.3998H32.0668V23.3998ZM16.4666 49.3998C16.4666 49.8787 16.0786 50.2667 15.6002 50.2667C15.1213 50.2667 14.7333 49.8787 14.7333 49.3998V48.5334H16.4666V49.3998ZM37.2667 49.3998C37.2667 49.8787 36.8787 50.2667 36.3998 50.2667C35.9214 50.2667 35.5334 49.8787 35.5334 49.3998V48.5334H37.2667V49.3998ZM38.1331 46.8001H13.8669C8.12579 46.7933 3.47336 42.1409 3.46661 36.3998V29.4666H26C26.4785 29.4666 26.8669 29.0786 26.8669 28.5998C26.8669 28.1213 26.4785 27.7333 26 27.7333H2.60016C2.36649 27.7337 2.14313 27.6381 1.98285 27.4683C1.82138 27.31 1.73132 27.0926 1.73331 26.8664C1.7341 26.388 2.1217 26.0004 2.60016 26H30.3335V36.3998C30.3354 37.0163 30.6655 37.5849 31.1999 37.8923V39.8664C31.1999 40.3453 31.5879 40.7333 32.0668 40.7333C32.5452 40.7333 32.9332 40.3453 32.9332 39.8664V38.1331H34.6665V39.8664C34.6665 40.3453 35.0545 40.7333 35.5334 40.7333C36.0118 40.7333 36.3998 40.3453 36.3998 39.8664V38.1331H38.1331V39.8664C38.1331 40.3453 38.5215 40.7333 39 40.7333C39.4785 40.7333 39.8669 40.3453 39.8669 39.8664V38.1331H41.6002V39.8664C41.6002 40.3453 41.9882 40.7333 42.4666 40.7333C42.9455 40.7333 43.3335 40.3453 43.3335 39.8664V37.8919C43.8679 37.5849 44.1979 37.0163 44.1999 36.3998V29.4666H48.5334V36.3998C48.527 42.1409 43.8746 46.7933 38.1331 46.8001ZM49.3998 27.7333H44.1999V26H49.3998C49.6339 25.9996 49.8573 26.0956 50.0179 26.2654C50.179 26.4237 50.2687 26.6407 50.2667 26.8664C50.2663 27.3449 49.8783 27.7329 49.3998 27.7333Z" fill="#F4CE5F"/>
<path d="M18.1999 15.5997C18.1999 15.1213 17.8119 14.7333 17.3334 14.7333C16.8546 14.7333 16.4666 15.1213 16.4666 15.5997V16.4666C16.4666 16.945 16.8546 17.333 17.3334 17.333C17.8119 17.333 18.1999 16.945 18.1999 16.4666V15.5997Z" fill="#F4CE5F"/>
<path d="M17.3334 19.0664C16.8546 19.0664 16.4666 19.4548 16.4666 19.9333V20.8001C16.4666 21.2786 16.8546 21.6666 17.3334 21.6666C17.8119 21.6666 18.1999 21.2786 18.1999 20.8001V19.9333C18.1999 19.4548 17.8119 19.0664 17.3334 19.0664Z" fill="#F4CE5F"/>
<path d="M14.2878 14.0018L13.6812 14.6211C13.346 14.963 13.3515 15.5117 13.6935 15.8469C14.0355 16.1818 14.5842 16.1762 14.9194 15.8342L15.526 15.2154C15.8612 14.8734 15.8553 14.3247 15.5137 13.9895C15.1717 13.6542 14.6226 13.6602 14.2878 14.0018Z" fill="#F4CE5F"/>
<path d="M11.2544 17.0966L10.6478 17.7159C10.3125 18.0579 10.3181 18.6066 10.6601 18.9414C11.002 19.2767 11.5507 19.2711 11.8859 18.9291L12.4925 18.3098C12.8278 17.9679 12.8222 17.4192 12.4802 17.0843C12.1383 16.7491 11.5892 16.7547 11.2544 17.0966Z" fill="#F4CE5F"/>
<path d="M19.1533 13.9898C18.8117 14.3251 18.8065 14.8733 19.141 15.2157L19.7476 15.8346C19.9646 16.056 20.2827 16.1448 20.5827 16.0675C20.8826 15.9905 21.1186 15.7592 21.202 15.4609C21.2849 15.1625 21.2028 14.8428 20.9861 14.6214L20.3791 14.0021C20.2185 13.8379 19.9987 13.7442 19.769 13.7419C19.5389 13.7395 19.3175 13.8288 19.1533 13.9898Z" fill="#F4CE5F"/>
<path d="M22.174 18.3102L22.7806 18.9295C22.9976 19.1505 23.3158 19.2393 23.6157 19.1624C23.9157 19.085 24.1517 18.8541 24.235 18.5558C24.3179 18.2574 24.2358 17.9373 24.0192 17.7163L23.4122 17.097C23.0774 16.755 22.5287 16.7495 22.1867 17.0847C21.8447 17.4195 21.8392 17.9686 22.174 18.3102Z" fill="#F4CE5F"/>
<path d="M16.4666 43.3331H13.8669C10.0392 43.3287 6.93762 40.2271 6.93326 36.3998C6.93326 35.9214 6.54526 35.5334 6.0668 35.5334C5.58795 35.5334 5.19995 35.9214 5.19995 36.3998C5.20551 41.184 9.08234 45.0612 13.8669 45.0664H16.4666C16.9455 45.0664 17.3335 44.6784 17.3335 44.1999C17.3335 43.7211 16.9455 43.3331 16.4666 43.3331Z" fill="#F4CE5F"/>
<path d="M6.0668 33.8001C6.54526 33.8001 6.93326 33.4117 6.93326 32.9333V32.0664C6.93326 31.588 6.54526 31.2 6.0668 31.2C5.58795 31.2 5.19995 31.588 5.19995 32.0664V32.9333C5.19995 33.4117 5.58795 33.8001 6.0668 33.8001Z" fill="#F4CE5F"/>
</g>
<defs>
<clipPath id="clip0">
<rect width="52" height="52" fill="white"/>
</clipPath>
</defs>
</svg>
