<svg width="17" height="14" viewBox="0 0 17 14" fill="none" xmlns="http://www.w3.org/2000/svg">
<path d="M16.3459 2.3167L15.0396 0.97334C14.9877 0.913965 14.9061 0.884277 14.8318 0.884277C14.7502 0.884277 14.676 0.913965 14.624 0.97334L5.56933 10.0948L2.27402 6.79951C2.21465 6.74014 2.14043 6.71045 2.06621 6.71045C1.99199 6.71045 1.91777 6.74014 1.8584 6.79951L0.537305 8.12061C0.418555 8.23936 0.418555 8.4249 0.537305 8.54365L4.69355 12.6999C4.96074 12.9671 5.2873 13.1229 5.56191 13.1229C5.95527 13.1229 6.29668 12.8335 6.42285 12.7147H6.43027L16.3533 2.73975C16.4572 2.61357 16.4572 2.42803 16.3459 2.3167Z" fill="#F4CE5F"/>
</svg>
