<svg width="50" height="50" viewBox="0 0 50 50" fill="none" xmlns="http://www.w3.org/2000/svg">
<g clip-path="url(#clip0)">
<path d="M31.6667 31.7509V24.1667C31.6667 22.7884 30.545 21.6667 29.1667 21.6667H5.83333C4.455 21.6667 3.33333 22.7884 3.33333 24.1667V31.7509C1.43417 32.1384 0 33.8217 0 35.8334V40.8334V49.1667C0 49.6267 0.373333 50.0001 0.833333 50.0001H4.16667C4.62667 50.0001 5 49.6267 5 49.1667V46.6667H30V49.1667C30 49.6267 30.3733 50.0001 30.8333 50.0001H34.1667C34.6267 50.0001 35 49.6267 35 49.1667V40.8334V35.8334C35 33.8217 33.5658 32.1384 31.6667 31.7509ZM5 24.1667C5 23.7076 5.37417 23.3334 5.83333 23.3334H29.1667C29.6258 23.3334 30 23.7076 30 24.1667V31.6667H28.3333V28.3334C28.3333 26.9551 27.2117 25.8334 25.8333 25.8334H20.8333C19.455 25.8334 18.3333 26.9551 18.3333 28.3334V31.6667H16.6667V28.3334C16.6667 26.9551 15.545 25.8334 14.1667 25.8334H9.16667C7.78833 25.8334 6.66667 26.9551 6.66667 28.3334V31.6667H5V24.1667ZM26.6667 28.3334V31.6667H20V28.3334C20 27.8742 20.3742 27.5001 20.8333 27.5001H25.8333C26.2925 27.5001 26.6667 27.8742 26.6667 28.3334ZM15 28.3334V31.6667H8.33333V28.3334C8.33333 27.8742 8.7075 27.5001 9.16667 27.5001H14.1667C14.6258 27.5001 15 27.8742 15 28.3334ZM33.3333 48.3334H31.6667V45.8334C31.6667 45.3734 31.2933 45.0001 30.8333 45.0001H4.16667C3.70667 45.0001 3.33333 45.3734 3.33333 45.8334V48.3334H1.66667V41.6667H33.3333V48.3334ZM33.3333 40.0001H1.66667V35.8334C1.66667 34.4551 2.78833 33.3334 4.16667 33.3334H7.5H15.8333H19.1667H27.5H30.8333C32.2117 33.3334 33.3333 34.4551 33.3333 35.8334V40.0001Z" fill="#333333"/>
<path d="M49.1667 31.6666H37.5C37.04 31.6666 36.6667 32.04 36.6667 32.5V39.1666V45H38.3334V40H48.3334V45H50V39.1666V32.5C50 32.04 49.6267 31.6666 49.1667 31.6666ZM48.3334 38.3333H38.3334V33.3333H48.3334V38.3333Z" fill="#333333"/>
<path d="M45 35H41.6667V36.6667H45V35Z" fill="#333333"/>
<path d="M47.4575 24.7358L45.7908 19.7358C45.6766 19.3958 45.3591 19.1666 45 19.1666H41.6667C41.3075 19.1666 40.99 19.3958 40.8758 19.7366L39.2092 24.7366C39.1242 24.9908 39.1675 25.27 39.3242 25.4875C39.4808 25.705 39.7325 25.8333 40 25.8333H42.5V28.3333H40.8333V30H45.8333V28.3333H44.1666V25.8333H46.6666C46.9341 25.8333 47.1858 25.705 47.3425 25.4866C47.4991 25.2691 47.5416 24.99 47.4575 24.7358ZM41.1558 24.1666L42.2675 20.8333H44.4L45.5108 24.1666H41.1558Z" fill="#333333"/>
<path d="M49.5075 10.9058L25.3408 0.0725C25.1233 -0.0241667 24.8758 -0.0241667 24.6592 0.0725L0.4925 10.9058C0.1925 11.0408 0 11.3383 0 11.6667V21.6667H1.66667V12.2058L25 1.74667L48.3333 12.2067V21.6667H50V11.6667C50 11.3383 49.8075 11.0408 49.5075 10.9058Z" fill="#333333"/>
<path d="M30.7525 11.5283L29.1084 11.805C29.1475 12.0325 29.1667 12.2658 29.1667 12.5C29.1667 14.7975 27.2975 16.6666 25 16.6666C22.7025 16.6666 20.8334 14.7975 20.8334 12.5C20.8334 10.2025 22.7025 8.33329 25 8.33329C25.4767 8.33329 25.945 8.41329 26.39 8.57079L26.945 6.99913C26.3209 6.77829 25.6667 6.66663 25 6.66663C21.7834 6.66663 19.1667 9.28329 19.1667 12.5C19.1667 15.7166 21.7834 18.3333 25 18.3333C28.2167 18.3333 30.8334 15.7166 30.8334 12.5C30.8334 12.1733 30.8059 11.8466 30.7525 11.5283Z" fill="#333333"/>
<path d="M30.2441 6.91089L25 12.155L23.9225 11.0775L22.7441 12.2559L24.4108 13.9225C24.5733 14.085 24.7866 14.1667 25 14.1667C25.2133 14.1667 25.4266 14.085 25.5891 13.9225L31.4225 8.08922L30.2441 6.91089Z" fill="#333333"/>
</g>
<defs>
<clipPath id="clip0">
<path d="M0 5C0 2.23858 2.23858 0 5 0H45C47.7614 0 50 2.23858 50 5V45C50 47.7614 47.7614 50 45 50H0V5Z" fill="white"/>
</clipPath>
</defs>
</svg>
