<svg width="30" height="30" viewBox="0 0 30 30" fill="none" xmlns="http://www.w3.org/2000/svg">
<g clip-path="url(#clip0)">
<path d="M28.3871 -5.37053e-06H1.64123C1.16921 -0.000897665 0.736748 0.262626 0.521111 0.682299C0.3025 1.10762 0.340868 1.6198 0.620155 2.00824L10.4187 15.8117C10.422 15.8164 10.4255 15.8209 10.4288 15.8257C10.7848 16.3063 10.9776 16.8887 10.9785 17.4868V28.7407C10.9764 29.0738 11.1072 29.3941 11.3419 29.6306C11.5769 29.8667 11.8963 30 12.2295 30C12.3987 29.9997 12.5664 29.9661 12.7229 29.9009L18.2289 27.8017C18.7221 27.6509 19.0495 27.1854 19.0495 26.6251V17.4868C19.0504 16.8887 19.2432 16.3063 19.5989 15.8257C19.6022 15.8209 19.6057 15.8164 19.609 15.8117L29.4078 2.00795C29.6871 1.6198 29.7255 1.10792 29.5069 0.682597C29.2915 0.262625 28.8588 -0.000897665 28.3871 -5.37053e-06Z" fill="#F4CE5F"/>
</g>
<defs>
<clipPath id="clip0">
<rect width="30" height="30" fill="white"/>
</clipPath>
</defs>
</svg>
