<svg width="50" height="50" viewBox="0 0 50 50" fill="none" xmlns="http://www.w3.org/2000/svg">
<g clip-path="url(#clip0)">
<path d="M47.2379 0.00976562H2.75962C1.23656 0.00976562 0 1.24386 0 2.76939V47.2477C0 48.7732 1.23656 50.0089 2.75962 50.0089H26.7054V30.6463H20.19V23.0994H26.7054V17.534C26.7054 11.0771 30.6481 7.5592 36.4094 7.5592C39.1714 7.5592 41.54 7.76585 42.2307 7.85558V14.6048L38.2346 14.6064C35.102 14.6064 34.4977 16.0957 34.4977 18.2799V23.0969H41.9714L40.9942 30.643H34.4969V50.0065H47.2371C48.7618 50.0065 49.9992 48.7691 49.9992 47.2477V2.76774C49.9983 1.24386 48.7626 0.00976562 47.2379 0.00976562Z" fill="#F4CE5F"/>
</g>
<defs>
<clipPath id="clip0">
<rect width="50.0008" height="50" fill="white"/>
</clipPath>
</defs>
</svg>
