<svg width="50" height="50" viewBox="0 0 50 50" fill="none" xmlns="http://www.w3.org/2000/svg">
<g clip-path="url(#clip0)">
<path d="M48.806 12.7842L41.2384 10.3912C40.8504 10.2684 40.4373 10.4836 40.3145 10.8711C40.192 11.2587 40.4068 11.6722 40.7944 11.7947L48.362 14.188C48.4612 14.2193 48.5279 14.3101 48.5279 14.4142V42.6788C48.5279 42.9356 48.3192 43.1442 48.0629 43.1442H44.3222V16.5894C44.3222 15.6963 43.5959 14.97 42.7029 14.97H7.11136C6.21834 14.97 5.49202 15.6963 5.49202 16.5894V43.1442H1.93748C1.68076 43.1442 1.47209 42.9356 1.47209 42.6788V14.4142C1.47209 14.3105 1.53885 14.2193 1.63803 14.188L24.6918 6.89125C24.8936 6.82755 25.1068 6.82755 25.3082 6.89125L37.616 10.7887C38.0035 10.9116 38.4171 10.6968 38.5399 10.3092C38.6627 9.92165 38.448 9.50775 38.0604 9.3853L25.7526 5.48782C25.2602 5.33218 24.7398 5.33218 24.2477 5.48782L1.194 12.7846C0.479889 13.0104 0 13.6654 0 14.4146V42.6792C0 43.7473 0.868988 44.6163 1.93748 44.6163H48.0625C49.131 44.6163 50 43.7473 50 42.6792V14.4146C50 13.6654 49.5201 13.0104 48.806 12.7842ZM13.5288 31.9263H26.1173C26.524 31.9263 26.8536 31.5968 26.8536 31.1901C26.8536 30.7838 26.524 30.4543 26.1173 30.4543H15.5636L16.2647 27.454C16.4665 26.5888 17.2287 25.9846 18.1171 25.9846H31.5395C32.428 25.9846 33.1898 26.5888 33.392 27.454L34.0927 30.4543H29.52C29.1134 30.4543 28.7838 30.7838 28.7838 31.1901C28.7838 31.5968 29.1134 31.9263 29.52 31.9263H36.2255C36.5776 31.9263 36.8637 32.2124 36.8637 32.5642V39.5966C36.8637 39.9483 36.5776 40.2348 36.2255 40.2348H13.5288C13.1229 40.2348 12.7926 39.9044 12.7926 39.4985V32.6626C12.7926 32.2563 13.1229 31.9263 13.5288 31.9263ZM33.9287 43.1374H32.2681C32.1056 43.1374 31.9736 43.0054 31.9736 42.8429V41.7068H34.272V42.794C34.272 42.9832 34.1179 43.1374 33.9287 43.1374ZM15.3843 41.7068H17.6826V42.7937C17.6826 42.9832 17.5285 43.1374 17.3393 43.1374H15.6788C15.5163 43.1374 15.3843 43.0054 15.3843 42.8429V41.7068ZM19.1551 42.7937V41.7068H30.5016V42.8429C30.5016 42.9459 30.5119 43.0458 30.529 43.1442H19.1204C19.1425 43.0305 19.1551 42.9138 19.1551 42.7937ZM35.7098 43.1442C35.7319 43.0305 35.7445 42.9138 35.7445 42.7937V41.7068H36.2255C37.3894 41.7068 38.3358 40.76 38.3358 39.5966V32.5642C38.3358 31.5804 37.6579 30.7537 36.7451 30.5214H38.1954C38.6021 30.5214 38.9317 30.1918 38.9317 29.7852C38.9317 29.3789 38.6021 29.0493 38.1954 29.0493H35.2764L34.8255 27.1191C34.4669 25.5844 33.1154 24.5121 31.5395 24.5121H18.1171C16.5409 24.5121 15.1897 25.5844 14.8312 27.1191L14.3803 29.0493H11.4609C11.0542 29.0493 10.7246 29.3789 10.7246 29.7852C10.7246 30.1918 11.0542 30.5214 11.4609 30.5214H12.9875C12.0308 30.7636 11.3205 31.6315 11.3205 32.6622V39.4985C11.3205 40.7162 12.3112 41.7068 13.5288 41.7068H13.9122V42.8429C13.9122 42.9459 13.9229 43.0458 13.9397 43.1442H6.96411V22.4899H13.8573C14.2635 22.4899 14.5931 22.1603 14.5931 21.7537C14.5931 21.347 14.2635 21.0175 13.8573 21.0175H6.96411V16.5894C6.96411 16.5081 7.03011 16.4421 7.11136 16.4421H42.7025C42.7837 16.4421 42.8497 16.5081 42.8497 16.5894V21.0175H17.3656C16.959 21.0175 16.6294 21.347 16.6294 21.7537C16.6294 22.1603 16.959 22.4899 17.3656 22.4899H42.8497V43.1442H35.7098Z" fill="#333333"/>
<path d="M24.6112 38.0757C26.0508 38.0757 27.2223 36.9046 27.2223 35.4649C27.2223 34.0249 26.0508 32.8538 24.6112 32.8538C23.1715 32.8538 22 34.0249 22 35.4649C22 36.9046 23.1715 38.0757 24.6112 38.0757ZM24.6112 34.3259C25.2391 34.3259 25.7502 34.8366 25.7502 35.4649C25.7502 36.0928 25.2391 36.6036 24.6112 36.6036C23.9833 36.6036 23.4725 36.0928 23.4725 35.4649C23.4725 34.8366 23.9833 34.3259 24.6112 34.3259Z" fill="#333333"/>
<path d="M24.6112 38.0757C26.0512 38.0757 27.2223 36.9046 27.2223 35.4649C27.2223 34.0249 26.0508 32.8538 24.6112 32.8538C23.1715 32.8538 22 34.0249 22 35.4649C22 36.9046 23.1715 38.0757 24.6112 38.0757ZM24.6112 34.3259C25.2391 34.3259 25.7502 34.8366 25.7502 35.4649C25.7502 36.0928 25.2391 36.6036 24.6112 36.6036C23.9833 36.6036 23.4725 36.0928 23.4725 35.4649C23.4725 34.8366 23.9833 34.3259 24.6112 34.3259Z" fill="#333333"/>
<path d="M21.0303 39.2601H29.24C29.8083 39.2601 30.2703 38.7977 30.2703 38.2293V36.4502C30.2703 35.8818 29.8083 35.4194 29.24 35.4194H21.0303C20.4623 35.4194 20 35.8818 20 36.4502V38.2293C20 38.7973 20.4623 39.2601 21.0303 39.2601ZM21.4721 36.8919H28.7982V37.7876H21.4721V36.8919Z" fill="#333333"/>
</g>
<defs>
<clipPath id="clip0">
<path d="M0 5C0 2.23858 2.23858 0 5 0H45C47.7614 0 50 2.23858 50 5V45C50 47.7614 47.7614 50 45 50H0V5Z" fill="white"/>
</clipPath>
</defs>
</svg>
