<svg width="52" height="52" viewBox="0 0 52 52" fill="none" xmlns="http://www.w3.org/2000/svg">
<path d="M17.6754 43.1687L17.1503 41.3596C17.0324 40.9531 16.7048 40.6342 16.2953 40.527L13.081 39.6867C12.9803 39.6604 12.877 39.647 12.7738 39.647C12.4258 39.647 12.0941 39.7982 11.8639 40.0619C11.6347 40.3245 11.5304 40.6736 11.5775 41.0193L11.8212 42.8066C11.8885 43.3011 12.245 43.6977 12.7294 43.8169L16.2252 44.6793C16.321 44.7029 16.4192 44.7149 16.5169 44.7149C16.8935 44.7149 17.2542 44.5339 17.4819 44.2307C17.712 43.9244 17.7825 43.5373 17.6754 43.1687ZM13.263 42.424L13.0991 41.2215L15.7716 41.9202L16.1227 43.1295L13.263 42.424Z" fill="#F4CE5F"/>
<path d="M40.1425 40.0619C39.9126 39.7982 39.581 39.647 39.2328 39.647C39.1297 39.647 39.0263 39.6604 38.9256 39.6867L35.7114 40.527C35.302 40.6341 34.9743 40.9531 34.8564 41.3595L34.3311 43.1687C34.2241 43.5373 34.2946 43.9243 34.5246 44.2307C34.7522 44.5338 35.1131 44.7149 35.4896 44.7149C35.4897 44.7149 35.4897 44.7149 35.4897 44.7149C35.5874 44.7149 35.6856 44.7029 35.7813 44.6793L39.2769 43.817C39.7615 43.6976 40.118 43.3011 40.1853 42.8067L40.4288 41.0194C40.4761 40.6735 40.3717 40.3244 40.1425 40.0619ZM38.7437 42.424L35.884 43.1294L36.2351 41.9201L38.9076 41.2214L38.7437 42.424Z" fill="#F4CE5F"/>
<path d="M43.4181 30.5889H41.5197C40.7486 30.5889 40.1211 31.2163 40.1211 31.9874V32.3071L38.0397 25.7484C37.6149 24.4097 36.3859 23.5103 34.9812 23.5103H17.0253C15.6209 23.5103 14.3917 24.4097 13.9668 25.7484L11.6285 33.1163L11.5794 33.0537C11.6439 32.8915 11.6785 32.7173 11.6785 32.5375V31.9874C11.6785 31.2164 11.0511 30.5889 10.28 30.5889H8.38166C7.6106 30.5889 6.98315 31.2163 6.98315 31.9874V32.5375C6.98315 33.3086 7.6105 33.936 8.38166 33.936H10.2801C10.3157 33.936 10.351 33.9335 10.3862 33.9308L10.7971 34.4551C9.84091 35.3559 9.2422 36.6321 9.2422 38.0463V44.085C9.2422 45.259 10.0064 46.2572 11.0632 46.6103V48.5419C11.0632 49.7799 12.0704 50.7871 13.3083 50.7871H15.5393C16.7773 50.7871 17.7845 49.7799 17.7845 48.5419V46.7472H34.2222V48.5419C34.2222 49.7799 35.2294 50.7871 36.4673 50.7871H38.6982C39.9362 50.7871 40.9434 49.7799 40.9434 48.5419V46.6103C42.0001 46.2572 42.7644 45.2591 42.7644 44.085V38.0463C42.7644 36.5736 42.1152 35.2502 41.0889 34.3451L41.4136 33.9308C41.4488 33.9335 41.484 33.936 41.5197 33.936H43.4181C44.1891 33.936 44.8166 33.3087 44.8166 32.5375V31.9874C44.8165 31.2164 44.1891 30.5889 43.4181 30.5889ZM10.1982 32.4557H8.46352V32.0693H10.1982V32.4557ZM15.3777 26.1963C15.6066 25.4751 16.2688 24.9905 17.0253 24.9905H34.9813C35.7379 24.9905 36.4 25.475 36.6289 26.1962L38.8575 33.2184C38.8552 33.2179 38.8528 33.2175 38.8505 33.2171C38.846 33.2161 38.8416 33.2152 38.8371 33.2142C38.8167 33.2099 38.7961 33.2064 38.7756 33.2024C38.7753 33.2023 38.775 33.2023 38.7747 33.2022C38.745 33.1964 38.7152 33.1903 38.6853 33.1851C38.664 33.1813 38.6426 33.1783 38.6213 33.1748C38.5985 33.1711 38.5759 33.1673 38.5529 33.1639C38.5413 33.1622 38.5299 33.1604 38.5182 33.1588C38.4923 33.1551 38.4663 33.1523 38.4404 33.149C38.4103 33.1452 38.3803 33.1412 38.35 33.138C38.3463 33.1376 38.3428 33.1371 38.3392 33.1367C38.3278 33.1355 38.3162 33.1348 38.3047 33.1338C38.2937 33.1328 38.2827 33.1319 38.2717 33.1309C38.2453 33.1286 38.2191 33.1256 38.1927 33.1237L36.073 26.3734C35.9217 25.8952 35.483 25.574 34.9813 25.574H17.0254C16.5242 25.574 16.0855 25.895 15.9332 26.3745L13.8084 33.1242C13.802 33.1247 13.7957 33.1257 13.7893 33.1263C13.7599 33.1286 13.7305 33.131 13.7012 33.1339C13.69 33.135 13.6787 33.1356 13.6676 33.1368C13.6058 33.1432 13.5443 33.1509 13.4828 33.1597C13.476 33.1606 13.4694 33.1618 13.4626 33.1628C13.4616 33.1629 13.4607 33.1631 13.4597 33.1633C13.435 33.167 13.4105 33.1708 13.3859 33.1748C13.3336 33.1833 13.2814 33.1927 13.2295 33.2028C13.2096 33.2067 13.1896 33.2101 13.1698 33.2143C13.1643 33.2154 13.1589 33.2166 13.1535 33.2178C13.1519 33.2181 13.1504 33.2183 13.1489 33.2186L15.3777 26.1963ZM36.6369 33.1102H15.3648L17.2712 27.0542H34.7351L36.6369 33.1102ZM12.9888 34.802C12.993 34.8005 12.9972 34.7988 13.0013 34.7973C13.014 34.7926 13.027 34.7886 13.0398 34.7842C13.0941 34.7652 13.149 34.7475 13.2042 34.7312C13.2209 34.7264 13.2378 34.7216 13.2545 34.7169C13.2582 34.7159 13.2618 34.7149 13.2655 34.7139C13.3207 34.6987 13.3765 34.685 13.4326 34.6726C13.4488 34.6691 13.4649 34.6651 13.4812 34.6618C13.5481 34.648 13.6156 34.6362 13.6834 34.6264C13.7 34.6241 13.7166 34.6223 13.7332 34.62C13.7894 34.6127 13.8459 34.6069 13.9027 34.6024C13.9122 34.6016 13.9217 34.6008 13.9312 34.6002C13.9421 34.5994 13.953 34.5985 13.9638 34.5979C14.035 34.5935 14.1063 34.5905 14.1779 34.5905C14.178 34.5905 14.1781 34.5905 14.1783 34.5905H14.3558H37.645H37.8283C37.9 34.5905 37.9714 34.5935 38.0427 34.5979C38.0543 34.5986 38.0657 34.5996 38.0772 34.6004C38.086 34.601 38.0948 34.6018 38.1036 34.6025C38.1606 34.607 38.2173 34.6128 38.2737 34.6201C38.2901 34.6223 38.3066 34.6241 38.3229 34.6264C38.3907 34.6362 38.4583 34.6481 38.5253 34.6618C38.5415 34.6651 38.5577 34.669 38.5739 34.6726C38.63 34.685 38.6857 34.6987 38.741 34.7139C38.7452 34.715 38.7493 34.7161 38.7535 34.7173C38.7697 34.7218 38.7858 34.7264 38.8019 34.731C38.8576 34.7474 38.9129 34.7653 38.9677 34.7844C38.98 34.7887 38.9926 34.7925 39.0049 34.797C39.0092 34.7986 39.0135 34.8003 39.0178 34.8019C39.0587 34.817 39.0989 34.834 39.1393 34.8506C38.3267 37.1164 36.1784 38.6535 33.729 38.6535H18.2776C15.8282 38.6535 13.6799 37.1164 12.8673 34.8506C12.9076 34.834 12.9478 34.8171 12.9888 34.802ZM16.3041 48.5418C16.3041 48.9634 15.9609 49.3066 15.5393 49.3066H13.3083C12.8867 49.3066 12.5435 48.9634 12.5435 48.5418V46.7472H16.3041V48.5418ZM19.3134 45.2641V44.5612C19.3134 44.0611 19.7203 43.6544 20.2204 43.6544H31.7861C32.2862 43.6544 32.6931 44.0611 32.6931 44.5612V45.2641H19.3134ZM39.463 48.5418C39.463 48.9634 39.1198 49.3066 38.6982 49.3066H36.4673C36.0457 49.3066 35.7025 48.9634 35.7025 48.5418V46.7472H39.463V48.5418ZM41.284 38.0463V44.085C41.284 44.7091 40.7973 45.2206 40.1837 45.2628C40.1775 45.263 40.1713 45.2625 40.165 45.2628L40.1204 45.2657L34.9624 45.267H34.1735V44.5613C34.1735 43.2451 33.1026 42.1742 31.7862 42.1742H20.2204C18.904 42.1742 17.8331 43.2451 17.8331 44.5613V45.267H11.9076L11.8414 45.2628C11.8351 45.2625 11.8289 45.263 11.8227 45.2628C11.2092 45.2206 10.7225 44.7091 10.7225 44.085V38.0463C10.7225 37.1533 11.063 36.3383 11.621 35.7243C12.7373 38.3677 15.334 40.1338 18.2776 40.1338H33.7289C36.6725 40.1338 39.2691 38.3676 40.3855 35.7243C40.9435 36.3383 41.284 37.1533 41.284 38.0463ZM43.3362 32.4557H41.6015V32.0693H43.3362V32.4557Z" fill="#F4CE5F"/>
<path d="M51.436 13.0104L26.134 1.34214C25.9482 1.25642 25.7503 1.21295 25.5457 1.21295C25.3373 1.21295 25.1278 1.26048 24.9397 1.35047L0.551482 13.014C0.216429 13.1741 0 13.5176 0 13.8889V16.3326C0 16.7443 0.258272 17.096 0.621052 17.2366V49.6981C0.621052 50.2985 1.10946 50.787 1.7099 50.787H5.62431C6.22474 50.787 6.71325 50.2985 6.71325 49.6981V20.2438H45.2867V49.6981C45.2867 50.2985 45.7753 50.787 46.3757 50.787H50.2901C50.8905 50.787 51.3789 50.2985 51.3789 49.6981V17.2365C51.7416 17.0959 52 16.7442 52 16.3325V13.8912C51.9998 13.5142 51.7786 13.1685 51.436 13.0104ZM5.23289 19.5036V49.3067H2.10132V17.3025H5.23289V19.5036ZM45.2866 18.7634H6.71315V17.3025H45.2866V18.7634ZM49.8985 49.3067H46.7669V19.5036V17.3025H49.8985V49.3067ZM50.5195 15.8223H46.0268H5.97297H1.48027V14.2106L25.5462 2.70124L50.5195 14.2178V15.8223Z" fill="#F4CE5F"/>
</svg>
