<svg width="51" height="50" viewBox="0 0 51 50" fill="none" xmlns="http://www.w3.org/2000/svg">
<g clip-path="url(#clip0)">
<path d="M37.5946 8.88672H14.1571C11.734 8.88672 9.76254 10.8582 9.76254 13.2812V36.7188C9.76254 39.1418 11.734 41.1133 14.1571 41.1133H37.5946C40.0177 41.1133 41.9891 39.1418 41.9891 36.7188V13.2812C41.9891 10.8582 40.0177 8.88672 37.5946 8.88672ZM25.8758 35.2539C20.2224 35.2539 15.6219 30.6534 15.6219 25C15.6219 19.3466 20.2224 14.7461 25.8758 14.7461C31.5292 14.7461 36.1297 19.3466 36.1297 25C36.1297 30.6534 31.5292 35.2539 25.8758 35.2539ZM36.1297 17.6758C34.5146 17.6758 33.2 16.3612 33.2 14.7461C33.2 13.131 34.5146 11.8164 36.1297 11.8164C37.7449 11.8164 39.0594 13.131 39.0594 14.7461C39.0594 16.3612 37.7449 17.6758 36.1297 17.6758Z" fill="#F4CE5F"/>
<path d="M25.8758 17.6758C21.8376 17.6758 18.5516 20.9618 18.5516 25C18.5516 29.0382 21.8376 32.3242 25.8758 32.3242C29.9141 32.3242 33.2 29.0382 33.2 25C33.2 20.9618 29.9141 17.6758 25.8758 17.6758Z" fill="#F4CE5F"/>
<path d="M43.4539 0H8.2977C4.25946 0 0.875824 3.38364 0.875824 7.42188V42.5781C0.875824 46.6164 4.25946 50 8.2977 50H43.4539C47.4922 50 50.8758 46.6164 50.8758 42.5781V7.42188C50.8758 3.38364 47.4922 0 43.4539 0ZM44.9188 36.7188C44.9188 40.757 41.6328 44.043 37.5946 44.043H14.1571C10.1188 44.043 6.83286 40.757 6.83286 36.7188V13.2812C6.83286 9.24301 10.1188 5.95703 14.1571 5.95703H37.5946C41.6328 5.95703 44.9188 9.24301 44.9188 13.2812V36.7188Z" fill="#F4CE5F"/>
</g>
<defs>
<clipPath id="clip0">
<rect width="50" height="50" fill="white" transform="translate(0.875824)"/>
</clipPath>
</defs>
</svg>
