<svg width="35" height="36" viewBox="0 0 35 36" fill="none" xmlns="http://www.w3.org/2000/svg">
<path d="M17.5 6.07812C15.2436 6.08073 13.0804 6.97818 11.4848 8.57361C9.88919 10.169 8.99153 12.3322 8.98871 14.5886C8.98871 20.3551 16.9064 29.4231 17.2432 29.8062C17.2725 29.8413 17.3084 29.8701 17.349 29.8911C17.3895 29.912 17.4339 29.9247 17.4794 29.9282C17.5249 29.9317 17.5706 29.9261 17.6139 29.9117C17.6572 29.8972 17.6972 29.8743 17.7315 29.8441C17.7658 29.814 17.7937 29.7773 17.8135 29.7362C17.8334 29.6951 17.8449 29.6504 17.8472 29.6049C17.8495 29.5593 17.8427 29.5137 17.8271 29.4708C17.8115 29.4279 17.7875 29.3885 17.7565 29.355C17.6745 29.2629 9.6723 20.0978 9.6723 14.5894C9.6723 12.5134 10.497 10.5224 11.965 9.0544C13.433 7.58642 15.424 6.76172 17.5 6.76172C19.576 6.76172 21.567 7.58642 23.035 9.0544C24.503 10.5224 25.3277 12.5134 25.3277 14.5894C25.3277 18.8146 20.4799 25.3475 18.3955 27.9605C18.3675 27.9956 18.3467 28.0359 18.3343 28.079C18.3219 28.1222 18.318 28.1673 18.3231 28.2119C18.3281 28.2565 18.3419 28.2997 18.3636 28.339C18.3853 28.3783 18.4145 28.4129 18.4496 28.4409C18.4847 28.4689 18.525 28.4897 18.5682 28.5022C18.6113 28.5146 18.6565 28.5184 18.7011 28.5134C18.7457 28.5083 18.7889 28.4946 18.8282 28.4729C18.8675 28.4511 18.9021 28.4219 18.9301 28.3868C21.5745 25.0716 26.0121 18.8712 26.0121 14.5897C26.0096 12.333 25.1119 10.1694 23.5161 8.57371C21.9203 6.97801 19.7567 6.08051 17.5 6.07812Z" fill="white" stroke="white" stroke-width="0.5"/>
<path d="M15.1777 11.9133C15.2138 11.8818 15.2507 11.8512 15.2871 11.8214C15.3548 11.7638 15.3973 11.682 15.4058 11.5935C15.4143 11.5051 15.3879 11.4167 15.3324 11.3473C15.2769 11.2779 15.1965 11.2328 15.1083 11.2216C15.0201 11.2104 14.9311 11.234 14.86 11.2874C14.8149 11.3238 14.7706 11.3607 14.7271 11.3981C14.6933 11.4276 14.6656 11.4635 14.6456 11.5037C14.6257 11.544 14.6138 11.5877 14.6108 11.6325C14.6077 11.6773 14.6135 11.7222 14.6279 11.7648C14.6422 11.8073 14.6647 11.8466 14.6943 11.8805C14.7238 11.9143 14.7597 11.942 14.7999 11.9619C14.8401 11.9819 14.8838 11.9937 14.9286 11.9968C14.9734 11.9998 15.0184 11.994 15.0609 11.9797C15.1035 11.9654 15.1428 11.9428 15.1766 11.9133H15.1777Z" fill="white" stroke="white" stroke-width="0.5"/>
<path d="M14.2915 12.3721C14.2129 12.3275 14.1198 12.3159 14.0326 12.3399C13.9454 12.3638 13.8714 12.4215 13.8267 12.5001C13.3377 13.3621 13.1678 14.3688 13.3467 15.3435C13.5256 16.3183 14.0419 17.199 14.8051 17.8312C15.5683 18.4635 16.5297 18.8069 17.5207 18.8012C18.5117 18.7956 19.4692 18.4413 20.2252 17.8005C20.9812 17.1596 21.4874 16.2731 21.6553 15.2964C21.8231 14.3197 21.6417 13.315 21.143 12.4586C20.6443 11.6022 19.86 10.9486 18.9277 10.6125C17.9953 10.2764 16.9745 10.2792 16.044 10.6205C15.9589 10.6517 15.8896 10.7155 15.8515 10.7977C15.8134 10.88 15.8095 10.9741 15.8407 11.0592C15.8719 11.1443 15.9357 11.2136 16.018 11.2517C16.1002 11.2898 16.1943 11.2937 16.2794 11.2625C17.0605 10.9758 17.9176 10.9732 18.7004 11.2553C19.4831 11.5373 20.1416 12.0859 20.5604 12.8048C20.9792 13.5238 21.1314 14.3672 20.9905 15.1872C20.8496 16.0073 20.4245 16.7515 19.7898 17.2894C19.1551 17.8274 18.3512 18.1247 17.5192 18.1292C16.6872 18.1338 15.8801 17.8452 15.2395 17.3143C14.599 16.7833 14.1658 16.0437 14.0159 15.2253C13.8661 14.4069 14.0092 13.5618 14.42 12.8383C14.4423 12.7993 14.4566 12.7563 14.4622 12.7117C14.4677 12.6671 14.4645 12.6219 14.4525 12.5786C14.4406 12.5353 14.4202 12.4947 14.3926 12.4593C14.365 12.4239 14.3306 12.3942 14.2915 12.3721Z" fill="white" stroke="white" stroke-width="0.5"/>
</svg>
