<svg width="51" height="50" viewBox="0 0 51 50" fill="none" xmlns="http://www.w3.org/2000/svg">
<path d="M47.3044 0H4.43609C2.47181 0 0.875824 1.6183 0.875824 3.60491V46.3951C0.875824 48.3817 2.47181 50 4.43609 50H47.3044C49.2687 50 50.8758 48.3817 50.8758 46.3951V3.60491C50.8758 1.6183 49.2687 0 47.3044 0ZM15.9874 42.8571H8.57672V18.9955H15.9986V42.8571H15.9874ZM12.2821 15.7366C9.90484 15.7366 7.9852 13.8058 7.9852 11.4397C7.9852 9.07366 9.90484 7.14286 12.2821 7.14286C14.6481 7.14286 16.5789 9.07366 16.5789 11.4397C16.5789 13.817 14.6593 15.7366 12.2821 15.7366V15.7366ZM43.7664 42.8571H36.3557V31.25C36.3557 28.4821 36.2999 24.9219 32.5053 24.9219C28.6437 24.9219 28.0522 27.9353 28.0522 31.0491V42.8571H20.6414V18.9955H27.7508V22.2545H27.8513C28.8446 20.3795 31.2664 18.404 34.8714 18.404C42.3714 18.404 43.7664 23.3482 43.7664 29.7768V42.8571V42.8571Z" fill="#F4CE5F"/>
</svg>
