<svg width="35" height="35" viewBox="0 0 35 35" fill="none" xmlns="http://www.w3.org/2000/svg">
<path d="M28.8999 5.68897C22.426 -0.563683 12.1624 -0.563683 5.68849 5.68897C-0.721176 12.3254 -0.537347 22.9013 6.09909 29.3109C12.573 35.5636 22.8366 35.5636 29.3105 29.3109C35.7201 22.6746 35.5363 12.0986 28.8999 5.68897ZM28.5253 28.5258L28.5197 28.5202C22.4279 34.6065 12.5555 34.602 6.46922 28.5102C0.382906 22.4183 0.38741 12.546 6.47928 6.45972C12.5711 0.373406 22.4435 0.377909 28.5298 6.46971C31.4532 9.39582 33.0942 13.3636 33.0916 17.4999C33.0918 21.6353 31.4493 25.6015 28.5253 28.5258Z" fill="white" stroke="white"/>
<path d="M26.883 22.2556L23.7535 19.1371C23.0433 18.4252 21.8903 18.4238 21.1783 19.1341C21.1773 19.1351 21.1763 19.1361 21.1753 19.1371L19.3822 20.9302C19.2465 21.0662 19.0328 21.085 18.8755 20.9748C17.8941 20.2889 16.9754 19.5174 16.1302 18.6694C15.3732 17.9141 14.6769 17.1005 14.0475 16.2359C13.9335 16.0806 13.95 15.8652 14.0865 15.7292L15.9241 13.8915C16.6336 13.1807 16.6336 12.0297 15.9241 11.3188L12.7946 8.18932C12.0734 7.49988 10.9375 7.49988 10.2164 8.18932L9.22518 9.18051C7.72825 10.6606 7.19386 12.8583 7.84415 14.8605C8.3294 16.3253 9.01531 17.7158 9.88225 18.9923C10.6627 20.1627 11.5581 21.2521 12.5552 22.2444C13.6392 23.3362 14.8399 24.3053 16.1358 25.1345C17.5603 26.0641 19.1245 26.7597 20.7688 27.1949C21.1915 27.2991 21.6254 27.3514 22.0607 27.3508C23.5532 27.3416 24.9811 26.7409 26.0311 25.6802L26.8831 24.8282C27.5925 24.1174 27.5925 22.9664 26.883 22.2556ZM26.0945 24.0687C26.0938 24.0695 26.093 24.0702 26.0923 24.071L26.0978 24.0543L25.2458 24.9062C24.1511 26.0148 22.5568 26.4708 21.0415 26.1091C19.5148 25.7004 18.0635 25.0499 16.7426 24.1824C15.5154 23.398 14.3781 22.4812 13.3513 21.4482C12.4066 20.5103 11.5579 19.4806 10.8176 18.3743C10.0079 17.1839 9.36698 15.8871 8.91312 14.5208C8.39283 12.9157 8.82398 11.1545 10.0269 9.97129L11.018 8.9801C11.2936 8.70328 11.7414 8.70231 12.0182 8.97789C12.0189 8.9786 12.0197 8.97932 12.0204 8.9801L15.1499 12.1096C15.4267 12.3852 15.4277 12.833 15.1521 13.1098C15.1514 13.1105 15.1507 13.1112 15.1499 13.112L13.3123 14.9496C12.785 15.4711 12.7187 16.2999 13.1564 16.8986C13.821 17.8108 14.5565 18.6691 15.356 19.4658C16.2473 20.361 17.2163 21.1753 18.2516 21.8993C18.8499 22.3165 19.6609 22.2462 20.1784 21.7322L21.9547 19.928C22.2303 19.6512 22.6781 19.6502 22.9548 19.9258C22.9556 19.9265 22.9563 19.9272 22.9571 19.928L26.0922 23.0687C26.3691 23.3442 26.3701 23.7919 26.0945 24.0687Z" fill="white" stroke="white"/>
</svg>
