<svg width="18" height="19" viewBox="0 0 18 19" fill="none" xmlns="http://www.w3.org/2000/svg">
<g clip-path="url(#clip0)">
<path d="M5.48438 9.5C5.48438 9.88834 5.79916 10.2031 6.1875 10.2031H8.29688V12.3125C8.29688 12.7008 8.61166 13.0156 9 13.0156C9.38834 13.0156 9.70312 12.7008 9.70312 12.3125V10.2031H11.8125C12.2008 10.2031 12.5156 9.88834 12.5156 9.5C12.5156 9.11166 12.2008 8.79688 11.8125 8.79688H9.70312V6.6875C9.70312 6.29916 9.38834 5.98438 9 5.98438C8.61166 5.98438 8.29688 6.29916 8.29688 6.6875V8.79688H6.1875C5.79916 8.79688 5.48438 9.11166 5.48438 9.5Z" fill="white"/>
<path d="M5.63927 2.67258L6.54873 2.29584C6.90746 2.1472 7.07787 1.73591 6.92922 1.37714C6.78058 1.01837 6.36933 0.847896 6.01052 0.996642L5.10106 1.37338C4.74233 1.52202 4.57193 1.93331 4.72057 2.29208C4.86872 2.64965 5.27934 2.82157 5.63927 2.67258Z" fill="white"/>
<path d="M9 0.5C8.61166 0.5 8.29688 0.814789 8.29688 1.20312C8.29688 1.59146 8.61166 1.90625 9 1.90625C13.1969 1.90625 16.5938 5.30263 16.5938 9.5C16.5938 13.6969 13.1974 17.0938 9 17.0938C4.80312 17.0938 1.40625 13.6974 1.40625 9.5C1.40625 9.11166 1.09146 8.79688 0.703125 8.79688C0.314789 8.79688 0 9.11166 0 9.5C0 14.474 4.02528 18.5 9 18.5C13.974 18.5 18 14.4747 18 9.5C18 4.52599 13.9747 0.5 9 0.5Z" fill="white"/>
<path d="M3.2824 4.47842L3.97846 3.78236C4.25307 3.50776 4.25307 3.06254 3.97846 2.78797C3.70386 2.5134 3.25864 2.51337 2.98407 2.78797L2.28801 3.48403C2.0134 3.75863 2.0134 4.20385 2.28801 4.47842C2.56254 4.75296 3.0078 4.75303 3.2824 4.47842Z" fill="white"/>
<path d="M0.877218 7.42928C1.23676 7.5782 1.64763 7.40671 1.79592 7.04878L2.17266 6.13928C2.3213 5.78051 2.15089 5.36922 1.79216 5.22058C1.43332 5.07197 1.0221 5.24234 0.873457 5.60107L0.496722 6.51053C0.348082 6.86934 0.518484 7.28063 0.877218 7.42928Z" fill="white"/>
</g>
<defs>
<clipPath id="clip0">
<rect width="18" height="18" fill="white" transform="translate(0 0.5)"/>
</clipPath>
</defs>
</svg>
