<svg width="32" height="32" viewBox="0 0 32 32" fill="none" xmlns="http://www.w3.org/2000/svg">
<g clip-path="url(#clip0)">
<path d="M31.1603 24.6863L24.6834 20.3669C23.8614 19.8232 22.7597 20.0021 22.152 20.778L20.2653 23.2038C20.0229 23.5235 19.5821 23.6162 19.2314 23.4214L18.8725 23.2235C17.6828 22.5751 16.2025 21.7677 13.22 18.7842C10.2375 15.8006 9.42858 14.3192 8.78011 13.1317L8.58333 12.7728C8.3858 12.4221 8.47678 11.9795 8.79661 11.7351L11.2208 9.84902C11.9964 9.24129 12.1755 8.13983 11.6324 7.31764L7.31308 0.840728C6.75648 0.00347698 5.63977 -0.247861 4.77808 0.270125L2.06967 1.89707C1.21867 2.39737 0.594329 3.20763 0.327556 4.15805C-0.647736 7.71165 0.0859667 13.8446 9.12038 22.8801C16.3071 30.0662 21.6572 31.9987 25.3345 31.9987C26.1808 32.0024 27.0238 31.8922 27.8408 31.6713C28.7915 31.4049 29.6018 30.7805 30.1018 29.9292L31.7304 27.2224C32.2491 26.3606 31.9979 25.2432 31.1603 24.6863ZM30.8115 26.6753L29.1867 29.3837C28.8277 29.9981 28.2449 30.4498 27.5603 30.6443C24.2797 31.545 18.5483 30.799 9.87489 22.1256C1.20149 13.4522 0.455537 7.72127 1.35622 4.44019C1.55094 3.75479 2.00325 3.17119 2.6184 2.81162L5.32681 1.1868C5.7007 0.961835 6.18537 1.07088 6.4269 1.4342L8.77324 4.95687L10.7426 7.91055C10.9784 8.26719 10.9009 8.74518 10.5645 9.00908L8.13977 10.8952C7.40188 11.4594 7.19116 12.4803 7.64547 13.2906L7.838 13.6404C8.51953 14.8903 9.36684 16.4453 12.4603 19.5382C15.5537 22.6311 17.1081 23.4784 18.3575 24.1599L18.7078 24.3529C19.518 24.8072 20.539 24.5965 21.1032 23.8586L22.9893 21.4339C23.2533 21.0977 23.7311 21.0202 24.0878 21.2558L30.5642 25.5752C30.9278 25.8165 31.0368 26.3014 30.8115 26.6753Z" fill="#878787"/>
<path d="M18.1328 5.33612C23.1372 5.34168 27.1926 9.39714 27.1982 14.4015C27.1982 14.696 27.4369 14.9347 27.7314 14.9347C28.0259 14.9347 28.2647 14.696 28.2647 14.4015C28.2585 8.80835 23.726 4.27578 18.1328 4.26965C17.8383 4.26965 17.5996 4.50837 17.5996 4.80289C17.5996 5.09741 17.8383 5.33612 18.1328 5.33612Z" fill="#878787"/>
<path d="M18.1328 8.53558C21.3709 8.53939 23.9948 11.1634 23.9987 14.4014C23.9987 14.6959 24.2374 14.9346 24.5319 14.9346C24.8264 14.9346 25.0651 14.6959 25.0651 14.4014C25.0607 10.5746 21.9596 7.47349 18.1328 7.46912C17.8383 7.46912 17.5996 7.70783 17.5996 8.00235C17.5996 8.29687 17.8383 8.53558 18.1328 8.53558Z" fill="#878787"/>
<path d="M18.1328 11.7352C19.6046 11.7369 20.7973 12.9296 20.7991 14.4015C20.7991 14.696 21.0379 14.9347 21.3324 14.9347C21.6268 14.9347 21.8656 14.696 21.8656 14.4015C21.8632 12.3409 20.1934 10.671 18.1328 10.6687C17.8383 10.6687 17.5996 10.9074 17.5996 11.2019C17.5996 11.4965 17.8383 11.7352 18.1328 11.7352Z" fill="#878787"/>
</g>
<defs>
<clipPath id="clip0">
<rect width="32" height="32" fill="white"/>
</clipPath>
</defs>
</svg>
