<svg width="21" height="28" viewBox="0 0 21 28" fill="none" xmlns="http://www.w3.org/2000/svg">
<g clip-path="url(#clip0)">
<path d="M9.37049 27.4351C1.80288 15.9158 0.398193 14.7335 0.398193 10.5C0.398193 4.70099 4.87533 0 10.3982 0C15.9211 0 20.3982 4.70099 20.3982 10.5C20.3982 14.7335 18.9935 15.9158 11.4259 27.4351C10.9293 28.1883 9.86705 28.1883 9.37049 27.4351ZM10.3982 14.875C12.6994 14.875 14.5649 12.9163 14.5649 10.5C14.5649 8.08374 12.6994 6.125 10.3982 6.125C8.097 6.125 6.23153 8.08374 6.23153 10.5C6.23153 12.9163 8.097 14.875 10.3982 14.875Z" fill="#F4CE5F"/>
</g>
<defs>
<clipPath id="clip0">
<rect width="20" height="28" fill="white" transform="translate(0.398193)"/>
</clipPath>
</defs>
</svg>
