<svg width="18" height="19" viewBox="0 0 18 19" fill="none" xmlns="http://www.w3.org/2000/svg">
<g clip-path="url(#clip0)">
<path d="M17.7553 16.0623L14.2499 12.5575C14.0917 12.3993 13.8772 12.3114 13.6522 12.3114H13.0792C14.0495 11.0704 14.6261 9.50984 14.6261 7.8118C14.6261 3.7727 11.3527 0.5 7.3132 0.5C3.27375 0.5 0 3.7727 0 7.8118C0 11.8509 3.2734 15.1236 7.3132 15.1236C9.01125 15.1236 10.5725 14.547 11.8136 13.5767V14.1498C11.8136 14.3748 11.9014 14.5892 12.0596 14.7474L15.5651 18.2521C15.8955 18.5826 16.4299 18.5826 16.7569 18.2521L17.7518 17.2572C18.0823 16.9268 18.0823 16.3927 17.7553 16.0623ZM7.3132 12.8736C4.51688 12.8736 2.2507 10.6116 2.2507 7.8118C2.2507 5.01582 4.51301 2.75 7.3132 2.75C10.1095 2.75 12.3757 5.01195 12.3757 7.8118C12.3757 10.6078 10.1134 12.8736 7.3132 12.8736Z" fill="white"/>
</g>
<defs>
<clipPath id="clip0">
<rect width="18" height="18" fill="white" transform="translate(0 0.5)"/>
</clipPath>
</defs>
</svg>
