<svg width="52" height="52" viewBox="0 0 52 52" fill="none" xmlns="http://www.w3.org/2000/svg">
<path d="M21.922 31.0781H21.9212C21.3603 31.0781 20.906 31.5327 20.906 32.0937C20.906 32.6543 21.3611 33.1093 21.922 33.1093C22.483 33.1093 22.9377 32.6543 22.9377 32.0937C22.9377 31.5327 22.483 31.0781 21.922 31.0781Z" fill="#F4CE5F"/>
<path d="M20.9067 23.1305C22.5865 23.1305 23.9536 21.7638 23.9536 20.0836C23.9536 18.4039 22.5865 17.0367 20.9067 17.0367C19.2266 17.0367 17.8599 18.4039 17.8599 20.0836C17.8599 21.7638 19.2266 23.1305 20.9067 23.1305ZM20.9067 19.068C21.4665 19.068 21.9224 19.5238 21.9224 20.0836C21.9224 20.6438 21.4665 21.0992 20.9067 21.0992C20.3466 21.0992 19.8911 20.6438 19.8911 20.0836C19.8911 19.5238 20.3466 19.068 20.9067 19.068Z" fill="#F4CE5F"/>
<path d="M5.89261 24.4774V38.1875C5.89261 38.7481 6.34726 39.2031 6.90824 39.2031H34.905C35.4655 39.2031 35.9206 38.7481 35.9206 38.1875V24.4762C36.3118 24.6487 36.7275 24.7344 37.1417 24.7344C38.0788 24.7344 39.004 24.304 39.5995 23.4919C40.5909 22.139 40.2969 20.2316 38.9456 19.2409L34.6645 16.0913V6.09375H35.3199C35.8809 6.09375 36.3356 5.6391 36.3356 5.07812V1.01562C36.3356 0.454651 35.8809 0 35.3199 0H25.1637C24.6027 0 24.1481 0.454651 24.1481 1.01562V5.07812C24.1481 5.6391 24.6027 6.09375 25.1637 6.09375H25.8191V9.58298L22.75 7.3248C21.6848 6.51349 20.1887 6.49921 19.1064 7.29306L14.2588 10.8596C13.8069 11.1921 13.7105 11.8277 14.0426 12.2795C14.3751 12.731 15.011 12.8278 15.4629 12.4958L20.3089 8.92996C20.6692 8.66574 21.1678 8.6709 21.5217 8.94266C21.5273 8.94702 21.5328 8.95099 21.5384 8.95496L37.7436 20.8782C38.1931 21.2079 38.2906 21.8415 37.9614 22.2914C37.6317 22.7409 36.9977 22.8385 36.5494 22.51L21.5086 11.4432C21.1504 11.1798 20.6628 11.1798 20.3046 11.4432L5.26499 22.5088C4.81549 22.8385 4.18152 22.7409 3.85184 22.291C3.52255 21.8415 3.62015 21.2075 4.07123 20.877L8.91806 17.3109C9.36993 16.9784 9.46674 16.3424 9.13428 15.8906C8.80222 15.4391 8.16626 15.3423 7.71439 15.6747L2.86875 19.2397C1.5159 20.2316 1.22193 22.139 2.21375 23.4919C3.07187 24.6626 4.61475 25.0395 5.89261 24.4774ZM26.1793 2.03125H34.3043V4.0625H26.1793V2.03125ZM27.8503 6.09375H32.6333V14.5968L27.8503 11.0775V6.09375ZM15.8283 33.109H11.9864V29.0469H15.8283V33.109ZM17.8595 34.125C17.8595 34.125 17.8595 34.125 17.8595 34.1246C17.8595 34.1246 17.8595 34.1246 17.8595 34.1242V28.032C17.8595 28.0316 17.8595 28.0312 17.8595 28.0312C17.8595 28.0309 17.8595 28.0305 17.8595 28.0301V27.0152H23.9533V37.1715H17.8595V34.125ZM25.9845 29.0469H29.8264V33.109H25.9845V29.0469ZM20.9064 13.5225L33.8893 23.0745V37.1719H25.9845V35.1402H30.8421C31.403 35.1402 31.8577 34.6856 31.8577 34.1246V28.0312C31.8577 27.4703 31.403 27.0156 30.8421 27.0156H25.9845C25.9845 25.8953 25.0736 24.9844 23.9533 24.9844H17.8595C16.7396 24.9844 15.8283 25.8953 15.8283 27.0156H10.9707C10.4098 27.0156 9.95511 27.4703 9.95511 28.0312V34.1246C9.95511 34.6856 10.4098 35.1402 10.9707 35.1402H15.8283V37.1719H7.92386V23.0745L20.9064 13.5225Z" fill="#F4CE5F"/>
<path d="M37.5857 45.6562C37.189 45.2595 36.5459 45.2595 36.1492 45.6562C35.7528 46.0525 35.7528 46.6956 36.1492 47.0923L36.7205 47.6636H34.905C34.3441 47.6636 33.8894 48.1183 33.8894 48.6793C33.8894 49.2402 34.3441 49.6949 34.905 49.6949H36.7205L36.1492 50.2662C35.7528 50.6629 35.7528 51.3056 36.1492 51.7023C36.3475 51.9007 36.6074 51.9999 36.8672 51.9999C37.1275 51.9999 37.3874 51.9007 37.5857 51.7023L39.8907 49.3977C40.287 49.001 40.287 48.3579 39.8907 47.9612L37.5857 45.6562Z" fill="#F4CE5F"/>
<path d="M26.78 47.6636H5.0928L5.6637 47.0923C6.06042 46.696 6.06042 46.0529 5.6637 45.6562C5.26736 45.2598 4.62427 45.2594 4.22754 45.6562L1.92255 47.9612C1.73212 48.1516 1.625 48.4099 1.625 48.6792C1.625 48.9486 1.73212 49.2069 1.92255 49.3973L4.22754 51.7023C4.4259 51.9007 4.68576 51.9998 4.94562 51.9998C5.20547 51.9998 5.46573 51.9007 5.6637 51.7023C6.06042 51.3056 6.06042 50.6625 5.6637 50.2657L5.0928 49.6949H26.78C27.3405 49.6949 27.7956 49.2398 27.7956 48.6792C27.7956 48.1183 27.3405 47.6636 26.78 47.6636Z" fill="#F4CE5F"/>
<path d="M48.6413 35.164L48.07 35.7353V3.46741L48.6413 4.0387C49.038 4.43503 49.6807 4.43503 50.0774 4.0387C50.4742 3.64197 50.4742 2.99887 50.0774 2.60214L47.7724 0.297546C47.3761 -0.0991821 46.733 -0.0991821 46.3363 0.297546L44.0313 2.60254C43.6346 2.99887 43.6346 3.64197 44.0313 4.0387C44.2297 4.23706 44.4895 4.33624 44.7494 4.33624C45.0092 4.33624 45.2691 4.23706 45.4674 4.0387L46.0387 3.46741V35.7353L45.4674 35.164C45.0707 34.7677 44.4276 34.7677 44.0309 35.164C43.6346 35.5608 43.6346 36.2039 44.0309 36.6006L46.3363 38.9056C46.5346 39.1039 46.7945 39.2031 47.0544 39.2031C47.3142 39.2031 47.5741 39.1039 47.7724 38.9056L50.0774 36.6006C50.4738 36.2039 50.4738 35.5608 50.0774 35.164C49.6807 34.7677 49.038 34.7677 48.6413 35.164Z" fill="#F4CE5F"/>
<path d="M11.589 15.101C11.8183 15.101 12.0488 15.0236 12.2384 14.8657L12.2392 14.8654C12.6701 14.5059 12.728 13.866 12.369 13.4351C12.0099 13.0039 11.3692 12.9464 10.9384 13.305C10.5071 13.6645 10.4492 14.3048 10.8082 14.7356C11.009 14.9764 11.2982 15.101 11.589 15.101Z" fill="#F4CE5F"/>
<path d="M30.8429 47.6638H30.8421C30.2812 47.6638 29.8269 48.1184 29.8269 48.6794C29.8269 49.2404 30.282 49.695 30.8429 49.695C31.4035 49.695 31.8586 49.2404 31.8586 48.6794C31.8586 48.1184 31.4035 47.6638 30.8429 47.6638Z" fill="#F4CE5F"/>
</svg>
