<svg width="50" height="50" viewBox="0 0 50 50" fill="none" xmlns="http://www.w3.org/2000/svg">
<path d="M21.0789 29.8828H21.0781C20.5387 29.8828 20.1019 30.32 20.1019 30.8594C20.1019 31.3984 20.5395 31.8359 21.0789 31.8359C21.6183 31.8359 22.0554 31.3984 22.0554 30.8594C22.0554 30.32 21.6183 29.8828 21.0789 29.8828Z" fill="#333333"/>
<path d="M20.1027 22.2408C21.7178 22.2408 23.0324 20.9267 23.0324 19.3112C23.0324 17.696 21.7178 16.3815 20.1027 16.3815C18.4872 16.3815 17.173 17.696 17.173 19.3112C17.173 20.9267 18.4872 22.2408 20.1027 22.2408ZM20.1027 18.3346C20.6409 18.3346 21.0793 18.7729 21.0793 19.3112C21.0793 19.8498 20.6409 20.2877 20.1027 20.2877C19.5641 20.2877 19.1261 19.8498 19.1261 19.3112C19.1261 18.7729 19.5641 18.3346 20.1027 18.3346Z" fill="#333333"/>
<path d="M5.66605 23.5359V36.7188C5.66605 37.2578 6.10321 37.6953 6.64261 37.6953H33.5625C34.1016 37.6953 34.5391 37.2578 34.5391 36.7188V23.5348C34.9152 23.7007 35.315 23.7831 35.7133 23.7831C36.6143 23.7831 37.5039 23.3692 38.0765 22.5883C39.0298 21.2875 38.7471 19.4534 37.4478 18.5009L33.3314 15.4724V5.85938H33.9616C34.501 5.85938 34.9381 5.42221 34.9381 4.88281V0.976562C34.9381 0.437164 34.501 0 33.9616 0H24.1959C23.6565 0 23.2194 0.437164 23.2194 0.976562V4.88281C23.2194 5.42221 23.6565 5.85938 24.1959 5.85938H24.8261V9.2144L21.8751 7.04308C20.8508 6.26297 19.4123 6.24924 18.3717 7.01256L13.7105 10.442C13.276 10.7616 13.1833 11.3728 13.5026 11.8073C13.8223 12.2414 14.4337 12.3344 14.8682 12.0152L19.5279 8.5865C19.8743 8.33244 20.3538 8.3374 20.694 8.59871C20.6994 8.60291 20.7047 8.60672 20.7101 8.61053L36.292 20.0752C36.7242 20.3922 36.818 21.0014 36.5014 21.434C36.1844 21.8662 35.5748 21.9601 35.1437 21.6442L20.6815 11.0031C20.337 10.7498 19.8682 10.7498 19.5237 11.0031L5.06256 21.6431C4.63036 21.9601 4.02077 21.8662 3.70377 21.4336C3.38715 21.0014 3.48099 20.3918 3.91472 20.0741L8.57514 16.6451C9.00963 16.3254 9.10271 15.7139 8.78304 15.2794C8.46375 14.8453 7.85225 14.7522 7.41776 15.0719L2.75849 18.4998C1.45768 19.4534 1.17501 21.2875 2.12868 22.5883C2.9538 23.7141 4.43734 24.0765 5.66605 23.5359ZM25.1725 1.95312H32.985V3.90625H25.1725V1.95312ZM26.7793 5.85938H31.3783V14.0354L26.7793 10.6514V5.85938ZM15.2196 31.8356H11.5254V27.9297H15.2196V31.8356ZM17.1727 32.8125C17.1727 32.8125 17.1727 32.8125 17.1727 32.8121C17.1727 32.8121 17.1727 32.8121 17.1727 32.8117V26.9539C17.1727 26.9535 17.1727 26.9531 17.1727 26.9531C17.1727 26.9527 17.1727 26.9524 17.1727 26.952V25.9762H23.0321V35.7418H17.1727V32.8125ZM24.9852 27.9297H28.6794V31.8356H24.9852V27.9297ZM20.1024 13.0024L32.586 22.187V35.7422H24.9852V33.7887H29.6559C30.1953 33.7887 30.6325 33.3515 30.6325 32.8121V26.9531C30.6325 26.4137 30.1953 25.9766 29.6559 25.9766H24.9852C24.9852 24.8993 24.1093 24.0234 23.0321 24.0234H17.1727C16.0958 24.0234 15.2196 24.8993 15.2196 25.9766H10.5489C10.0095 25.9766 9.5723 26.4137 9.5723 26.9531V32.8121C9.5723 33.3515 10.0095 33.7887 10.5489 33.7887H15.2196V35.7422H7.61917V22.187L20.1024 13.0024Z" fill="#333333"/>
<path d="M36.1401 43.9001C35.7586 43.5186 35.1402 43.5186 34.7588 43.9001C34.3777 44.2812 34.3777 44.8996 34.7588 45.281L35.3081 45.8304H33.5625C33.0231 45.8304 32.5859 46.2675 32.5859 46.8069C32.5859 47.3463 33.0231 47.7835 33.5625 47.7835H35.3081L34.7588 48.3328C34.3777 48.7143 34.3777 49.3322 34.7588 49.7137C34.9495 49.9044 35.1994 49.9998 35.4492 49.9998C35.6995 49.9998 35.9493 49.9044 36.1401 49.7137L38.3564 47.4978C38.7375 47.1163 38.7375 46.4979 38.3564 46.1165L36.1401 43.9001Z" fill="#333333"/>
<path d="M25.75 45.8305H4.89696L5.44589 45.2811C5.82736 44.9 5.82736 44.2817 5.44589 43.9002C5.0648 43.5191 4.44644 43.5187 4.06497 43.9002L1.84863 46.1166C1.66553 46.2997 1.56253 46.548 1.56253 46.807C1.56253 47.066 1.66553 47.3144 1.84863 47.4975L4.06497 49.7138C4.25571 49.9045 4.50557 49.9999 4.75543 49.9999C5.00529 49.9999 5.25554 49.9045 5.44589 49.7138C5.82736 49.3323 5.82736 48.714 5.44589 48.3325L4.89696 47.7836H25.75C26.289 47.7836 26.7266 47.346 26.7266 46.807C26.7266 46.2676 26.289 45.8305 25.75 45.8305Z" fill="#333333"/>
<path d="M46.7705 33.8116L46.2211 34.3609V3.33405L46.7705 3.88336C47.1519 4.26445 47.7699 4.26445 48.1514 3.88336C48.5328 3.50189 48.5328 2.88353 48.1514 2.50206L45.935 0.286102C45.5539 -0.0953674 44.9356 -0.0953674 44.5541 0.286102L42.3378 2.50244C41.9563 2.88353 41.9563 3.50189 42.3378 3.88336C42.5285 4.0741 42.7784 4.16946 43.0282 4.16946C43.2781 4.16946 43.528 4.0741 43.7187 3.88336L44.268 3.33405V34.3609L43.7187 33.8116C43.3372 33.4305 42.7189 33.4305 42.3374 33.8116C41.9563 34.193 41.9563 34.8114 42.3374 35.1929L44.5541 37.4092C44.7448 37.5999 44.9947 37.6953 45.2446 37.6953C45.4944 37.6953 45.7443 37.5999 45.935 37.4092L48.1514 35.1929C48.5325 34.8114 48.5325 34.193 48.1514 33.8116C47.7699 33.4305 47.1519 33.4305 46.7705 33.8116Z" fill="#333333"/>
<path d="M11.1432 14.5202C11.3637 14.5202 11.5853 14.4458 11.7676 14.294L11.7684 14.2936C12.1827 13.948 12.2384 13.3327 11.8931 12.9184C11.5479 12.5037 10.9318 12.4484 10.5176 12.7933C10.1029 13.1389 10.0472 13.7546 10.3924 14.1689C10.5855 14.4004 10.8636 14.5202 11.1432 14.5202Z" fill="#333333"/>
<path d="M29.6566 45.8306H29.6558C29.1164 45.8306 28.6797 46.2677 28.6797 46.8071C28.6797 47.3465 29.1172 47.7837 29.6566 47.7837C30.1956 47.7837 30.6332 47.3465 30.6332 46.8071C30.6332 46.2677 30.1956 45.8306 29.6566 45.8306Z" fill="#333333"/>
</svg>
