<svg width="35" height="35" viewBox="0 0 35 35" fill="none" xmlns="http://www.w3.org/2000/svg">
<path d="M19.3417 17.3604C19.3417 17.2861 19.3288 17.215 19.3192 17.1434L23 15.1021L22.4413 14.1533L18.8061 16.1695C18.5037 15.893 18.0994 15.7208 17.6522 15.7208C17.2208 15.7208 16.8306 15.8831 16.5321 16.1427L10.6623 12L10 12.8837L15.9886 17.1106C15.9757 17.1926 15.9627 17.2746 15.9627 17.3604C15.9627 18.2644 16.7208 19 17.6522 19C18.5837 19 19.3417 18.2644 19.3417 17.3604ZM17.0891 17.3604C17.0891 17.0593 17.3414 16.8139 17.6522 16.8139C17.9631 16.8139 18.2154 17.0593 18.2154 17.3604C18.2154 17.6615 17.9631 17.9069 17.6522 17.9069C17.3414 17.9069 17.0891 17.6615 17.0891 17.3604Z" fill="white" stroke="white" stroke-width="0.2"/>
<path d="M17 6H18V7H17V6Z" fill="white" stroke="white" stroke-width="0.2"/>
<path d="M17 28H18V29H17V28Z" fill="white" stroke="white" stroke-width="0.2"/>
<path d="M6 17H7V18H6V17Z" fill="white" stroke="white" stroke-width="0.2"/>
<path d="M28 17H29V18H28V17Z" fill="white" stroke="white" stroke-width="0.2"/>
<path d="M12 8H13V9H12V8Z" fill="white" stroke="white" stroke-width="0.2"/>
<path d="M8 12H9V13H8V12Z" fill="white" stroke="white" stroke-width="0.2"/>
<path d="M22 8H23V9H22V8Z" fill="white" stroke="white" stroke-width="0.2"/>
<path d="M26 12H27V13H26V12Z" fill="white" stroke="white" stroke-width="0.2"/>
<path d="M12 26H13V27H12V26Z" fill="white" stroke="white" stroke-width="0.2"/>
<path d="M8 22H9V23H8V22Z" fill="white" stroke="white" stroke-width="0.2"/>
<path d="M22 26H23V27H22V26Z" fill="white" stroke="white" stroke-width="0.2"/>
<path d="M26 22H27V23H26V22Z" fill="white" stroke="white" stroke-width="0.2"/>
<path d="M17.5 1C8.40158 1 1 8.40211 1 17.5C1 26.5979 8.40158 34 17.5 34C26.5984 34 34 26.5979 34 17.5C34 8.40211 26.5984 1 17.5 1ZM17.5 32.9355C8.98919 32.9355 2.06452 26.0113 2.06452 17.5C2.06452 8.98866 8.98919 2.06452 17.5 2.06452C26.0108 2.06452 32.9355 8.98866 32.9355 17.5C32.9355 26.0113 26.0108 32.9355 17.5 32.9355Z" fill="white" stroke="white" stroke-width="0.2"/>
<path d="M4.06998 17.4447C4.06998 10.0699 10.0699 4.06998 17.4447 4.06998C17.617 4.06998 17.7887 4.07319 17.9593 4.08014L18 3.0107C17.8154 3.00374 17.6309 3 17.4447 3C9.47978 3 3 9.47978 3 17.4447C3 17.6309 3.00321 17.816 3.0107 18L4.07961 17.9593C4.07319 17.7887 4.06998 17.617 4.06998 17.4447Z" fill="white" stroke="white" stroke-width="0.2"/>
<path d="M9 28.5568C9.19625 28.7122 9.40028 28.8612 9.60644 29L10 28.4102C9.80905 28.2818 9.62023 28.1437 9.43847 28L9 28.5568Z" fill="white" stroke="white" stroke-width="0.2"/>
<path d="M7 27.4748C7.16766 27.6564 7.34407 27.8331 7.52503 28L8 27.486C7.83234 27.3314 7.66923 27.1679 7.51383 27L7 27.4748Z" fill="white" stroke="white" stroke-width="0.2"/>
<path d="M4.76126 21L4 21.2105C4.07549 21.4777 4.16245 21.7434 4.25889 22L5 21.7293C4.91186 21.4922 4.83083 21.2465 4.76126 21Z" fill="white" stroke="white" stroke-width="0.2"/>
<path d="M10 30.2876C10.4514 30.543 10.9176 30.7822 11.3844 31L12 29.66C11.5669 29.4585 11.1352 29.2362 10.7175 29L10 30.2876Z" fill="white" stroke="white" stroke-width="0.2"/>
<path d="M5.34072 23L4 23.6141C4.21927 24.0846 4.45847 24.5508 4.71244 25L6 24.2825C5.76449 23.867 5.54374 23.4353 5.34072 23Z" fill="white" stroke="white" stroke-width="0.2"/>
<path d="M15 31.856C15.2954 31.9153 15.5981 31.9638 15.8995 32L16 31.1331C15.7209 31.0995 15.4401 31.055 15.167 31L15 31.856Z" fill="white" stroke="white" stroke-width="0.2"/>
<path d="M13 30.7412C13.2574 30.8376 13.523 30.9245 13.7887 31L14 30.2394C13.7547 30.1695 13.509 30.0889 13.2711 30L13 30.7412Z" fill="white" stroke="white" stroke-width="0.2"/>
<path d="M3.86725 19L3 19.0989C3.03537 19.4003 3.08341 19.7034 3.14279 20L4 19.8336C3.94498 19.5593 3.9 19.279 3.86725 19Z" fill="white" stroke="white" stroke-width="0.2"/>
<path d="M6.58978 25L6 25.393C6.1384 25.5996 6.28779 25.804 6.44287 26L7 25.5617C6.85593 25.3803 6.71788 25.191 6.58978 25Z" fill="white" stroke="white" stroke-width="0.2"/>
<path d="M31.9893 17L30.9204 17.0407C30.9268 17.2113 30.93 17.3831 30.93 17.5553C30.93 24.9301 24.9301 30.93 17.5553 30.93C17.3831 30.93 17.2113 30.9268 17.0407 30.9199L17 31.9893C17.1846 31.9963 17.3691 32 17.5553 32C25.5202 32 32 25.5202 32 17.5553C32 17.3691 31.9968 17.184 31.9893 17Z" fill="white" stroke="white" stroke-width="0.2"/>
<path d="M30.2387 14L31 13.7895C30.9245 13.5223 30.8375 13.2566 30.7411 13L30 13.2707C30.0881 13.5078 30.1692 13.7535 30.2387 14Z" fill="white" stroke="white" stroke-width="0.2"/>
<path d="M31.1328 16L32 15.9011C31.9646 15.5997 31.9166 15.2966 31.8572 15L31 15.1664C31.055 15.4407 31.1 15.721 31.1328 16Z" fill="white" stroke="white" stroke-width="0.2"/>
<path d="M28.4102 10L29 9.607C28.8616 9.40042 28.7122 9.19597 28.5571 9L28 9.43827C28.1441 9.61974 28.2821 9.80898 28.4102 10Z" fill="white" stroke="white" stroke-width="0.2"/>
<path d="M29.6593 12L31 11.3859C30.7807 10.9154 30.5415 10.4492 30.2876 10L29 10.7175C29.2355 11.133 29.4563 11.5647 29.6593 12Z" fill="white" stroke="white" stroke-width="0.2"/>
<path d="M20 3.14404C19.7046 3.08468 19.4019 3.03623 19.1005 3L19 3.86687C19.2791 3.90048 19.5599 3.945 19.833 4L20 3.14404Z" fill="white" stroke="white" stroke-width="0.2"/>
<path d="M22 4.25879C21.7426 4.16239 21.477 4.07546 21.2113 4L21 4.76057C21.2453 4.8305 21.491 4.9111 21.7289 5L22 4.25879Z" fill="white" stroke="white" stroke-width="0.2"/>
<path d="M26 6.44322C25.8037 6.28779 25.5997 6.13875 25.3936 6L25 6.58978C25.1909 6.71824 25.3798 6.85628 25.5615 7L26 6.44322Z" fill="white" stroke="white" stroke-width="0.2"/>
<path d="M28 7.52519C27.8323 7.3436 27.6559 7.1669 27.475 7L27 7.514C27.1677 7.66865 27.3308 7.83205 27.4862 8L28 7.52519Z" fill="white" stroke="white" stroke-width="0.2"/>
<path d="M25 4.71244C24.5486 4.45699 24.0824 4.21779 23.6156 4L23 5.33998C23.4331 5.54153 23.8648 5.76375 24.2825 6L25 4.71244Z" fill="white" stroke="white" stroke-width="0.2"/>
</svg>
