<svg width="120" height="112" viewBox="0 0 120 112" fill="none" xmlns="http://www.w3.org/2000/svg">
<g clip-path="url(#clip0)">
<path d="M50.8 23.8C52.3 24.9 53.7 25.8 54.6 26.4C56.5 27.6 56.8 27.7 57.5 27.7C58.2 27.7 58.5 27.5 60.4 26.4C61.3 25.8 62.7 24.9 64.2 23.8C68.3 20.9 70.7 18.5 71.8 16.3C73.1 13.7 73.5 10.8 72.9 7.99998C72.3 5.19998 70.8 2.89998 68.7 1.49998C66.6 0.0999762 64.1 -0.400024 61.6 0.199976C59.8 0.599976 58.6 1.49998 57.5 2.59998C56.4 1.49998 55.3 0.599976 53.4 0.199976C50.8 -0.400024 48.4 -2.38419e-05 46.3 1.49998C44.2 2.89998 42.7 5.29998 42.1 7.99998C41.5 10.8 41.9 13.7 43.2 16.3C44.3 18.5 46.8 20.9 50.8 23.8ZM46.7 9.09998C47 7.49998 47.8 6.19998 49 5.49998C49.7 4.99998 50.5 4.79998 51.3 4.79998C51.7 4.79998 52 4.79998 52.4 4.89998C53.3 5.09998 53.7 5.49998 55 6.89998C55.3 7.19998 55.5 7.49998 55.9 7.79998C56.3 8.29998 56.9 8.49998 57.6 8.49998C58.2 8.49998 58.8 8.19998 59.3 7.79998C59.6 7.49998 59.9 7.19998 60.2 6.89998C61.5 5.49998 61.9 5.09998 62.8 4.89998C64.1 4.59998 65.2 4.79998 66.2 5.49998C67.3 6.29998 68.1 7.59998 68.5 9.09998C68.9 10.8 68.6 12.7 67.8 14.3C66.5 16.9 60.4 21 57.7 22.7C55 21 48.9 16.9 47.6 14.3C46.6 12.6 46.4 10.8 46.7 9.09998Z" fill="#333333"/>
<path d="M36.7 73.9C36.8 74 36.8 74.2 36.9 74.3C37 74.4 37.1 74.5 37.2 74.7C37.3 74.8 37.4 74.9 37.6 75C37.7 75.1 37.9 75.2 38 75.2C38.1 75.3 38.3 75.3 38.4 75.3C38.6 75.3 38.7 75.3 38.9 75.3C39.1 75.3 39.2 75.3 39.4 75.3C39.6 75.3 39.7 75.2 39.8 75.2C39.9 75.1 40.1 75.1 40.2 75C40.3 74.9 40.4 74.8 40.6 74.7C40.7 74.6 40.8 74.5 40.9 74.3C41 74.2 41.1 74 41.1 73.9C41.2 73.8 41.2 73.6 41.2 73.5C41.2 73.3 41.2 73.2 41.2 73C41.2 72.4 40.9 71.8 40.5 71.3C40.4 71.2 40.3 71.1 40.1 71C40 70.9 39.8 70.8 39.7 70.8C39.6 70.7 39.4 70.7 39.3 70.7C39 70.6 38.7 70.6 38.4 70.7C38.2 70.7 38.1 70.8 38 70.8C37.9 70.9 37.7 70.9 37.6 71C37.5 71.1 37.4 71.2 37.2 71.3C36.8 71.7 36.5 72.3 36.5 73C36.5 73.2 36.5 73.3 36.5 73.5C36.6 73.6 36.6 73.8 36.7 73.9Z" fill="#333333"/>
<path d="M2.3 90.4H18C19.3 90.4 20.3 89.3 20.3 88.1V82.4H23.7C24.1 83.3 24.7 85.5 25.5 90.3C27.9 104 36.2 111.6 49 111.6H110C112.7 111.6 115.2 110.5 117.1 108.6C119 106.7 120 104.1 119.9 101.4C119.8 96.1 115.2 91.7 109.8 91.7H109.1H104.4H91H86.3H86C85.9 91.5 85.9 91.2 85.8 91C85.7 90.8 85.7 90.6 85.6 90.4C85 88.9 84.2 87.7 83.5 87C83.4 86.9 83.4 86.9 83.3 86.8L83.2 86.7C83 86.5 82.8 86.3 82.6 86.2L54.1 61.3L46.1 55.4C38.4 52.1 27.2 52.3 20.4 52.9V50.7C20.4 49.4 19.4 48.4 18.1 48.4H2.3C1 48.3 0 49.3 0 50.6V88.1C0 89.4 1 90.4 2.3 90.4ZM20.4 57.6C27.2 57 41.8 56.5 47.5 61.8L79.5 89.8C79.5 89.8 79.5 89.8 79.6 89.9C81.9 91.7 82.2 95 80.4 97.3C79.5 98.4 78.3 99.1 76.9 99.2C75.5 99.4 74.1 99 73.1 98.1L46.3 76.3C45.3 75.5 43.8 75.6 43 76.6C42.2 77.6 42.3 79.1 43.3 79.9L70.1 101.7C71.9 103.1 74 103.9 76.3 103.9C76.7 103.9 77 103.9 77.4 103.8C80 103.5 82.4 102.2 84.1 100.1C85 99 85.6 97.7 86 96.4H109.9C112.8 96.4 115.2 98.7 115.3 101.5C115.3 102.9 114.8 104.3 113.8 105.3C112.8 106.3 111.5 106.9 110 106.9H49C35.9 106.9 31.5 97.4 30.2 89.5C29.6 86.3 29.1 83.7 28.5 81.9C28 80.4 27.2 77.7 24.8 77.7H20.3V57.6H20.4ZM4.7 53H15.7V85.8H4.7V53Z" fill="#333333"/>
<path d="M109.8 64.5C110.2 64.7999 110.7 65 111.2 65C111.6 65 111.9 64.8999 112.3 64.6999C113.1 64.2999 113.6 63.5 113.6 62.5999V50.9C113.6 50.2 113.2 49.4 112.6 49L81.2 25.9C80.4 25.3 79.2 25.3 78.4 25.9L64.3 36.3V32.7C64.3 31.4 63.2 30.4 62 30.4H53.1C51.8 30.4 50.8 31.5 50.8 32.7V46.3L47 49C46.4 49.4 46 50.1 46 50.9V55.4L54 61.2999L79.7 42.4L104.4 60.5999V91.7H109.1V64.0999L109.8 64.5ZM55.5 35H59.7V39.7L55.5 42.8V35ZM108.9 58L81.2 37.5999C80.8 37.2999 80.3 37.0999 79.8 37.0999C79.3 37.0999 78.8 37.2999 78.4 37.5999L50.8 57.9V52.1L79.9 30.7L109 52.1V58H108.9Z" fill="#F4CE5F"/>
<path d="M85.9 91C85.8 90.8 85.8 90.6 85.7 90.4C85.7 90.6 85.8 90.8 85.9 91Z" fill="white"/>
<path d="M88.7 65.7999H71C69.7 65.7999 68.7 66.8999 68.7 68.0999V73.9999L54.1 61.2999L82.6 86.1999L73.3 78.0999V70.4999H86.3V91.6999H91V68.0999C91 66.7999 90 65.7999 88.7 65.7999Z" fill="#F4CE5F"/>
<path d="M83.2 86.7L83.3 86.8C83.3 86.8 83.3 86.8 83.2 86.7Z" fill="white"/>
<path d="M85.7 90.4C85.2 89.2 84.5 88 83.6 87C84.2 87.8 85.1 88.9 85.7 90.4Z" fill="white"/>
</g>
<defs>
<clipPath id="clip0">
<rect width="120" height="111.6" fill="white"/>
</clipPath>
</defs>
</svg>
