<svg width="130" height="120" viewBox="0 0 130 120" fill="none" xmlns="http://www.w3.org/2000/svg">
<g clip-path="url(#clip0)">
<path d="M54.6237 25.5914C56.2366 26.7742 57.7419 27.742 58.7097 28.3871C60.7527 29.6775 61.0753 29.785 61.828 29.785C62.5806 29.785 62.9032 29.5699 64.9462 28.3871C65.914 27.742 67.4194 26.7742 69.0323 25.5914C73.4409 22.4732 76.0215 19.8925 77.2043 17.5269C78.6022 14.7312 79.0323 11.6129 78.3871 8.60219C77.7419 5.59144 76.129 3.11832 73.871 1.61294C71.6129 0.107568 68.9247 -0.430066 66.2366 0.215095C64.3011 0.645203 63.0108 1.61294 61.828 2.79574C60.6452 1.61294 59.4624 0.645203 57.4194 0.215095C54.6237 -0.430066 52.043 4.13086e-05 49.7849 1.61294C47.5269 3.11832 45.914 5.69897 45.2688 8.60219C44.6237 11.6129 45.0538 14.7312 46.4516 17.5269C47.6344 19.8925 50.3226 22.4732 54.6237 25.5914ZM50.2151 9.78499C50.5376 8.06456 51.3979 6.66671 52.6882 5.91402C53.4409 5.37639 54.3011 5.16133 55.1613 5.16133C55.5914 5.16133 55.914 5.16133 56.3441 5.26886C57.3118 5.48391 57.7419 5.91402 59.1398 7.4194C59.4624 7.74198 59.6774 8.06456 60.1075 8.38714C60.5376 8.92477 61.1828 9.13983 61.9355 9.13983C62.5806 9.13983 63.2258 8.81725 63.7634 8.38714C64.086 8.06456 64.4086 7.74198 64.7312 7.4194C66.129 5.91402 66.5591 5.48391 67.5269 5.26886C68.9247 4.94628 70.1075 5.16133 71.1828 5.91402C72.3656 6.77424 73.2258 8.17209 73.6559 9.78499C74.086 11.6129 73.7634 13.656 72.9032 15.3764C71.5054 18.1721 64.9462 22.5807 62.043 24.4086C59.1398 22.5807 52.5806 18.1721 51.1828 15.3764C50.1075 13.5484 49.8925 11.6129 50.2151 9.78499Z" fill="#333333"/>
<path d="M39.4624 79.4624C39.5699 79.5699 39.5699 79.785 39.6774 79.8925C39.785 80.0001 39.8925 80.1076 40 80.3226C40.1075 80.4302 40.2151 80.5377 40.4301 80.6452C40.5376 80.7527 40.7527 80.8603 40.8602 80.8603C40.9677 80.9678 41.1828 80.9678 41.2903 80.9678C41.5054 80.9678 41.6129 80.9678 41.828 80.9678C42.043 80.9678 42.1505 80.9678 42.3656 80.9678C42.5806 80.9678 42.6882 80.8603 42.7957 80.8603C42.9032 80.7527 43.1183 80.7527 43.2258 80.6452C43.3333 80.5377 43.4409 80.4302 43.6559 80.3226C43.7634 80.2151 43.871 80.1076 43.9785 79.8925C44.086 79.785 44.1935 79.5699 44.1935 79.4624C44.3011 79.3549 44.3011 79.1398 44.3011 79.0323C44.3011 78.8173 44.3011 78.7097 44.3011 78.4947C44.3011 77.8495 43.9785 77.2044 43.5484 76.6667C43.4409 76.5592 43.3333 76.4517 43.1183 76.3441C43.0108 76.2366 42.7957 76.1291 42.6882 76.1291C42.5806 76.0216 42.3656 76.0216 42.2581 76.0216C41.9355 75.914 41.6129 75.914 41.2903 76.0216C41.0753 76.0216 40.9677 76.1291 40.8602 76.1291C40.7527 76.2366 40.5376 76.2366 40.4301 76.3441C40.3226 76.4517 40.2151 76.5592 40 76.6667C39.5699 77.0968 39.2473 77.742 39.2473 78.4947C39.2473 78.7097 39.2473 78.8173 39.2473 79.0323C39.3548 79.1398 39.3548 79.3549 39.4624 79.4624Z" fill="#333333"/>
<path d="M2.47312 97.2043H19.3548C20.7527 97.2043 21.828 96.0215 21.828 94.7312V88.6022H25.4839C25.914 89.5699 26.5591 91.9355 27.4194 97.0968C30 111.828 38.9247 120 52.6882 120H118.28C121.183 120 123.871 118.817 125.914 116.774C127.957 114.731 129.032 111.936 128.925 109.032C128.817 103.333 123.871 98.6022 118.065 98.6022H117.312H112.258H97.8495H92.7957H92.4731C92.3656 98.3871 92.3656 98.0646 92.2581 97.8495C92.1505 97.6345 92.1505 97.4194 92.043 97.2043C91.3979 95.5914 90.5376 94.3011 89.785 93.5484C89.6774 93.4409 89.6774 93.4409 89.5699 93.3334L89.4624 93.2258C89.2473 93.0108 89.0323 92.7957 88.8172 92.6882L58.172 65.914L49.5699 59.5699C41.2903 56.0216 29.2473 56.2366 21.9355 56.8818V54.5162C21.9355 53.1183 20.8602 52.0431 19.4624 52.0431H2.47312C1.07527 51.9355 0 53.0108 0 54.4086V94.7312C0 96.1291 1.07527 97.2043 2.47312 97.2043ZM21.9355 61.9355C29.2473 61.2904 44.9462 60.7527 51.0753 66.4517L85.4839 96.5592C85.4839 96.5592 85.4839 96.5592 85.5914 96.6667C88.0645 98.6022 88.3871 102.151 86.4516 104.624C85.4839 105.806 84.1936 106.559 82.6882 106.667C81.1828 106.882 79.6774 106.452 78.6022 105.484L49.7849 82.0431C48.7097 81.1828 47.0968 81.2904 46.2366 82.3656C45.3763 83.4409 45.4839 85.0538 46.5591 85.914L75.3763 109.355C77.3118 110.86 79.5699 111.72 82.043 111.72C82.4731 111.72 82.7957 111.72 83.2258 111.613C86.0215 111.29 88.6022 109.893 90.4301 107.634C91.3979 106.452 92.043 105.054 92.4731 103.656H118.172C121.29 103.656 123.871 106.129 123.979 109.14C123.979 110.645 123.441 112.151 122.366 113.226C121.29 114.301 119.892 114.946 118.28 114.946H52.6882C38.6022 114.946 33.871 104.731 32.4731 96.2366C31.828 92.7957 31.2903 90 30.6452 88.0646C30.1075 86.4517 29.2473 83.5484 26.6667 83.5484H21.828V61.9355H21.9355ZM5.05376 56.9893H16.8817V92.2581H5.05376V56.9893V56.9893Z" fill="#333333"/>
<path d="M118.065 69.3548C118.495 69.6774 119.032 69.8925 119.57 69.8925C120 69.8925 120.323 69.785 120.753 69.5699C121.613 69.1398 122.151 68.2796 122.151 67.3118V54.7312C122.151 53.9785 121.72 53.1183 121.075 52.6882L87.3118 27.8495C86.4516 27.2043 85.1613 27.2043 84.3011 27.8495L69.1398 39.0323V35.1613C69.1398 33.7635 67.957 32.6882 66.6667 32.6882H57.0968C55.6989 32.6882 54.6237 33.871 54.6237 35.1613V49.785L50.5376 52.6882C49.8925 53.1183 49.4624 53.871 49.4624 54.7312V59.5699L58.0645 65.914L85.6989 45.5914L112.258 65.1613V98.6022H117.312V68.9247L118.065 69.3548ZM59.6774 37.6344H64.1936V42.6882L59.6774 46.0215V37.6344ZM117.097 62.3656L87.3118 40.4301C86.8817 40.1075 86.3441 39.8925 85.8065 39.8925C85.2688 39.8925 84.7312 40.1075 84.3011 40.4301L54.6237 62.2581V56.0215L85.914 33.0108L117.204 56.0215V62.3656H117.097Z" fill="#F4CE5F"/>
<path d="M92.3656 97.8495C92.2581 97.6344 92.2581 97.4194 92.1505 97.2043C92.1505 97.4194 92.2581 97.6344 92.3656 97.8495Z" fill="white"/>
<path d="M95.3764 70.7528H76.3441C74.9463 70.7528 73.871 71.9356 73.871 73.2259V79.57L58.1721 65.9141L88.8172 92.6882L78.8172 83.9786V75.8065H92.7957V98.6022H97.8495V73.2259C97.8495 71.828 96.7742 70.7528 95.3764 70.7528Z" fill="#F4CE5F"/>
<path d="M89.4624 93.2258L89.5699 93.3334C89.5699 93.3334 89.5699 93.3334 89.4624 93.2258Z" fill="white"/>
<path d="M92.1505 97.2044C91.6129 95.9141 90.8602 94.6237 89.8925 93.5485C90.5376 94.4087 91.5054 95.5915 92.1505 97.2044Z" fill="white"/>
</g>
<defs>
<clipPath id="clip0">
<rect width="129.032" height="120" fill="white"/>
</clipPath>
</defs>
</svg>
