<svg width="120" height="120" viewBox="0 0 120 120" fill="none" xmlns="http://www.w3.org/2000/svg">
<path d="M60 76.875C53.6957 76.875 47.533 75.0056 42.2912 71.5031C37.0494 68.0006 32.9639 63.0224 30.5513 57.1981C28.1388 51.3737 27.5076 44.9647 28.7375 38.7815C29.9674 32.5984 33.0032 26.9188 37.461 22.461C41.9188 18.0032 47.5984 14.9674 53.7815 13.7375C59.9646 12.5076 66.3736 13.1388 72.198 15.5514C78.0224 17.9639 83.0006 22.0494 86.5031 27.2912C90.0056 32.533 91.875 38.6957 91.875 45C91.8656 53.4509 88.5043 61.553 82.5286 67.5286C76.5529 73.5043 68.4509 76.8656 60 76.875ZM60 16.875C54.4374 16.875 48.9997 18.5245 44.3746 21.6149C39.7495 24.7053 36.1446 29.0979 34.0159 34.237C31.8872 39.3762 31.3302 45.0312 32.4154 50.4869C33.5006 55.9426 36.1793 60.954 40.1126 64.8874C44.046 68.8207 49.0574 71.4994 54.5131 72.5846C59.9688 73.6698 65.6238 73.1128 70.763 70.9841C75.9021 68.8554 80.2947 65.2506 83.3851 60.6254C86.4755 56.0003 88.125 50.5626 88.125 45C88.1166 37.5434 85.1507 30.3946 79.8781 25.122C74.6054 19.8493 67.4566 16.8835 60 16.875Z" fill="#333333"/>
<path d="M60 43.125C58.8875 43.125 57.7999 42.7951 56.8749 42.177C55.9499 41.5589 55.2289 40.6804 54.8032 39.6526C54.3774 38.6248 54.266 37.4938 54.4831 36.4026C54.7001 35.3115 55.2359 34.3092 56.0225 33.5225C56.8092 32.7359 57.8115 32.2001 58.9026 31.9831C59.9938 31.766 61.1248 31.8774 62.1526 32.3032C63.1804 32.7289 64.0589 33.4499 64.677 34.3749C65.2951 35.2999 65.625 36.3875 65.625 37.5C65.625 38.9918 65.0324 40.4226 63.9775 41.4775C62.9226 42.5324 61.4918 43.125 60 43.125ZM60 35.625C59.6292 35.625 59.2666 35.735 58.9583 35.941C58.65 36.147 58.4096 36.4399 58.2677 36.7825C58.1258 37.1251 58.0887 37.5021 58.161 37.8658C58.2334 38.2295 58.4119 38.5636 58.6742 38.8258C58.9364 39.0881 59.2705 39.2666 59.6342 39.339C59.9979 39.4113 60.3749 39.3742 60.7175 39.2323C61.0601 39.0904 61.353 38.85 61.559 38.5417C61.765 38.2334 61.875 37.8708 61.875 37.5C61.875 37.0027 61.6775 36.5258 61.3258 36.1742C60.9742 35.8225 60.4973 35.625 60 35.625Z" fill="#F4CE5F"/>
<path d="M83.7094 39.8156L61.4513 21.0656C61.1157 20.7834 60.6918 20.6277 60.2533 20.6256C59.8148 20.6236 59.3895 20.7753 59.0513 21.0543L36.3075 39.8043C36.01 40.0501 35.7955 40.3816 35.6934 40.7538C35.5913 41.1259 35.6065 41.5205 35.7369 41.8837C35.8673 42.2468 36.1066 42.5609 36.4222 42.7831C36.7377 43.0052 37.1141 43.1246 37.5 43.1249H41.25V58.1249H39.375C38.8777 58.1249 38.4008 58.3225 38.0492 58.6741C37.6975 59.0257 37.5 59.5026 37.5 59.9999C37.5 60.4972 37.6975 60.9741 38.0492 61.3258C38.4008 61.6774 38.8777 61.8749 39.375 61.8749H80.625C81.1223 61.8749 81.5992 61.6774 81.9508 61.3258C82.3025 60.9741 82.5 60.4972 82.5 59.9999C82.5 59.5026 82.3025 59.0257 81.9508 58.6741C81.5992 58.3225 81.1223 58.1249 80.625 58.1249H78.75V43.1249H82.5C82.8847 43.1253 83.2602 43.0073 83.5755 42.7871C83.8909 42.5668 84.1309 42.2548 84.2629 41.8935C84.395 41.5322 84.4127 41.139 84.3136 40.7673C84.2146 40.3956 84.0037 40.0633 83.7094 39.8156ZM56.25 58.1249V52.4999C56.25 52.0026 56.4475 51.5257 56.7992 51.1741C57.1508 50.8225 57.6277 50.6249 58.125 50.6249H61.875C62.3723 50.6249 62.8492 50.8225 63.2008 51.1741C63.5525 51.5257 63.75 52.0026 63.75 52.4999V58.1249H56.25ZM67.5 58.1249V52.4999C67.5 51.0081 66.9074 49.5773 65.8525 48.5225C64.7976 47.4676 63.3668 46.8749 61.875 46.8749H58.125C56.6332 46.8749 55.2024 47.4676 54.1475 48.5225C53.0926 49.5773 52.5 51.0081 52.5 52.4999V58.1249H45V41.2499C45 40.7526 44.8025 40.2757 44.4508 39.9241C44.0992 39.5725 43.6223 39.3749 43.125 39.3749H42.7219L60.2306 24.9374L77.3644 39.3749H76.875C76.3777 39.3749 75.9008 39.5725 75.5492 39.9241C75.1976 40.2757 75 40.7526 75 41.2499V58.1249H67.5Z" fill="#F4CE5F"/>
<path d="M73.6688 94.5338C85.4062 80.6756 101.25 59.3213 101.25 45C101.25 34.0598 96.904 23.5677 89.1682 15.8318C81.4323 8.09597 70.9402 3.75 60 3.75C49.0598 3.75 38.5677 8.09597 30.8318 15.8318C23.096 23.5677 18.75 34.0598 18.75 45C18.75 59.3213 34.5937 80.6756 46.3312 94.5338C38.3887 95.52 24.375 98.2219 24.375 105C24.375 112.386 42.2981 116.25 60 116.25C77.7019 116.25 95.625 112.386 95.625 105C95.625 98.2219 81.6113 95.52 73.6688 94.5338ZM60 7.5C69.9421 7.51141 79.4738 11.466 86.5039 18.4961C93.534 25.5262 97.4886 35.0579 97.5 45C97.5 63.5137 66.8363 96.9375 60 104.166C53.1619 96.9375 22.5 63.5213 22.5 45C22.5114 35.0579 26.466 25.5262 33.4961 18.4961C40.5262 11.466 50.0579 7.51141 60 7.5ZM60 112.5C39.375 112.5 28.125 107.544 28.125 105C28.125 103.228 34.3687 99.4181 49.2994 97.9837C54.3619 103.785 58.1719 107.689 58.6612 108.188C58.8358 108.366 59.0441 108.507 59.274 108.603C59.5039 108.7 59.7507 108.75 60 108.75C60.2493 108.75 60.4961 108.7 60.726 108.603C60.9559 108.507 61.1642 108.366 61.3388 108.188C61.8281 107.689 65.6325 103.785 70.7006 97.9837C85.6312 99.4181 91.875 103.228 91.875 105C91.875 107.544 80.625 112.5 60 112.5Z" fill="#333333"/>
</svg>
