<svg width="35" height="35" viewBox="0 0 35 35" fill="none" xmlns="http://www.w3.org/2000/svg">
<g clip-path="url(#clip0)">
<path d="M17.4997 34.8598H17.4928C14.7621 34.8587 12.0547 34.2141 9.62852 32.9911L2.14957 34.6924C1.69322 34.796 1.21524 34.659 0.883057 34.3292C0.550873 33.9994 0.410683 33.5225 0.511085 33.0654L2.13168 25.6991C0.739395 23.1279 0.00426483 20.3118 0.000259399 17.5195C-7.62939e-06 17.5099 -7.62939e-06 17.5003 -7.62939e-06 17.4909C0.00186158 12.8636 1.83181 8.50567 5.15231 5.22015C8.46534 1.9421 12.8502 0.136719 17.4995 0.136719C22.1591 0.138588 26.537 1.94557 29.8282 5.22442C33.165 8.54893 35.0016 12.9103 35 17.5048C34.9987 20.977 33.9575 24.3327 31.9892 27.2089C31.5628 27.8321 30.712 27.9916 30.0888 27.5651C29.4658 27.1387 29.3061 26.2879 29.7326 25.6647C31.3884 23.2449 32.2643 20.4229 32.2656 17.5037C32.267 13.6417 30.716 9.96872 27.8984 7.16145C25.1231 4.39636 21.4299 2.8727 17.4989 2.87109C9.36977 2.87109 2.75146 9.41597 2.73437 17.4664C2.73437 17.4752 2.73463 17.4837 2.73463 17.4923C2.73357 19.9842 3.43452 22.5108 4.76138 24.799C4.93308 25.0951 4.98756 25.4446 4.91386 25.7787L3.64467 31.5479L9.51263 30.213C9.83653 30.1395 10.1762 30.1863 10.4683 30.3446C12.6123 31.5086 15.0415 32.1244 17.4933 32.1254H17.4995C20.1657 32.1254 22.7842 31.4045 25.0716 30.0407C25.7199 29.6538 26.5592 29.8661 26.9459 30.5147C27.3325 31.1633 27.1205 32.0023 26.4719 32.3893C23.7613 34.0053 20.6587 34.8598 17.4995 34.8598H17.4997ZM13.6385 10.5423C13.3386 9.87793 13.023 9.85523 12.7378 9.84375H11.9706C11.7036 9.84375 11.2699 9.94362 10.9033 10.3428C10.5364 10.742 9.50221 11.7071 9.50221 13.67C9.50221 15.6329 10.9367 17.5299 11.1367 17.7964C11.337 18.0624 13.9061 22.2192 17.9745 23.8184C21.3559 25.1474 22.044 24.8831 22.7778 24.8163C23.5119 24.7501 25.1464 23.8515 25.4796 22.9199C25.8134 21.9885 25.8134 21.1901 25.7133 21.0232C25.6134 20.8571 25.3464 20.7572 24.9461 20.5577C24.5455 20.3583 22.5837 19.3764 22.2168 19.2434C21.8499 19.1105 21.5831 19.044 21.3161 19.4434C21.0491 19.8424 20.2629 20.765 20.0293 21.0309C19.7959 21.2977 19.5623 21.3308 19.162 21.1313C18.7617 20.9311 17.4856 20.5025 15.9563 19.1436C14.7662 18.0859 13.9405 16.7374 13.7068 16.3379C13.4732 15.9389 13.6817 15.7227 13.8826 15.5237C14.0623 15.3451 14.3055 15.1007 14.5058 14.8679C14.7055 14.635 14.7627 14.4687 14.8959 14.2025C15.0294 13.9362 14.9627 13.7034 14.8628 13.5036C14.7627 13.3042 13.9942 11.3311 13.6382 10.5423" fill="white"/>
</g>
<defs>
<clipPath id="clip0">
<rect width="35" height="35" fill="white"/>
</clipPath>
</defs>
</svg>
