<svg width="51" height="50" viewBox="0 0 51 50" fill="none" xmlns="http://www.w3.org/2000/svg">
<g clip-path="url(#clip0)">
<path d="M26.4107 12.1553C19.5507 12.1553 13.9717 17.732 13.9686 24.587C13.9679 26.9361 14.6255 29.2238 15.8703 31.2032L16.1659 31.6736L14.9093 36.2615L19.6163 35.0271L20.0706 35.2964C21.9799 36.4293 24.1688 37.0286 26.4004 37.0294H26.4053C33.2599 37.0294 38.8389 31.4523 38.842 24.5969C38.8431 21.2747 37.5507 18.1512 35.2028 15.8014C32.8548 13.4515 29.7321 12.1564 26.4107 12.1553ZM33.7257 29.9321C33.4141 30.8049 31.9206 31.6018 31.2023 31.7094C30.558 31.8055 29.7432 31.8456 28.8475 31.5614C28.3043 31.389 27.6081 31.159 26.7158 30.774C22.9656 29.1551 20.5162 25.3801 20.3293 25.1306C20.1423 24.8811 18.8026 23.1038 18.8026 21.264C18.8026 19.4246 19.7685 18.5201 20.1111 18.1463C20.454 17.772 20.8591 17.6786 21.1082 17.6786C21.3573 17.6786 21.6068 17.6809 21.8246 17.6915C22.0543 17.703 22.3625 17.6042 22.6658 18.3332C22.9774 19.0816 23.7251 20.9211 23.8186 21.108C23.912 21.2953 23.9742 21.5135 23.8498 21.763C23.7251 22.0125 23.1369 22.7639 22.9152 23.0413C22.7501 23.2473 22.533 23.43 22.7512 23.8042C22.969 24.1781 23.7198 25.4022 24.831 26.3932C26.2592 27.6666 27.4639 28.061 27.8377 28.2483C28.2112 28.4353 28.4294 28.404 28.6476 28.1549C28.8654 27.9054 29.5822 27.0635 29.8313 26.6893C30.0804 26.315 30.3299 26.3776 30.6724 26.5023C31.0154 26.6267 32.8533 27.5312 33.2271 27.7181C33.601 27.9054 33.8501 27.9989 33.9435 28.1549C34.0374 28.3109 34.0374 29.059 33.7257 29.9321Z" fill="#F4CE5F"/>
<path d="M47.2698 0H4.48189C2.49023 0 0.875854 1.61438 0.875854 3.60603V46.394C0.875854 48.3856 2.49023 50 4.48189 50H47.2698C49.2615 50 50.8759 48.3856 50.8759 46.394V3.60603C50.8759 1.61438 49.2615 0 47.2698 0V0ZM26.4057 39.5557C26.4053 39.5557 26.4061 39.5557 26.4057 39.5557H26.3996C23.8953 39.5546 21.4344 38.9267 19.249 37.735L11.3171 39.8151L13.4399 32.0637C12.1304 29.7955 11.4414 27.2221 11.4426 24.5857C11.446 16.3383 18.1583 9.62868 26.4057 9.62868C30.4081 9.6302 34.1652 11.1881 36.99 14.0152C39.8151 16.8427 41.37 20.6009 41.3685 24.5975C41.3651 32.8453 34.6519 39.5557 26.4057 39.5557Z" fill="#F4CE5F"/>
</g>
<defs>
<clipPath id="clip0">
<rect width="50" height="50" fill="white" transform="translate(0.875854)"/>
</clipPath>
</defs>
</svg>
